<svg width="78" height="80" viewBox="0 0 78 80" fill="none" xmlns="http://www.w3.org/2000/svg">
<path fill-rule="evenodd" clip-rule="evenodd" d="M36 0.888886C35.2171 0.959179 34.5733 1.53524 34.4167 2.30555L33.5278 6.69444C32.8372 6.93521 32.1702 7.20786 31.5278 7.52778L27.7778 5.05555C27.0708 4.60431 26.1446 4.7085 25.5556 5.30555C24.2112 6.65344 22.7417 8.00478 21.3334 9.41666C20.7305 10.0169 20.6374 10.9601 21.1111 11.6667L23.6389 15.4167C23.3173 16.0732 23.0451 16.7474 22.8056 17.4444L18.3334 18.4167C17.5049 18.5886 16.9123 19.3205 16.9167 20.1667C16.9168 22.1182 16.9167 24.0206 16.9167 25.9722C16.9255 26.8079 17.5151 27.5247 18.3334 27.6944L22.8056 28.6667C23.0451 29.3637 23.3173 30.0379 23.6389 30.6944L21.1111 34.4722C20.6527 35.1729 20.7453 36.0984 21.3334 36.6944C22.7417 38.1062 24.2111 39.4576 25.5556 40.8056C26.1446 41.4026 27.0708 41.5068 27.7778 41.0556L31.5556 38.6111C32.1972 38.9291 32.866 39.2053 33.5556 39.4444L34.4167 43.8056C34.577 44.6451 35.312 45.2517 36.1667 45.25H42.0556C42.9103 45.2517 43.6452 44.6451 43.8056 43.8056L44.6667 39.4444C45.3563 39.2053 46.025 38.9291 46.6667 38.6111L50.4445 41.0556C51.1514 41.5068 52.0776 41.4026 52.6667 40.8056C54.0112 39.4576 55.4805 38.1062 56.8889 36.6944C57.477 36.0984 57.5696 35.1729 57.1111 34.4722L54.5834 30.6944C54.9049 30.0379 55.1771 29.3637 55.4167 28.6667L59.8889 27.6944C60.7072 27.5247 61.2968 26.8079 61.3056 25.9722C61.3055 24.0206 61.3055 22.1182 61.3056 20.1667C61.3099 19.3205 60.7174 18.5886 59.8889 18.4167L55.4167 17.4444C55.1771 16.7474 54.9049 16.0732 54.5834 15.4167L57.1111 11.6667C57.5849 10.9601 57.4917 10.0169 56.8889 9.41666C55.4805 8.00478 54.011 6.65344 52.6667 5.30555C52.0776 4.7085 51.1514 4.60431 50.4445 5.05555L46.6945 7.52778C46.052 7.20786 45.385 6.93521 44.6945 6.69444L43.8056 2.30555C43.6336 1.47708 42.9017 0.88454 42.0556 0.888886H36.1667C36.1112 0.886281 36.0555 0.886281 36 0.888886ZM37.6389 4.44444H40.5834L41.3611 8.27778C41.5 8.94393 42.0069 9.4724 42.6667 9.63889C43.8505 9.95182 44.9399 10.4418 46 11.0556C46.5813 11.3893 47.3008 11.3678 47.8611 11L51.1945 8.83333C51.9125 9.53337 52.6316 10.2052 53.3334 10.8889L51.1111 14.2222C50.7345 14.7772 50.7023 15.4969 51.0278 16.0833C51.6219 17.107 52.1256 18.2942 52.4445 19.4722C52.6155 20.1137 53.1297 20.6064 53.7778 20.75L57.75 21.5833C57.75 22.5629 57.75 23.5484 57.75 24.5278L53.7778 25.3889C53.1297 25.5325 52.6155 26.0252 52.4445 26.6667C52.1256 27.8447 51.6219 29.0041 51.0278 30.0278C50.6907 30.6212 50.7231 31.3552 51.1111 31.9167L53.3056 35.2222C52.6037 35.9059 51.9123 36.6055 51.1945 37.3056L47.8611 35.1111C47.2955 34.7519 46.5761 34.7412 46 35.0833C44.9399 35.6971 43.8505 36.1593 42.6667 36.4722C42.0069 36.6387 41.5 37.1672 41.3611 37.8333L40.5834 41.6944H37.6389L36.8611 37.8333C36.7223 37.1672 36.2154 36.6387 35.5556 36.4722C34.3717 36.1593 33.2823 35.6971 32.2222 35.0833C31.6462 34.7412 30.9267 34.7519 30.3611 35.1111L27.0278 37.3056C26.3099 36.6055 25.6186 35.9059 24.9167 35.2222L27.1111 31.9167C27.4991 31.3552 27.5315 30.6212 27.1945 30.0278C26.6004 29.0041 26.0967 27.8447 25.7778 26.6667C25.6068 26.0252 25.0926 25.5325 24.4445 25.3889L20.4722 24.5278C20.4723 23.5484 20.4723 22.5629 20.4722 21.5833L24.4445 20.75C25.0926 20.6064 25.6068 20.1137 25.7778 19.4722C26.0967 18.2942 26.6004 17.107 27.1945 16.0833C27.5199 15.4969 27.4877 14.7772 27.1111 14.2222L24.8889 10.8889C25.5906 10.2052 26.3098 9.53337 27.0278 8.83333L30.3611 11C30.9214 11.3678 31.641 11.3893 32.2222 11.0556C33.2823 10.4418 34.3717 9.95182 35.5556 9.63889C36.2154 9.4724 36.7223 8.94393 36.8611 8.27778L37.6389 4.44444ZM39.1111 15.9167C35.1877 15.9167 31.9722 19.1321 31.9722 23.0556C31.9722 26.979 35.1877 30.1944 39.1111 30.1944C43.0346 30.1944 46.25 26.979 46.25 23.0556C46.25 19.1321 43.0346 15.9167 39.1111 15.9167ZM39.1111 19.4722C41.0974 19.4722 42.6945 21.0693 42.6945 23.0556C42.6945 25.0419 41.0974 26.6389 39.1111 26.6389C37.1249 26.6389 35.5278 25.0419 35.5278 23.0556C35.5278 21.0693 37.1249 19.4722 39.1111 19.4722ZM72.1667 36.6944C70.7741 36.6944 69.5149 37.3213 68.6111 38.25L68.5834 38.2222C68.5834 38.2222 68.5559 38.2778 68.5556 38.2778C68.5156 38.3178 66.1177 40.6913 63.5 43.3056C60.8607 45.9413 58.1031 48.6809 57.2778 49.5833C56.8467 50.0541 56.7006 50.7196 56.8951 51.3276C57.0896 51.9356 57.5947 52.3929 58.219 52.5261C58.8433 52.6592 59.491 52.4479 59.9167 51.9722C60.4795 51.3568 63.366 48.4638 66 45.8333C68.6341 43.2028 71.0834 40.75 71.0834 40.75C71.102 40.7411 71.1206 40.7318 71.1389 40.7222C71.4463 40.3988 71.7835 40.25 72.1667 40.25C72.9648 40.25 73.7778 41.0153 73.7778 42.25C73.7778 42.782 73.6093 43.24 73.3611 43.5833C73.3564 43.5922 73.3659 43.6049 73.3611 43.6111C73.2835 43.7043 62.6504 56.4637 55.7778 64.5C53.8793 66.72 51.2707 68.9167 47.5834 68.9167H26.5C24.232 68.9167 21.8501 69.3285 20 71.1389L14.9722 76.0555C14.5059 76.499 14.3156 77.1598 14.4747 77.7834C14.6337 78.4069 15.1173 78.8958 15.739 79.0618C16.3608 79.2277 17.0237 79.0447 17.4722 78.5833L22.5 73.6667C23.5141 72.6743 24.5888 72.4722 26.5 72.4722H47.5834C52.6884 72.4722 56.2633 69.3887 58.4722 66.8055C65.4014 58.7032 76.1389 45.8056 76.1389 45.8056C76.1582 45.7783 76.1767 45.7505 76.1945 45.7222C76.912 44.7553 77.3334 43.5466 77.3334 42.25C77.3334 39.297 75.1133 36.6944 72.1667 36.6944ZM25.2778 49.9444C21.5058 49.9444 17.6179 50.4746 14.5 53.0278L1.5278 63.6389C0.768404 64.2679 0.662693 65.3934 1.29168 66.1528C1.92068 66.9122 3.04618 67.0179 3.80557 66.3889L16.75 55.7778C18.9126 54.0068 21.8331 53.5 25.2778 53.5H51.4445C51.7488 54.3743 51.7109 55.4428 51.1389 56.5C50.4195 57.8298 49.2013 58.5584 48.6111 58.5C48.556 58.4881 48.5004 58.4788 48.4445 58.4722H31.4722C30.8311 58.4631 30.2347 58.8 29.9115 59.3538C29.5883 59.9075 29.5883 60.5925 29.9115 61.1462C30.2347 61.7 30.8311 62.0369 31.4722 62.0278H48.25H48.4445V62C51.0492 62.1536 53.1142 60.3174 54.2778 58.1667C55.4719 55.9596 55.8613 52.9937 54.0834 50.6667C53.7511 50.2164 53.2262 49.9488 52.6667 49.9444H25.2778Z" fill="url(#paint0_linear)"/>
<defs>
<linearGradient id="paint0_linear" x1="0.881226" y1="78.1998" x2="75.5312" y2="78.1998" gradientUnits="userSpaceOnUse">
<stop stop-color="#FDA3D6"/>
<stop offset="1" stop-color="#AB7AB6"/>
</linearGradient>
</defs>
</svg>
