<svg width="517" height="343" viewBox="0 0 517 343" fill="none" xmlns="http://www.w3.org/2000/svg">
<path d="M379.44 325H368V216.507L394 216L379.44 325Z" fill="#FFB8B8"/>
<path d="M432.56 325H444V216.507L418 216L432.56 325Z" fill="#FFB8B8"/>
<path d="M373.691 339.992L350.391 339.777C348.13 340.34 345.738 339.824 343.905 338.376C342.071 336.929 341 334.711 341 332.363C341 329.429 342.668 326.754 345.291 325.482L350.606 322.904L367.879 311L380.323 314.513L382.706 325.328C384.149 331.873 380.146 338.383 373.691 339.992Z" fill="#2F2E41"/>
<path d="M436.691 339.992L413.391 339.777C411.13 340.34 408.738 339.824 406.905 338.376C405.071 336.929 404 334.711 404 332.363C404 329.429 405.668 326.754 408.291 325.482L413.606 322.904L430.879 311L443.323 314.513L445.706 325.328C447.149 331.873 443.146 338.383 436.691 339.992Z" fill="#2F2E41"/>
<path d="M446 235L411.537 231.902L407 191.208L396.839 230.581L362 227.45C363.284 203.34 366.048 183.228 372.5 173.087L445.5 160L446 235Z" fill="#2F2E41"/>
<circle cx="411.5" cy="28.5" r="18.5" fill="#FFB8B8"/>
<path d="M426 67L393 63C397.198 54.1951 399.091 45.9733 396.046 39H421.431C417.506 45.897 421.016 56.1188 426 67Z" fill="#FFB8B8"/>
<path fill-rule="evenodd" clip-rule="evenodd" d="M445.49 161.012C422.472 177.94 397.351 183.716 370 177.669C386.595 139.669 384.225 102.216 370 65.105L396.17 54C403.508 61.1792 411.923 61.3354 421.333 55.0095L447 60.5621C442.305 97.5841 440.731 131.971 445.49 161.012Z" fill="url(#paint0_linear)"/>
<path d="M397.145 11.4399L393.975 10.1508C393.975 10.1508 400.604 2.73817 409.828 3.38275L407.233 0.482128C407.233 0.482128 413.575 -2.09614 419.339 4.67186C422.37 8.22966 425.876 12.4117 428.062 17.1226H431.457L430.04 20.2918L435 23.4609L429.909 22.8917C430.391 25.6277 430.226 28.4409 429.427 31.0994L429.564 33.6043C429.564 33.6043 423.663 24.3314 423.663 23.0422V26.2651C423.663 26.2651 420.492 23.3645 420.492 21.4308L418.763 23.6868L417.898 20.1416L407.233 23.6868L408.963 20.7862L402.333 21.7531L404.927 18.2079C404.927 18.2079 397.433 22.3977 397.145 25.9428C396.857 29.488 393.11 34 393.11 34L391.38 30.7771C391.38 30.7771 388.786 16.2742 397.145 11.4399Z" fill="#2F2E41"/>
<path d="M449.629 201H335.371C332.958 200.997 331.003 199.059 331 196.667V179.333C331.003 176.941 332.958 175.003 335.371 175H449.629C452.042 175.003 453.997 176.941 454 179.333V196.667C453.997 199.059 452.042 200.997 449.629 201Z" fill="#AB7AB6"/>
<path d="M354.593 185C352.599 185.032 351 186.59 351 188.5C351 190.41 352.599 191.968 354.593 192H433.297C435.311 192.025 436.966 190.486 436.999 188.557C437.033 186.629 435.431 185.038 433.417 185C433.377 185 433.337 185 433.297 185H354.593Z" fill="white"/>
<path d="M381.827 170.037L387.793 180.355C389.224 182.831 389.392 185.811 388.247 188.424C387.101 191.037 384.772 192.987 381.941 193.703C379.08 194.427 376.035 193.81 373.713 192.034C371.391 190.258 370.06 187.53 370.117 184.661L370.397 170.541C365.915 145.44 362.277 121.675 363.123 105H383.906L379.749 124.158L381.827 170.037Z" fill="#FFB8B8"/>
<path d="M448.182 172.988L443.991 180.043C442.597 182.388 440.132 183.871 437.427 183.992C434.722 184.113 432.136 182.855 430.544 180.643C429.278 178.885 428.759 176.689 429.104 174.543C429.449 172.398 430.628 170.48 432.38 169.216L439.71 163.928L450.175 120.139L443.697 102.02L461.637 99C470.061 118.662 461.576 144.874 448.182 172.988Z" fill="#FFB8B8"/>
<path fill-rule="evenodd" clip-rule="evenodd" d="M388 110L361 108.485L362.855 79.797C362.663 71.4382 368.274 64.0383 376.425 61.8988L379.849 61L388 110Z" fill="#F399D0"/>
<path fill-rule="evenodd" clip-rule="evenodd" d="M464 99.8854L439 106V58.1024L440.032 58.036C448.525 57.4887 456.137 63.2399 457.921 71.5513L464 99.8854Z" fill="#F399D0"/>
<rect x="139" y="340" width="376" height="1" fill="#F69FD3" stroke="url(#paint1_linear)" stroke-width="4"/>
<path opacity="0.8" d="M17.0764 303.22C17.4121 315.769 19.513 328.208 23.317 340.171C23.404 340.449 23.4951 340.722 23.5862 341H46.8758C46.8509 340.751 46.8261 340.474 46.8012 340.171C45.2483 322.309 36.2952 213.592 47 195C46.0641 196.508 15.2709 246.462 17.0764 303.22Z" fill="white"/>
<path opacity="0.8" d="M18.077 340.178C18.27 340.454 18.4712 340.729 18.6764 341H36C35.8686 340.766 35.7167 340.491 35.5401 340.178C32.6782 335.011 24.2074 319.561 16.3442 303.544C7.89393 286.331 0.141661 268.466 0.794536 262C0.593318 263.458 -5.25373 307.915 18.077 340.178Z" fill="white"/>
<path d="M237.639 139H46.3614C43.9538 138.997 42.0028 137.068 42 134.686V29.3135C42.0028 26.9324 43.9538 25.0028 46.3614 25H237.639C240.046 25.0029 241.997 26.9324 242 29.3135V134.686C241.997 137.068 240.046 138.997 237.639 139Z" fill="#AB7AB6"/>
<path fill-rule="evenodd" clip-rule="evenodd" d="M44.1077 341H239.892C241.608 340.998 242.998 339.612 243 337.902V28.0982C242.998 26.3879 241.608 25.002 239.892 25H44.1077C42.3922 25.002 41.002 26.3879 41 28.0982V337.902C41.002 339.612 42.3922 340.998 44.1077 341ZM42.2431 28.0982C42.2442 27.072 43.0784 26.2404 44.1077 26.2393H239.892C240.922 26.2404 241.756 27.072 241.757 28.0982V337.902C241.756 338.928 240.922 339.76 239.892 339.761H44.1077C43.0784 339.76 42.2442 338.928 42.2431 337.902V28.0982Z" fill="#F69FD3"/>
<path d="M239.892 341V343H239.895L239.892 341ZM44.1077 341L44.1053 343H44.1077V341ZM243 337.902L245 337.904V337.902H243ZM243 28.0982H245V28.0958L243 28.0982ZM239.892 25L239.895 23H239.892V25ZM44.1077 25V23L44.1053 23L44.1077 25ZM41 28.0982L39 28.0958V28.0982H41ZM41 337.902H39L39 337.904L41 337.902ZM44.1077 26.2393V24.2393L44.1055 24.2393L44.1077 26.2393ZM42.2431 28.0982L40.2431 28.096V28.0982H42.2431ZM239.892 26.2393L239.894 24.2393H239.892V26.2393ZM241.757 28.0982H243.757V28.096L241.757 28.0982ZM241.757 337.902L243.757 337.904V337.902H241.757ZM239.892 339.761V341.761H239.895L239.892 339.761ZM44.1077 339.761L44.1055 341.761H44.1077V339.761ZM42.2431 337.902H40.2431L40.2431 337.904L42.2431 337.902ZM239.892 339H44.1077V343H239.892V339ZM241 337.899C240.999 338.501 240.508 338.999 239.89 339L239.895 343C242.707 342.997 244.997 340.723 245 337.904L241 337.899ZM241 28.0982V337.902H245V28.0982H241ZM239.89 27C240.508 27.0007 240.999 27.4988 241 28.1005L245 28.0958C244.997 25.2771 242.707 23.0033 239.895 23L239.89 27ZM44.1077 27H239.892V23H44.1077V27ZM43 28.1005C43.0007 27.4988 43.4915 27.0007 44.11 27L44.1053 23C41.2929 23.0033 39.0033 25.2771 39 28.0958L43 28.1005ZM43 337.902V28.0982H39V337.902H43ZM44.11 339C43.4915 338.999 43.0007 338.501 43 337.899L39 337.904C39.0033 340.723 41.2929 342.997 44.1053 343L44.11 339ZM44.1055 24.2393C41.9791 24.2416 40.2454 25.9612 40.2431 28.096L44.2431 28.1004C44.243 28.1828 44.1776 28.2392 44.1099 28.2393L44.1055 24.2393ZM239.892 24.2393H44.1077V28.2393H239.892V24.2393ZM243.757 28.096C243.755 25.9612 242.021 24.2416 239.894 24.2393L239.89 28.2393C239.822 28.2392 239.757 28.1828 239.757 28.1004L243.757 28.096ZM243.757 337.902V28.0982H239.757V337.902H243.757ZM239.895 341.761C242.021 341.758 243.755 340.039 243.757 337.904L239.757 337.9C239.757 337.817 239.822 337.761 239.89 337.761L239.895 341.761ZM44.1077 341.761H239.892V337.761H44.1077V341.761ZM40.2431 337.904C40.2454 340.039 41.9791 341.758 44.1055 341.761L44.1099 337.761C44.1776 337.761 44.243 337.817 44.2431 337.9L40.2431 337.904ZM40.2431 28.0982V337.902H44.2431V28.0982H40.2431Z" fill="url(#paint2_linear)"/>
<circle opacity="0.8" cx="67" cy="190" r="7" fill="white"/>
<path opacity="0.8" d="M211.629 203H97.3706C94.9579 202.997 93.0028 201.059 93 198.667V181.333C93.0028 178.941 94.9579 177.003 97.3706 177H211.629C214.042 177.003 215.997 178.941 216 181.333V198.667C215.997 201.059 214.042 202.997 211.629 203Z" fill="white"/>
<circle opacity="0.8" cx="67" cy="231" r="7" fill="white"/>
<path opacity="0.8" d="M211.629 244H97.3706C94.9579 243.997 93.0028 242.059 93 239.667V222.333C93.0028 219.941 94.9579 218.003 97.3706 218H211.629C214.042 218.003 215.997 219.941 216 222.333V239.667C215.997 242.059 214.042 243.997 211.629 244Z" fill="white"/>
<circle opacity="0.8" cx="67" cy="272" r="7" fill="white"/>
<path opacity="0.8" d="M144.644 285H97.3556C94.9512 284.997 93.0028 283.059 93 280.667V263.333C93.0028 260.941 94.9512 259.003 97.3556 259H144.644C147.049 259.003 148.997 260.941 149 263.333V280.667C148.997 283.059 147.049 284.997 144.644 285Z" fill="white"/>
<path opacity="0.8" d="M211.644 285H164.356C161.951 284.997 160.003 283.059 160 280.667V263.333C160.003 260.941 161.951 259.003 164.356 259H211.644C214.049 259.003 215.997 260.941 216 263.333V280.667C215.997 283.059 214.049 284.997 211.644 285Z" fill="white"/>
<path opacity="0.8" d="M67.621 58.0005C65.6116 58.0319 64 59.5894 64 61.5C64 63.4105 65.6116 64.968 67.621 64.9995H216.254C217.57 65.0214 218.798 64.3737 219.475 63.3006C220.153 62.2276 220.176 60.8925 219.536 59.7989C218.896 58.7053 217.691 58.0196 216.375 58.0005C216.335 57.9998 216.294 57.9998 216.254 58.0005H67.621Z" fill="white"/>
<path opacity="0.8" d="M67.6212 78.0005C65.6117 78.0319 64 79.5895 64 81.5C64 83.4106 65.6117 84.9681 67.6212 84.9996H216.262C218.293 85.0292 219.966 83.4887 219.999 81.5574C220.033 79.6262 218.414 78.0343 216.383 78.0005C216.342 77.9998 216.302 77.9998 216.262 78.0005H67.6212Z" fill="white"/>
<path opacity="0.8" d="M67.6212 99.0005C65.6117 99.0319 64 100.589 64 102.5C64 104.411 65.6117 105.968 67.6212 106H216.262C218.293 106.029 219.966 104.489 219.999 102.557C220.033 100.626 218.414 99.0343 216.383 99.0005C216.342 98.9998 216.302 98.9998 216.262 99.0005H67.6212Z" fill="white"/>
<path d="M209.832 315.982L208.379 314.126C208.316 314.045 208.23 314 208.14 314H207.433C207.297 314 207.174 314.105 207.121 314.266C207.069 314.427 207.098 314.613 207.195 314.736L207.999 315.763H201.577C201.258 315.763 201 316.093 201 316.5C201 316.907 201.258 317.237 201.577 317.237H207.999L207.277 318.159C207.166 318.3 207.133 318.512 207.193 318.696C207.253 318.88 207.393 319 207.549 319H208.12C208.223 319 208.321 318.948 208.393 318.856L209.832 317.018C209.94 316.881 210 316.694 210 316.5C210 316.306 209.94 316.119 209.832 315.982Z" fill="white"/>
<path fill-rule="evenodd" clip-rule="evenodd" d="M196 316C196 321.523 200.477 326 206 326C211.52 325.994 215.994 321.52 216 316C216 310.477 211.523 306 206 306C200.477 306 196 310.477 196 316ZM197.25 316C197.25 311.168 201.168 307.25 206 307.25C210.83 307.255 214.745 311.17 214.75 316C214.75 320.832 210.832 324.75 206 324.75C201.168 324.75 197.25 320.832 197.25 316Z" fill="white"/>
<defs>
<linearGradient id="paint0_linear" x1="370" y1="54" x2="370" y2="180" gradientUnits="userSpaceOnUse">
<stop stop-color="#F7A0D4"/>
<stop offset="1" stop-color="#DE94C9"/>
</linearGradient>
<linearGradient id="paint1_linear" x1="139" y1="340" x2="139" y2="341" gradientUnits="userSpaceOnUse">
<stop stop-color="#F9A1D4"/>
<stop offset="1" stop-color="#AD7CB6"/>
</linearGradient>
<linearGradient id="paint2_linear" x1="41" y1="25" x2="41" y2="341" gradientUnits="userSpaceOnUse">
<stop stop-color="#F9A1D4"/>
<stop offset="1" stop-color="#AD7CB6"/>
</linearGradient>
</defs>
</svg>
