<svg width="20" height="20" viewBox="0 0 20 20" fill="none" xmlns="http://www.w3.org/2000/svg">
<path opacity="0.8" d="M10 11.4286C10.1894 11.4286 10.3711 11.3533 10.5051 11.2194C10.639 11.0854 10.7143 10.9037 10.7143 10.7143C10.7143 10.5248 10.639 10.3432 10.5051 10.2092C10.3711 10.0753 10.1894 10 10 10C9.15236 10 8.32377 9.74865 7.61898 9.27773C6.9142 8.80681 6.36489 8.13747 6.04052 7.35436C5.71614 6.57125 5.63127 5.70953 5.79663 4.87819C5.962 4.04684 6.37017 3.2832 6.96954 2.68383C7.56891 2.08446 8.33255 1.67629 9.1639 1.51092C9.99524 1.34556 10.857 1.43043 11.6401 1.7548C12.4232 2.07918 13.0925 2.62849 13.5634 3.33327C14.0344 4.03805 14.2857 4.86665 14.2857 5.71429V7.14286C14.2857 7.3323 14.2105 7.51398 14.0765 7.64793C13.9425 7.78189 13.7609 7.85714 13.5714 7.85714C13.382 7.85714 13.2003 7.78189 13.0664 7.64793C12.9324 7.51398 12.8571 7.3323 12.8571 7.14286V5.71429C12.8571 5.1492 12.6896 4.5968 12.3756 4.12694C12.0617 3.65709 11.6155 3.29088 11.0934 3.07463C10.5713 2.85838 9.99683 2.8018 9.4426 2.91204C8.88837 3.02229 8.37927 3.2944 7.97969 3.69398C7.58012 4.09356 7.308 4.60266 7.19776 5.15689C7.08751 5.71112 7.14409 6.28559 7.36034 6.80767C7.57659 7.32974 7.9428 7.77597 8.41266 8.08991C8.88251 8.40386 9.43491 8.57143 10 8.57143C10.5858 8.56942 11.1568 8.38739 11.6357 8.05C11.8439 8.48852 12.1949 8.84335 12.631 9.05639C13.0672 9.26943 13.5628 9.32805 14.0367 9.22266C14.5106 9.11727 14.9346 8.8541 15.2394 8.47626C15.5441 8.09842 15.7116 7.62829 15.7143 7.14286V5.71429C15.7143 4.58411 15.3791 3.47931 14.7513 2.5396C14.1234 1.59989 13.2309 0.867477 12.1868 0.434977C11.1426 0.00247589 9.99366 -0.110686 8.8852 0.109801C7.77673 0.330288 6.75855 0.874521 5.95939 1.67368C5.16023 2.47284 4.616 3.49102 4.39551 4.59949C4.17503 5.70795 4.28819 6.8569 4.72069 7.90105C5.15319 8.9452 5.8856 9.83765 6.82531 10.4655C7.76502 11.0934 8.86982 11.4286 10 11.4286ZM10 7.14286C9.71745 7.14286 9.44126 7.05907 9.20633 6.9021C8.9714 6.74513 8.7883 6.52202 8.68017 6.26098C8.57205 5.99994 8.54376 5.7127 8.59888 5.43559C8.654 5.15847 8.79006 4.90392 8.98985 4.70414C9.18964 4.50435 9.44418 4.36829 9.7213 4.31317C9.99841 4.25804 10.2857 4.28633 10.5467 4.39446C10.8077 4.50258 11.0308 4.68569 11.1878 4.92062C11.3448 5.15554 11.4286 5.43174 11.4286 5.71429C11.4286 6.09317 11.2781 6.45653 11.0102 6.72444C10.7422 6.99235 10.3789 7.14286 10 7.14286ZM20 8.57143V17.8571C20 18.4255 19.7742 18.9705 19.3724 19.3724C18.9705 19.7742 18.4255 20 17.8571 20H2.14286C1.57454 20 1.02949 19.7742 0.627628 19.3724C0.225765 18.9705 0 18.4255 0 17.8571V8.57143C0.0002622 8.46235 0.0255055 8.35477 0.0737938 8.25696C0.122082 8.15914 0.192132 8.07369 0.278571 8.00714L2.85714 6.02143V7.85714L1.88571 8.57143L10 14.8143L18.1143 8.57143L17.1429 7.85714V6.02143L19.7214 8.00714C19.8079 8.07369 19.8779 8.15914 19.9262 8.25696C19.9745 8.35477 19.9997 8.46235 20 8.57143Z" fill="url(#paint0_linear)"/>
<defs>
<linearGradient id="paint0_linear" x1="0" y1="19.7643" x2="19.5286" y2="19.7643" gradientUnits="userSpaceOnUse">
<stop stop-color="#FDA3D6"/>
<stop offset="1" stop-color="#AB7AB6"/>
</linearGradient>
</defs>
</svg>
