<svg width="19" height="20" viewBox="0 0 19 20" fill="none" xmlns="http://www.w3.org/2000/svg">
<path opacity="0.8" fill-rule="evenodd" clip-rule="evenodd" d="M18.3469 12.8367L14 17.8163C13.4286 18.4898 12.5918 18.8571 11.6939 18.8571H10.2449H5.16327L4.04082 20L0 16.0612L2.89796 13.1837C4.10204 12 5.87755 11.5918 7.46939 12.1429L8.10204 12.3673H12.0204C12.7143 12.3673 13.2653 12.9388 13.2449 13.6327C13.2245 14.3061 12.6327 14.8367 11.9592 14.8367H9.61224C9.34694 14.8367 9.14286 15.0612 9.14286 15.3061C9.14286 15.5714 9.36735 15.7755 9.61224 15.7755H10.2653H11.9796C13.1837 15.7755 14.1837 14.8163 14.2245 13.6531V13.6327L16.4082 11.1837C16.8776 10.6531 17.6735 10.5714 18.2245 11C18.7551 11.4694 18.8163 12.3061 18.3469 12.8367ZM5.16327 6V5.28571C5.16327 4.97959 5.38775 4.69388 5.69388 4.65306L6.53061 4.5102C6.63265 4.14286 6.77551 3.77551 6.95918 3.44898L6.46939 2.7551C6.28571 2.4898 6.32653 2.14286 6.55102 1.91837L7.06122 1.40816C7.28571 1.18367 7.63265 1.14286 7.89796 1.32653L8.59184 1.81633C8.91837 1.63265 9.28571 1.4898 9.65306 1.38776L9.79592 0.55102C9.85714 0.22449 10.1224 0 10.4286 0H11.1633C11.4694 0 11.7551 0.22449 11.7959 0.530612L11.9388 1.36735C12.3061 1.4898 12.6735 1.63265 13 1.81633L13.6939 1.32653C13.9592 1.14286 14.3061 1.18367 14.5306 1.40816L15.0408 1.91837C15.2653 2.14286 15.2857 2.4898 15.1224 2.7551L14.6327 3.44898C14.8163 3.77551 14.9592 4.12245 15.0612 4.5102L15.898 4.65306C16.2041 4.71429 16.4286 4.97959 16.4286 5.28571V6C16.4286 6.30612 16.2041 6.59184 15.898 6.63265L15.0408 6.77551C14.9388 7.14286 14.7959 7.5102 14.6122 7.83673L15.102 8.53061C15.2857 8.79592 15.2449 9.14286 15.0204 9.36735L14.5102 9.87755C14.2857 10.102 13.9388 10.1224 13.6735 9.95918L13 9.44898C12.6735 9.63265 12.3265 9.77551 11.9388 9.87755L11.7959 10.7143C11.7347 11.0204 11.4694 11.2449 11.1633 11.2449H10.449C10.1429 11.2449 9.85714 11.0204 9.81633 10.7143L9.67347 9.87755C9.30612 9.77551 8.93878 9.63265 8.61224 9.44898L7.89796 9.93878C7.63265 10.1224 7.28571 10.0816 7.06122 9.85714L6.55102 9.34694C6.32653 9.12245 6.30612 8.77551 6.46939 8.5102L6.95918 7.81633C6.77551 7.4898 6.63265 7.14286 6.53061 6.7551L5.69388 6.61225C5.38775 6.57143 5.16327 6.30612 5.16327 6ZM8.85714 5.63265C8.85714 6.69388 9.71428 7.57143 10.7959 7.57143C11.8776 7.57143 12.7347 6.71429 12.7347 5.63265C12.7347 4.57143 11.8776 3.69388 10.7959 3.69388C9.71428 3.69388 8.85714 4.57143 8.85714 5.63265Z" fill="url(#paint0_linear)"/>
<defs>
<linearGradient id="paint0_linear" x1="0" y1="19.7643" x2="18.2239" y2="19.7643" gradientUnits="userSpaceOnUse">
<stop stop-color="#FDA3D6"/>
<stop offset="1" stop-color="#AB7AB6"/>
</linearGradient>
</defs>
</svg>
