<svg width="23" height="20" viewBox="0 0 23 20" fill="none" xmlns="http://www.w3.org/2000/svg">
<path opacity="0.8" d="M22.4539 6.57023C22.4004 4.82597 21.6406 3.18872 20.3244 1.9581C17.8738 -0.331916 14.0215 -0.620844 11.2285 1.15552C8.42484 -0.631545 4.58317 -0.331916 2.13264 1.9581C0.816418 3.18872 0.0566459 4.82597 0.00314082 6.57023C-0.0503642 8.3145 0.580996 9.98386 1.80091 11.2787C1.91862 11.4071 2.02563 11.5141 2.13264 11.6104L10.2012 19.1332C10.3082 19.2295 10.4152 19.3258 10.5543 19.4436L11.2285 20L11.9027 19.4436C12.0418 19.3258 12.1488 19.2295 12.2558 19.1332L20.3137 11.6104C20.4207 11.5141 20.5277 11.4071 20.6454 11.2787C21.8653 9.98386 22.5074 8.3038 22.4539 6.57023Z" fill="url(#paint0_linear)"/>
<defs>
<linearGradient id="paint0_linear" x1="0" y1="19.7643" x2="21.9276" y2="19.7643" gradientUnits="userSpaceOnUse">
<stop stop-color="#FDA3D6"/>
<stop offset="1" stop-color="#AB7AB6"/>
</linearGradient>
</defs>
</svg>
