<svg width="17" height="20" viewBox="0 0 17 20" fill="none" xmlns="http://www.w3.org/2000/svg">
<g opacity="0.8">
<path d="M11.7917 0H1.375C0.625 0 0 0.625 0 1.375V18.625C0 19.375 0.625 20 1.375 20H15C15.75 20 16.375 19.375 16.375 18.625V5C16.375 4.95833 16.375 4.91667 16.375 4.83333H11.9583C11.7083 4.83333 11.5 4.625 11.5417 4.375L11.9583 0C11.9167 0 11.8333 0 11.7917 0ZM2.79167 17.5C2.25 17.5 1.83333 17.0833 1.83333 16.5417C1.83333 16 2.25 15.5833 2.79167 15.5833C3.33333 15.5833 3.75 16 3.75 16.5417C3.75 17.0833 3.33333 17.5 2.79167 17.5ZM2.79167 14C2.25 14 1.83333 13.5833 1.83333 13.0417C1.83333 12.5 2.25 12.0833 2.79167 12.0833C3.33333 12.0833 3.75 12.5417 3.75 13.0417C3.75 13.5833 3.33333 14 2.79167 14ZM2.79167 10.5C2.25 10.5 1.83333 10.0833 1.83333 9.54167C1.83333 9 2.25 8.58333 2.79167 8.58333C3.33333 8.58333 3.75 9 3.75 9.54167C3.75 10.0833 3.33333 10.5 2.79167 10.5ZM2.91667 3.125C2.91667 2.04167 3.79167 1.16667 4.875 1.16667C5.41667 1.16667 5.91667 1.375 6.25 1.75C6.58333 1.375 7.08333 1.16667 7.625 1.16667C8.70833 1.16667 9.58333 2.04167 9.58333 3.125C9.58333 4.70833 7.54167 5.70833 6.25 7.125C5 5.75 2.91667 4.70833 2.91667 3.125ZM14.0417 17H5.29167C5.04167 17 4.83333 16.7917 4.83333 16.5417C4.83333 16.2917 5.04167 16.0833 5.29167 16.0833H14.0417C14.2917 16.0833 14.5 16.2917 14.5 16.5417C14.5 16.7917 14.2917 17 14.0417 17ZM14.0417 13.5H5.29167C5.04167 13.5 4.83333 13.2917 4.83333 13.0417C4.83333 12.7917 5.04167 12.5833 5.29167 12.5833H14.0417C14.2917 12.5833 14.5 12.7917 14.5 13.0417C14.5 13.2917 14.3333 13.5 14.0417 13.5ZM14.0417 9.08333C14.2917 9.08333 14.5 9.29167 14.5 9.54167C14.5 9.79167 14.2917 10 14.0417 10H5.29167C5.04167 10 4.83333 9.79167 4.83333 9.54167C4.83333 9.29167 5.04167 9.08333 5.29167 9.08333H14.0417Z" fill="url(#paint0_linear)"/>
<path d="M12.4165 4H15.7082L12.7498 0.75L12.4165 4Z" fill="url(#paint1_linear)"/>
</g>
<defs>
<linearGradient id="paint0_linear" x1="0" y1="19.7643" x2="15.989" y2="19.7643" gradientUnits="userSpaceOnUse">
<stop stop-color="#FDA3D6"/>
<stop offset="1" stop-color="#AB7AB6"/>
</linearGradient>
<linearGradient id="paint1_linear" x1="12.4165" y1="3.9617" x2="15.6306" y2="3.9617" gradientUnits="userSpaceOnUse">
<stop stop-color="#FDA3D6"/>
<stop offset="1" stop-color="#AB7AB6"/>
</linearGradient>
</defs>
</svg>
