<svg width="18" height="18" viewBox="0 0 18 18" fill="none" xmlns="http://www.w3.org/2000/svg">
<path d="M9 10.2857C9.1705 10.2857 9.33401 10.218 9.45457 10.0974C9.57513 9.97687 9.64286 9.81335 9.64286 9.64286C9.64286 9.47236 9.57513 9.30885 9.45457 9.18829C9.33401 9.06773 9.1705 9 9 9C8.23713 9 7.49139 8.77378 6.85709 8.34996C6.22278 7.92613 5.7284 7.32372 5.43646 6.61892C5.14453 5.91412 5.06814 5.13858 5.21697 4.39037C5.3658 3.64216 5.73316 2.95488 6.27259 2.41545C6.81202 1.87602 7.4993 1.50866 8.24751 1.35983C8.99572 1.211 9.77126 1.28739 10.4761 1.57932C11.1809 1.87126 11.7833 2.36564 12.2071 2.99995C12.6309 3.63425 12.8571 4.37999 12.8571 5.14286V6.42857C12.8571 6.59907 12.7894 6.76258 12.6689 6.88314C12.5483 7.0037 12.3848 7.07143 12.2143 7.07143C12.0438 7.07143 11.8803 7.0037 11.7597 6.88314C11.6392 6.76258 11.5714 6.59907 11.5714 6.42857V5.14286C11.5714 4.63428 11.4206 4.13712 11.1381 3.71425C10.8555 3.29138 10.4539 2.96179 9.98404 2.76717C9.51417 2.57254 8.99715 2.52162 8.49834 2.62084C7.99953 2.72006 7.54135 2.96496 7.18172 3.32458C6.8221 3.68421 6.5772 4.14239 6.47798 4.6412C6.37876 5.14001 6.42968 5.65704 6.62431 6.1269C6.81893 6.59677 7.14852 6.99837 7.57139 7.28092C7.99426 7.56348 8.49142 7.71429 9 7.71429C9.52722 7.71248 10.0411 7.54865 10.4721 7.245C10.6595 7.63967 10.9754 7.95902 11.3679 8.15075C11.7605 8.34249 12.2066 8.39525 12.633 8.30039C13.0595 8.20554 13.4411 7.96869 13.7154 7.62863C13.9897 7.28858 14.1404 6.86546 14.1429 6.42857V5.14286C14.1429 4.1257 13.8412 3.13138 13.2761 2.28564C12.711 1.4399 11.9078 0.78073 10.9681 0.391479C10.0284 0.0022283 8.99429 -0.0996174 7.99668 0.0988209C6.99906 0.297259 6.08269 0.787069 5.36345 1.50631C4.64421 2.22555 4.1544 3.14192 3.95596 4.13954C3.75752 5.13715 3.85937 6.17121 4.24862 7.11094C4.63787 8.05068 5.29704 8.85388 6.14278 9.41899C6.98852 9.98409 7.98284 10.2857 9 10.2857ZM9 6.42857C8.74571 6.42857 8.49713 6.35317 8.2857 6.21189C8.07426 6.07062 7.90947 5.86981 7.81215 5.63488C7.71484 5.39995 7.68938 5.14143 7.73899 4.89203C7.7886 4.64262 7.91105 4.41353 8.09086 4.23372C8.27067 4.05391 8.49976 3.93146 8.74917 3.88185C8.99857 3.83224 9.25709 3.8577 9.49202 3.95501C9.72695 4.05233 9.92776 4.21712 10.069 4.42855C10.2103 4.63999 10.2857 4.88857 10.2857 5.14286C10.2857 5.48385 10.1503 5.81088 9.90914 6.052C9.66802 6.29311 9.34099 6.42857 9 6.42857ZM18 7.71429V16.0714C18 16.5829 17.7968 17.0735 17.4351 17.4351C17.0735 17.7968 16.5829 18 16.0714 18H1.92857C1.41708 18 0.926543 17.7968 0.564865 17.4351C0.203188 17.0735 0 16.5829 0 16.0714V7.71429C0.00023598 7.61611 0.022955 7.51929 0.0664144 7.43126C0.109874 7.34323 0.172919 7.26632 0.250714 7.20643L2.57143 5.41929V7.07143L1.69714 7.71429L9 13.3329L16.3029 7.71429L15.4286 7.07143V5.41929L17.7493 7.20643C17.8271 7.26632 17.8901 7.34323 17.9336 7.43126C17.977 7.51929 17.9998 7.61611 18 7.71429Z" fill="#A3A2A2"/>
</svg>
