<?xml version="1.0" encoding="utf-8"?>
<!-- Generator: Adobe Illustrator 16.0.0, SVG Export Plug-In . SVG Version: 6.00 Build 0)  -->
<!DOCTYPE svg PUBLIC "-//W3C//DTD SVG 1.1//EN" "http://www.w3.org/Graphics/SVG/1.1/DTD/svg11.dtd">
<svg version="1.1" xmlns="http://www.w3.org/2000/svg" xmlns:xlink="http://www.w3.org/1999/xlink" x="0px" y="0px"
	 width="1093.813px" height="1000px" viewBox="0 0 1093.813 1000" enable-background="new 0 0 1093.813 1000" xml:space="preserve">
<g id="Layer_2">
	<g>
		<g>
			<rect x="88.997" y="206.353" fill="#F5F5F5" width="272.566" height="531.774"/>
			<rect x="373.293" y="206.353" fill="#F5F5F5" width="272.568" height="531.774"/>
			<rect x="658.764" y="206.353" fill="#F5F5F5" width="272.57" height="531.774"/>
			<polygon fill="#EBEBEB" points="220.544,738.127 149.445,738.127 149.445,420.41 220.544,397.174 			"/>
			<polygon fill="#E6E6E6" points="279.894,738.127 208.794,738.127 208.794,496.522 279.894,473.284 			"/>
			<polygon fill="#E6E6E6" points="271.409,489.766 254.444,489.766 254.444,432.111 271.409,426.565 			"/>
			<g>
				<g>
					<path fill="#E6E6E6" d="M564.792,385.184l-26.102-1.117l1.098,37.702l-104.348-0.816v5.591l11.803,3.353l-0.459,102.837
						l0.102,44.41l-27.883,1.305v-73.502l-21.015-47.386h-47.116l-2.481-55.826l-26.058-2.701L321.5,457.56h-31.011
						c0.236,0,0,280.038,0,280.038h119.039l37.715,0.041v0.021l4.089-0.014l9.836,0.014v-0.041l114.97-0.332l-6.807-306.274
						l9.072-2.235v-6.707l-14.65-0.115L564.792,385.184z"/>
					<polygon fill="#E6E6E6" points="804.857,427.66 804.857,417.601 743.937,417.601 716.155,417.601 690.068,417.601 
						690.068,425.425 702.591,426.543 703.258,505.506 615.365,503.547 617.019,737.688 805.193,737.688 					"/>
				</g>
			</g>
			<polygon fill="#EBEBEB" points="871.983,738.127 814.132,738.127 814.132,355.809 871.983,332.57 			"/>
			<polygon fill="#E6E6E6" points="931.334,738.127 860.229,738.127 860.229,496.522 931.334,473.284 			"/>
			<polygon fill="#E6E6E6" points="922.849,489.766 914.366,489.766 914.366,432.111 922.849,426.565 			"/>
			<polygon fill="#E6E6E6" points="895.114,503.631 886.629,503.631 886.629,445.979 895.114,440.436 			"/>
			<path fill="#EBEBEB" d="M164.011,580.277h-32.396c-11.651,0-21.093,9.441-21.093,21.088v136.762h53.488V580.277z"/>
		</g>
		<g>
			<polygon opacity="0.5" fill="#FFFFFF" points="237.861,738.123 164.61,738.123 315.579,206.353 388.833,206.353 			"/>
			<polygon opacity="0.5" fill="#FFFFFF" points="457.422,738.123 384.169,738.123 535.141,206.353 608.394,206.353 			"/>
			<polygon opacity="0.5" fill="#FFFFFF" points="549.111,738.123 475.859,738.123 626.834,206.353 700.083,206.353 			"/>
			<polygon opacity="0.5" fill="#FFFFFF" points="725.429,738.123 688.801,738.123 839.772,206.353 876.4,206.353 			"/>
		</g>
	</g>
	<g>
		<g>
			<path fill="#4E4E4E" d="M997.012,533.964H838.643c-1.656,0-3-1.344-3-3V416.831c0-1.656,1.344-2.998,3-2.998h158.369
				c1.656,0,3,1.342,3,2.998v114.133C1000.012,532.62,998.668,533.964,997.012,533.964z"/>
		</g>
		<rect x="838.752" y="426.045" fill="#F2A4C8" width="158.148" height="104.542"/>
		<g>
			<path fill="#FFFFFF" d="M850.131,439.075c0.174,0.129,0.379,0.191,0.582,0.191c0.301,0,0.598-0.141,0.789-0.4
				c0.322-0.438,0.23-1.051-0.209-1.374l-2.896-2.133l2.891-2.138c0.439-0.321,0.529-0.937,0.207-1.374
				c-0.32-0.438-0.939-0.527-1.371-0.205l-3.965,2.931c-0.252,0.186-0.398,0.479-0.398,0.791c0,0.312,0.148,0.604,0.4,0.788
				L850.131,439.075z"/>
			<path fill="#FFFFFF" d="M863.424,435.348l-2.895,2.139c-0.436,0.322-0.527,0.938-0.205,1.374c0.193,0.262,0.49,0.398,0.791,0.398
				c0.201,0,0.406-0.063,0.584-0.191l3.963-2.932c0.25-0.186,0.398-0.479,0.398-0.791c-0.002-0.313-0.15-0.604-0.402-0.789
				l-3.969-2.922c-0.438-0.32-1.051-0.228-1.375,0.21c-0.322,0.437-0.227,1.052,0.209,1.373L863.424,435.348z"/>
			<path fill="#FFFFFF" d="M854.547,439.208c0.109,0.039,0.219,0.057,0.326,0.057c0.406,0,0.785-0.252,0.926-0.654l2.072-5.856
				c0.18-0.511-0.088-1.072-0.6-1.252c-0.51-0.182-1.072,0.088-1.252,0.598l-2.068,5.854
				C853.768,438.466,854.037,439.026,854.547,439.208z"/>
			<path opacity="0.5" fill="#FFFFFF" d="M870.926,439.593h5.18c0.723,0,1.309-0.586,1.309-1.309c0-0.723-0.586-1.31-1.309-1.31
				h-5.18c-0.723,0-1.309,0.587-1.309,1.31C869.617,439.007,870.203,439.593,870.926,439.593z"/>
			<path opacity="0.5" fill="#FFFFFF" d="M938.102,449.976h7c0.721,0,1.309-0.588,1.309-1.311s-0.588-1.309-1.309-1.309h-7
				c-0.723,0-1.311,0.586-1.311,1.309S937.379,449.976,938.102,449.976z"/>
			<path fill="#FFFFFF" d="M862.314,448.665c0,0.723,0.588,1.311,1.309,1.311h65.475c0.721,0,1.309-0.588,1.309-1.311
				s-0.588-1.309-1.309-1.309h-65.475C862.902,447.356,862.314,447.942,862.314,448.665z"/>
			<path opacity="0.5" fill="#FFFFFF" d="M845.83,449.976h10.02c0.721,0,1.307-0.588,1.307-1.311s-0.586-1.309-1.307-1.309h-10.02
				c-0.723,0-1.309,0.586-1.309,1.309S845.107,449.976,845.83,449.976z"/>
			<path fill="#FFFFFF" d="M913.674,458.263c0.725,0,1.311-0.586,1.311-1.309c0-0.725-0.586-1.311-1.311-1.311h-26.072
				c-0.725,0-1.311,0.586-1.311,1.311c0,0.723,0.586,1.309,1.311,1.309H913.674z"/>
			<path fill="#FFFFFF" d="M863.625,458.263h18.5c0.727,0,1.311-0.586,1.311-1.309c0-0.725-0.584-1.311-1.311-1.311h-18.5
				c-0.721,0-1.309,0.586-1.309,1.311C862.316,457.677,862.904,458.263,863.625,458.263z"/>
			<path opacity="0.5" fill="#FFFFFF" d="M845.83,458.263h9.844c0.725,0,1.311-0.586,1.311-1.309c0-0.725-0.586-1.311-1.311-1.311
				h-9.844c-0.723,0-1.309,0.586-1.309,1.311C844.521,457.677,845.107,458.263,845.83,458.263z"/>
			<path fill="#FFFFFF" d="M901.891,465.241c0-0.723-0.588-1.309-1.309-1.309h-37.086c-0.723,0-1.311,0.586-1.311,1.309
				c0,0.725,0.588,1.311,1.311,1.311h37.086C901.303,466.552,901.891,465.966,901.891,465.241z"/>
			<path opacity="0.5" fill="#FFFFFF" d="M845.83,466.552h9.953c0.725,0,1.313-0.586,1.313-1.311c0-0.723-0.588-1.309-1.313-1.309
				h-9.953c-0.723,0-1.309,0.586-1.309,1.309C844.521,465.966,845.107,466.552,845.83,466.552z"/>
			<path fill="#FFFFFF" d="M888.838,474.839h37.932c0.721,0,1.309-0.586,1.309-1.309c0-0.725-0.588-1.311-1.309-1.311h-37.932
				c-0.725,0-1.309,0.586-1.309,1.311C887.529,474.253,888.113,474.839,888.838,474.839z"/>
			<path fill="#FFFFFF" d="M863.518,472.22c-0.723,0-1.309,0.586-1.309,1.311c0,0.723,0.586,1.309,1.309,1.309h17.254
				c0.725,0,1.309-0.586,1.309-1.309c0-0.725-0.584-1.311-1.309-1.311H863.518z"/>
			<path opacity="0.5" fill="#FFFFFF" d="M845.83,474.839h9.84c0.721,0,1.309-0.586,1.309-1.309c0-0.725-0.588-1.311-1.309-1.311
				h-9.84c-0.723,0-1.309,0.586-1.309,1.311C844.521,474.253,845.107,474.839,845.83,474.839z"/>
			<path fill="#FFFFFF" d="M878.32,480.507h-8.559c-0.723,0-1.309,0.588-1.309,1.311s0.586,1.309,1.309,1.309h8.559
				c0.723,0,1.309-0.586,1.309-1.309S879.043,480.507,878.32,480.507z"/>
			<path fill="#FFFFFF" d="M863.668,480.507H845.83c-0.723,0-1.309,0.588-1.309,1.311s0.586,1.309,1.309,1.309h17.838
				c0.725,0,1.309-0.586,1.309-1.309S864.393,480.507,863.668,480.507z"/>
			<path fill="#FFFFFF" d="M919.797,490.106c0,0.723,0.588,1.309,1.311,1.309h69.822c0.723,0,1.309-0.586,1.309-1.309
				c0-0.725-0.586-1.311-1.309-1.311h-69.822C920.385,488.796,919.797,489.382,919.797,490.106z"/>
			<path opacity="0.5" fill="#FFFFFF" d="M900.824,488.796c-0.723,0-1.309,0.586-1.309,1.311c0,0.723,0.586,1.309,1.309,1.309
				h13.221c0.723,0,1.311-0.586,1.311-1.309c0-0.725-0.588-1.311-1.311-1.311H900.824z"/>
			<path opacity="0.5" fill="#FFFFFF" d="M990.93,497.085h-17.01c-0.723,0-1.311,0.586-1.311,1.309s0.588,1.311,1.311,1.311h17.01
				c0.723,0,1.309-0.588,1.309-1.311S991.652,497.085,990.93,497.085z"/>
			<path fill="#FFFFFF" d="M990.93,505.372h-30.838c-0.725,0-1.311,0.588-1.311,1.309c0,0.725,0.586,1.311,1.311,1.311h30.838
				c0.723,0,1.309-0.586,1.309-1.311C992.238,505.96,991.652,505.372,990.93,505.372z"/>
			<path fill="#FFFFFF" d="M965.182,497.085h-30.838c-0.723,0-1.311,0.586-1.311,1.309s0.588,1.311,1.311,1.311h30.838
				c0.725,0,1.311-0.588,1.311-1.311S965.906,497.085,965.182,497.085z"/>
			<path opacity="0.5" fill="#FFFFFF" d="M945.346,505.372c-0.723,0-1.311,0.588-1.311,1.309c0,0.725,0.588,1.311,1.311,1.311h7.643
				c0.723,0,1.311-0.586,1.311-1.311c0-0.721-0.588-1.309-1.311-1.309H945.346z"/>
			<path fill="#FFFFFF" d="M990.93,513.661h-61.295c-0.723,0-1.311,0.586-1.311,1.309s0.588,1.311,1.311,1.311h61.295
				c0.723,0,1.309-0.588,1.309-1.311S991.652,513.661,990.93,513.661z"/>
			<path fill="#FFFFFF" d="M902.576,513.661h-21.391c-0.723,0-1.311,0.586-1.311,1.309s0.588,1.311,1.311,1.311h21.391
				c0.723,0,1.309-0.588,1.309-1.311S903.299,513.661,902.576,513.661z"/>
		</g>
	</g>
	<g>
		<g>
			<g>
				<ellipse fill="#E6E6E5" cx="586.409" cy="854.91" rx="443.769" ry="7.42"/>
			</g>
			<g>
				<path fill="#E6E6E5" d="M381.429,850.609c0,0-27.109-15.545-18.604-21.109c9.473-6.197,23.32,18.391,23.32,18.391
					s-3.83-15.08,3.83-13.557c7.661,1.527,3.83,16.275,3.83,16.275H381.429z"/>
			</g>
			<g>
				<path fill="#E6E6E5" d="M831.555,853.057c0,0,27.11-15.541,18.603-21.109c-9.474-6.195-23.322,18.395-23.322,18.395
					s3.831-15.084-3.829-13.559c-7.663,1.525-3.832,16.273-3.832,16.273H831.555z"/>
			</g>
		</g>
	</g>
	<g>
		<g>
			<g>
				<g>
					<g>
						<g>
							<g>
								<path fill="#F3F3F3" d="M872.141,732.512H316.192c-5.443,0-9.854-4.412-9.854-9.852v-361c0-5.441,4.41-9.852,9.854-9.852
									h555.948c5.441,0,9.853,4.41,9.853,9.852v361C881.993,728.1,877.582,732.512,872.141,732.512z"/>
							</g>
						</g>
						<g>
							<g>
								<path fill="#AB7AB5" d="M307.941,721.584V362.736c0-4.988,4.043-9.031,9.031-9.031l554.387,0
									c4.989,0,9.031,4.043,9.031,9.031v358.848c0,4.99-4.042,9.031-9.031,9.031H316.973
									C311.984,730.615,307.941,726.574,307.941,721.584z"/>
							</g>
						</g>
						<g>
							<g>
								<rect x="320.599" y="376.961" fill="#F3F3F3" width="547.135" height="330.4"/>
							</g>
						</g>
					</g>
				</g>
				<g>
					<g>
						<g>
							<path fill="#F3F3F3" d="M970.283,834.672H211.448c-14.996,0-23.637-3.17-19.381-7.01l106.945-96.469
								c2.238-2.018,12.633-3.633,23.25-3.633h537.208c10.616,0,21.01,1.615,23.248,3.633l106.946,96.469
								C993.921,831.502,985.279,834.672,970.283,834.672z"/>
						</g>
					</g>
					<g>
						<g>
							<path fill="#DFDFDE" d="M911.514,790.125H276.817c-4.389,0-7.116-0.82-6.101-1.826l53.646-53.082
								c0.703-0.693,4.205-1.256,7.827-1.256h523.953c3.62,0,7.124,0.563,7.828,1.256l53.645,53.082
								C918.63,789.305,915.902,790.125,911.514,790.125z"/>
						</g>
					</g>
					<g>
						<g>
							<path fill="#DFDFDE" d="M689.199,829.133H499.132c-4.92,0-8.611-1.029-8.246-2.291l8.43-29.271
								c0.305-1.055,4.167-1.908,8.629-1.908h172.442c4.463,0,8.326,0.854,8.63,1.908l8.431,29.271
								C697.811,828.104,694.121,829.133,689.199,829.133z"/>
						</g>
					</g>
					<g>
						<g>
							<g>
								<path fill="#4E4E4E" d="M342.661,763.898h-32.477c-2.014,0-4.048,0.412-4.543,0.92l-7.27,7.475
									c-0.521,0.537,0.738,0.973,2.816,0.973h33.506H368.2c2.078,0,4.081-0.436,4.472-0.973l5.444-7.475
									c0.371-0.508-0.963-0.92-2.979-0.92H342.661z"/>
							</g>
						</g>
						<g>
							<g>
								<path fill="#4E4E4E" d="M416.368,773.266h-29.742c-2.078,0-3.509-0.369-3.194-0.822l5.38-7.768
									c0.299-0.43,2.172-0.777,4.187-0.777h28.829c2.014,0,3.449,0.348,3.206,0.777l-4.433,7.768
									C420.341,772.896,418.446,773.266,416.368,773.266z"/>
							</g>
						</g>
						<g>
							<g>
								<path fill="#4E4E4E" d="M464.534,773.266h-29.741c-2.078,0-3.565-0.369-3.325-0.822l4.154-7.768
									c0.23-0.43,2.05-0.777,4.064-0.777h28.828c2.016,0,3.506,0.348,3.328,0.777l-3.205,7.768
									C468.45,772.896,466.612,773.266,464.534,773.266z"/>
							</g>
						</g>
						<g>
							<g>
								<path fill="#4E4E4E" d="M512.701,773.266H482.96c-2.078,0-3.624-0.369-3.453-0.822l2.927-7.768
									c0.161-0.43,1.925-0.777,3.94-0.777h28.83c2.014,0,3.56,0.348,3.449,0.777l-1.979,7.768
									C516.56,772.896,514.78,773.266,512.701,773.266z"/>
							</g>
						</g>
						<g>
							<g>
								<path fill="#4E4E4E" d="M609.037,773.266h-29.74c-2.08,0-3.742-0.369-3.714-0.822l0.473-7.768
									c0.026-0.43,1.682-0.777,3.696-0.777h28.828c2.016,0,3.671,0.348,3.696,0.777l0.474,7.768
									C612.778,772.896,611.117,773.266,609.037,773.266z"/>
							</g>
						</g>
						<g>
							<g>
								<path fill="#4E4E4E" d="M560.868,773.266h-29.74c-2.08,0-3.684-0.369-3.583-0.822l1.701-7.768
									c0.093-0.43,1.802-0.777,3.817-0.777h28.828c2.016,0,3.614,0.348,3.573,0.777l-0.753,7.768
									C564.669,772.896,562.948,773.266,560.868,773.266z"/>
							</g>
						</g>
						<g>
							<g>
								<path fill="#4E4E4E" d="M657.205,773.266h-29.743c-2.077,0-3.799-0.369-3.843-0.822l-0.753-7.768
									c-0.042-0.43,1.56-0.777,3.573-0.777h28.828c2.016,0,3.726,0.348,3.818,0.777l1.701,7.768
									C660.887,772.896,659.283,773.266,657.205,773.266z"/>
							</g>
						</g>
						<g>
							<g>
								<path fill="#4E4E4E" d="M705.371,773.266H675.63c-2.08,0-3.856-0.369-3.973-0.822l-1.979-7.768
									c-0.108-0.43,1.436-0.777,3.451-0.777h28.827c2.016,0,3.78,0.348,3.94,0.777l2.929,7.768
									C708.997,772.896,707.45,773.266,705.371,773.266z"/>
							</g>
						</g>
						<g>
							<g>
								<path fill="#4E4E4E" d="M753.538,773.266h-29.741c-2.078,0-3.916-0.369-4.104-0.822l-3.204-7.768
									c-0.177-0.43,1.315-0.777,3.329-0.777h28.828c2.015,0,3.834,0.348,4.063,0.777l4.153,7.768
									C757.105,772.896,755.617,773.266,753.538,773.266z"/>
							</g>
						</g>
						<g>
							<g>
								<path fill="#4E4E4E" d="M801.706,773.266h-29.741c-2.079,0-3.975-0.369-4.233-0.822l-4.432-7.768
									c-0.245-0.43,1.19-0.777,3.206-0.777h28.828c2.014,0,3.889,0.348,4.186,0.777l5.381,7.768
									C805.213,772.896,803.784,773.266,801.706,773.266z"/>
							</g>
						</g>
						<g>
							<g>
								<path fill="#4E4E4E" d="M362.548,786.283h-27.117c-2.166,0-3.594-0.398-3.186-0.893l6.965-8.432
									c0.385-0.467,2.396-0.842,4.494-0.842h26.249c2.098,0,3.529,0.375,3.196,0.842l-6.038,8.432
									C366.759,785.885,364.714,786.283,362.548,786.283z"/>
							</g>
						</g>
						<g>
							<g>
								<path fill="#4E4E4E" d="M316.22,786.283h-27.537c-2.166,0-3.533-0.398-3.055-0.893l8.205-8.432
									c0.452-0.467,2.52-0.842,4.617-0.842h26.656c2.098,0,3.475,0.375,3.074,0.842l-7.268,8.432
									C320.489,785.885,318.386,786.283,316.22,786.283z"/>
							</g>
						</g>
						<g>
							<g>
								<path fill="#4E4E4E" d="M408.778,786.283H381.76c-2.169,0-3.652-0.398-3.317-0.893l5.736-8.432
									c0.316-0.467,2.273-0.842,4.372-0.842h26.154c2.099,0,3.585,0.375,3.318,0.842l-4.812,8.432
									C412.931,785.885,410.946,786.283,408.778,786.283z"/>
							</g>
						</g>
						<g>
							<g>
								<path fill="#4E4E4E" d="M853.418,786.283h-27.116c-2.167,0-4.211-0.398-4.565-0.893l-6.052-8.432
									c-0.334-0.467,1.097-0.842,3.196-0.842h26.247c2.1,0,4.11,0.375,4.496,0.842l6.978,8.432
									C857.01,785.885,855.585,786.283,853.418,786.283z"/>
							</g>
						</g>
						<g>
							<g>
								<path fill="#4E4E4E" d="M807.09,786.283h-27.535c-2.17,0-4.153-0.398-4.437-0.893l-1.941-3.404
									c-0.273-0.48,1.232-0.869,3.364-0.869h27.089c2.135,0,4.127,0.389,4.454,0.869l2.321,3.404
									C810.742,785.885,809.256,786.283,807.09,786.283z"/>
							</g>
						</g>
						<g>
							<g>
								<path fill="#4E4E4E" d="M899.648,786.283H872.63c-2.167,0-4.271-0.398-4.694-0.893l-2.94-3.404
									c-0.414-0.48,0.979-0.869,3.111-0.869h26.579c2.132,0,4.239,0.389,4.706,0.869l3.313,3.404
									C903.185,785.885,901.814,786.283,899.648,786.283z"/>
							</g>
						</g>
						<g>
							<g>
								<path fill="#4E4E4E" d="M459.002,786.283h-31.013c-2.166,0-3.71-0.398-3.445-0.893l4.512-8.432
									c0.248-0.467,2.148-0.842,4.248-0.842h30.019c2.1,0,3.645,0.375,3.451,0.842l-3.479,8.432
									C463.091,785.885,461.169,786.283,459.002,786.283z"/>
							</g>
						</g>
						<g>
							<g>
								<path fill="#4E4E4E" d="M760.34,786.283h-31.009c-2.169,0-4.092-0.398-4.295-0.893l-3.479-8.432
									c-0.192-0.467,1.355-0.842,3.452-0.842h30.02c2.1,0,4,0.375,4.249,0.842l4.511,8.432
									C764.051,785.885,762.509,786.283,760.34,786.283z"/>
							</g>
						</g>
						<g>
							<g>
								<path fill="#4E4E4E" d="M845.671,763.898h-32.478c-2.015,0-3.349,0.412-2.979,0.92l5.444,7.475
									c0.391,0.537,2.395,0.973,4.473,0.973h33.505h33.506c2.078,0,3.339-0.436,2.817-0.973l-7.271-7.475
									c-0.494-0.508-2.528-0.92-4.543-0.92H845.671z"/>
							</g>
						</g>
						<g>
							<g>
								<path fill="#4E4E4E" d="M342.089,752.615h-21.065c-1.938,0-3.88,0.381-4.337,0.852l-6.719,6.904
									c-0.48,0.496,0.748,0.898,2.744,0.898h21.707h21.706c1.997,0,3.938-0.402,4.333-0.898l5.525-6.904
									c0.376-0.471-0.892-0.852-2.828-0.852H342.089z"/>
							</g>
						</g>
						<g>
							<g>
								<g>
									<path fill="#4E4E4E" d="M448.67,761.27H420.1c-1.997,0-3.411-0.342-3.157-0.758l4.353-7.18
										c0.241-0.395,2.007-0.717,3.944-0.717h27.728c1.938,0,3.354,0.322,3.163,0.717l-3.477,7.18
										C452.45,760.928,450.668,761.27,448.67,761.27z"/>
								</g>
							</g>
							<g>
								<g>
									<path fill="#4E4E4E" d="M402.398,761.27h-28.571c-1.998,0-3.357-0.342-3.037-0.758l5.486-7.18
										c0.303-0.395,2.119-0.717,4.057-0.717h27.729c1.938,0,3.303,0.322,3.048,0.717l-4.608,7.18
										C406.231,760.928,404.396,761.27,402.398,761.27z"/>
								</g>
							</g>
							<g>
								<g>
									<path fill="#4E4E4E" d="M494.944,761.27h-28.573c-1.997,0-3.462-0.342-3.274-0.758l3.219-7.18
										c0.177-0.395,1.893-0.717,3.83-0.717h27.729c1.938,0,3.403,0.322,3.275,0.717l-2.342,7.18
										C498.671,760.928,496.942,761.27,494.944,761.27z"/>
								</g>
							</g>
							<g>
								<g>
									<path fill="#4E4E4E" d="M541.217,761.27h-28.571c-1.998,0-3.518-0.342-3.396-0.758l2.086-7.18
										c0.114-0.395,1.779-0.717,3.718-0.717h27.728c1.938,0,3.455,0.322,3.389,0.717l-1.209,7.18
										C544.89,760.928,543.213,761.27,541.217,761.27z"/>
								</g>
							</g>
							<g>
								<g>
									<path fill="#4E4E4E" d="M633.762,761.27H605.19c-1.996,0-3.623-0.342-3.634-0.758l-0.183-7.18
										c-0.01-0.395,1.553-0.717,3.491-0.717h27.729c1.938,0,3.555,0.322,3.614,0.717l1.06,7.18
										C637.328,760.928,635.759,761.27,633.762,761.27z"/>
								</g>
							</g>
							<g>
								<g>
									<path fill="#4E4E4E" d="M587.488,761.27h-28.57c-1.997,0-3.57-0.342-3.515-0.758l0.951-7.18
										c0.053-0.395,1.666-0.717,3.603-0.717h27.73c1.937,0,3.505,0.322,3.502,0.717l-0.076,7.18
										C591.109,760.928,589.487,761.27,587.488,761.27z"/>
								</g>
							</g>
							<g>
								<g>
									<path fill="#4E4E4E" d="M680.034,761.27h-28.571c-1.996,0-3.678-0.342-3.754-0.758l-1.314-7.18
										c-0.074-0.395,1.44-0.717,3.378-0.717h27.726c1.939,0,3.609,0.322,3.73,0.717l2.19,7.18
										C683.547,760.928,682.032,761.27,680.034,761.27z"/>
								</g>
							</g>
							<g>
								<g>
									<path fill="#4E4E4E" d="M726.309,761.27h-28.572c-1.996,0-3.732-0.342-3.874-0.758l-2.448-7.18
										c-0.136-0.395,1.325-0.717,3.265-0.717h27.728c1.938,0,3.657,0.322,3.842,0.717l3.326,7.18
										C729.768,760.928,728.306,761.27,726.309,761.27z"/>
								</g>
							</g>
							<g>
								<g>
									<path fill="#4E4E4E" d="M772.581,761.27H744.01c-1.997,0-3.786-0.342-3.994-0.758l-3.583-7.18
										c-0.196-0.395,1.214-0.717,3.15-0.717h27.729c1.939,0,3.71,0.322,3.957,0.717l4.459,7.18
										C775.986,760.928,774.578,761.27,772.581,761.27z"/>
								</g>
							</g>
							<g>
								<g>
									<path fill="#4E4E4E" d="M818.854,761.27h-28.571c-1.997,0-3.841-0.342-4.113-0.758l-4.717-7.18
										c-0.261-0.395,1.101-0.717,3.036-0.717h27.729c1.939,0,3.758,0.322,4.068,0.717l5.593,7.18
										C822.207,760.928,820.851,761.27,818.854,761.27z"/>
								</g>
							</g>
						</g>
						<g>
							<g>
								<g>
									<path fill="#4E4E4E" d="M399.927,739.902h-25.313c-1.851,0-3.111-0.293-2.816-0.652l2.043-2.49
										c0.289-0.352,2.002-0.637,3.828-0.637h24.959c1.827,0,3.105,0.285,2.859,0.637l-1.75,2.49
										C403.484,739.609,401.778,739.902,399.927,739.902z"/>
								</g>
							</g>
							<g>
								<g>
									<path fill="#4E4E4E" d="M358.548,739.902h-25.312c-1.853,0-3.067-0.293-2.718-0.652l2.421-2.49
										c0.343-0.352,2.1-0.637,3.927-0.637h24.959c1.825,0,3.063,0.285,2.76,0.637l-2.128,2.49
										C362.15,739.609,360.399,739.902,358.548,739.902z"/>
								</g>
							</g>
							<g>
								<g>
									<path fill="#4E4E4E" d="M441.306,739.902h-25.313c-1.851,0-3.156-0.293-2.916-0.652l1.663-2.49
										c0.236-0.352,1.907-0.637,3.731-0.637h24.961c1.826,0,3.148,0.285,2.953,0.637l-1.368,2.49
										C444.819,739.609,443.157,739.902,441.306,739.902z"/>
								</g>
							</g>
							<g>
								<g>
									<path fill="#4E4E4E" d="M482.685,739.902h-25.313c-1.851,0-3.201-0.293-3.016-0.652l1.285-2.49
										c0.182-0.352,1.809-0.637,3.633-0.637h24.962c1.826,0,3.191,0.285,3.052,0.637l-0.991,2.49
										C486.154,739.609,484.536,739.902,482.685,739.902z"/>
								</g>
							</g>
							<g>
								<g>
									<path fill="#4E4E4E" d="M565.444,739.902h-25.313c-1.851,0-3.292-0.293-3.215-0.652l0.524-2.49
										c0.075-0.352,1.615-0.637,3.442-0.637h24.959c1.826,0,3.279,0.285,3.248,0.637l-0.234,2.49
										C568.822,739.609,567.295,739.902,565.444,739.902z"/>
								</g>
							</g>
							<g>
								<g>
									<path fill="#4E4E4E" d="M524.064,739.902h-25.313c-1.852,0-3.245-0.293-3.116-0.652l0.906-2.49
										c0.128-0.352,1.711-0.637,3.536-0.637h24.96c1.827,0,3.237,0.285,3.149,0.637l-0.611,2.49
										C527.488,739.609,525.916,739.902,524.064,739.902z"/>
								</g>
							</g>
							<g>
								<g>
									<path fill="#4E4E4E" d="M606.823,739.902h-25.313c-1.853,0-3.336-0.293-3.315-0.652l0.146-2.49
										c0.021-0.352,1.519-0.637,3.345-0.637h24.958c1.826,0,3.324,0.285,3.346,0.637l0.146,2.49
										C610.156,739.609,608.673,739.902,606.823,739.902z"/>
								</g>
							</g>
							<g>
								<g>
									<path fill="#4E4E4E" d="M648.2,739.902h-25.313c-1.85,0-3.379-0.293-3.411-0.652l-0.233-2.49
										c-0.033-0.352,1.419-0.637,3.246-0.637h24.961c1.825,0,3.364,0.285,3.439,0.637l0.526,2.49
										C651.491,739.609,650.054,739.902,648.2,739.902z"/>
								</g>
							</g>
							<g>
								<g>
									<path fill="#4E4E4E" d="M689.58,739.902h-25.313c-1.851,0-3.423-0.293-3.511-0.652l-0.613-2.49
										c-0.085-0.352,1.324-0.637,3.149-0.637h24.96c1.826,0,3.411,0.285,3.538,0.637l0.905,2.49
										C692.826,739.609,691.431,739.902,689.58,739.902z"/>
								</g>
							</g>
							<g>
								<g>
									<path fill="#4E4E4E" d="M730.959,739.902h-25.313c-1.85,0-3.467-0.293-3.612-0.652l-0.99-2.49
										c-0.139-0.352,1.227-0.637,3.054-0.637h24.959c1.826,0,3.454,0.285,3.634,0.637l1.285,2.49
										C734.159,739.609,732.812,739.902,730.959,739.902z"/>
								</g>
							</g>
							<g>
								<g>
									<path fill="#4E4E4E" d="M772.337,739.902h-25.313c-1.85,0-3.513-0.293-3.711-0.652l-1.369-2.49
										c-0.194-0.352,1.13-0.637,2.956-0.637h24.959c1.825,0,3.494,0.285,3.732,0.637l1.663,2.49
										C775.495,739.609,774.189,739.902,772.337,739.902z"/>
								</g>
							</g>
							<g>
								<g>
									<path fill="#4E4E4E" d="M813.717,739.902h-25.313c-1.851,0-3.556-0.293-3.81-0.652l-1.749-2.49
										c-0.248-0.352,1.031-0.637,2.858-0.637h24.96c1.825,0,3.539,0.285,3.828,0.637l2.044,2.49
										C816.829,739.609,815.569,739.902,813.717,739.902z"/>
								</g>
							</g>
							<g>
								<g>
									<path fill="#4E4E4E" d="M855.096,739.902h-25.312c-1.852,0-3.604-0.293-3.91-0.652l-2.128-2.49
										c-0.302-0.352,0.935-0.637,2.759-0.637h24.962c1.826,0,3.581,0.285,3.924,0.637l2.424,2.49
										C858.165,739.609,856.948,739.902,855.096,739.902z"/>
								</g>
							</g>
						</g>
						<g>
							<g>
								<path fill="#4E4E4E" d="M848.354,752.615h-18.956c-1.938,0-3.199,0.381-2.816,0.852l5.628,6.904
									c0.404,0.496,2.35,0.898,4.348,0.898h19.531h19.531c1.998,0,3.226-0.402,2.743-0.898l-6.716-6.904
									c-0.461-0.471-2.399-0.852-4.339-0.852H848.354z"/>
							</g>
						</g>
						<g>
							<g>
								<g>
									<path fill="#4E4E4E" d="M351.356,742.16h-20.29c-1.868,0-3.726,0.354-4.149,0.791l-6.225,6.398
										c-0.446,0.457,0.749,0.832,2.67,0.832h20.885h10.449c1.921,0,3.789-0.375,4.174-0.832l5.356-6.398
										c0.365-0.438-0.853-0.791-2.72-0.791H351.356z"/>
								</g>
							</g>
							<g>
								<g>
									<g>
										<path fill="#4E4E4E" d="M443.739,750.182h-27.49c-1.922,0-3.277-0.314-3.027-0.703l4.279-6.65
											c0.237-0.369,1.942-0.668,3.809-0.668h26.709c1.866,0,3.225,0.299,3.033,0.668l-3.468,6.65
											C447.382,749.867,445.659,750.182,443.739,750.182z"/>
									</g>
								</g>
								<g>
									<g>
										<path fill="#4E4E4E" d="M399.218,750.182h-27.49c-1.922,0-3.229-0.314-2.918-0.703l5.331-6.65
											c0.294-0.369,2.046-0.668,3.913-0.668h26.709c1.867,0,3.178,0.299,2.928,0.668l-4.517,6.65
											C402.911,749.867,401.139,750.182,399.218,750.182z"/>
									</g>
								</g>
								<g>
									<g>
										<path fill="#4E4E4E" d="M488.262,750.182h-27.491c-1.922,0-3.326-0.314-3.139-0.703l3.23-6.65
											c0.18-0.369,1.836-0.668,3.703-0.668h26.708c1.865,0,3.272,0.299,3.139,0.668l-2.417,6.65
											C491.854,749.867,490.183,750.182,488.262,750.182z"/>
									</g>
								</g>
								<g>
									<g>
										<path fill="#4E4E4E" d="M532.784,750.182h-27.491c-1.922,0-3.376-0.314-3.249-0.703l2.18-6.65
											c0.121-0.369,1.73-0.668,3.598-0.668h26.707c1.868,0,3.32,0.299,3.243,0.668l-1.364,6.65
											C536.326,749.867,534.706,750.182,532.784,750.182z"/>
									</g>
								</g>
								<g>
									<g>
										<path fill="#4E4E4E" d="M621.827,750.182h-27.489c-1.923,0-3.476-0.314-3.473-0.703l0.077-6.65
											c0.005-0.369,1.523-0.668,3.391-0.668h26.707c1.867,0,3.412,0.299,3.454,0.668l0.734,6.65
											C625.272,749.867,623.749,750.182,621.827,750.182z"/>
									</g>
								</g>
								<g>
									<g>
										<path fill="#4E4E4E" d="M577.305,750.182h-27.49c-1.922,0-3.426-0.314-3.36-0.703l1.129-6.65
											c0.063-0.369,1.626-0.668,3.492-0.668h26.71c1.867,0,3.365,0.299,3.347,0.668l-0.315,6.65
											C580.798,749.867,579.227,750.182,577.305,750.182z"/>
									</g>
								</g>
								<g>
									<g>
										<path fill="#4E4E4E" d="M666.35,750.182h-27.49c-1.923,0-3.525-0.314-3.583-0.703l-0.972-6.65
											c-0.055-0.369,1.415-0.668,3.282-0.668h26.709c1.867,0,3.461,0.299,3.56,0.668l1.783,6.65
											C669.742,749.867,668.271,750.182,666.35,750.182z"/>
									</g>
								</g>
								<g>
									<g>
										<path fill="#4E4E4E" d="M710.871,750.182H683.38c-1.921,0-3.574-0.314-3.693-0.703l-2.021-6.65
											c-0.111-0.369,1.311-0.668,3.178-0.668h26.708c1.866,0,3.508,0.299,3.666,0.668l2.834,6.65
											C714.216,749.867,712.792,750.182,710.871,750.182z"/>
									</g>
								</g>
								<g>
									<g>
										<path fill="#4E4E4E" d="M755.394,750.182h-27.491c-1.922,0-3.625-0.314-3.804-0.703l-3.072-6.65
											c-0.172-0.369,1.204-0.668,3.071-0.668h26.709c1.867,0,3.554,0.299,3.769,0.668l3.889,6.65
											C758.688,749.867,757.315,750.182,755.394,750.182z"/>
									</g>
								</g>
								<g>
									<g>
										<path fill="#4E4E4E" d="M799.914,750.182h-27.491c-1.919,0-3.673-0.314-3.912-0.703l-4.124-6.65
											c-0.229-0.369,1.101-0.668,2.969-0.668h26.707c1.865,0,3.601,0.299,3.875,0.668l4.936,6.65
											C803.162,749.867,801.836,750.182,799.914,750.182z"/>
									</g>
								</g>
							</g>
							<g>
								<g>
									<path fill="#4E4E4E" d="M828.868,742.16h-18.259c-1.866,0-3.105,0.354-2.768,0.791l4.979,6.398
										c0.357,0.457,2.204,0.832,4.126,0.832h18.793h29.23c1.922,0,3.115-0.375,2.67-0.832l-6.226-6.398
										c-0.424-0.438-2.28-0.791-4.147-0.791H828.868z"/>
								</g>
							</g>
						</g>
						<g>
							<g>
								<path fill="#4E4E4E" d="M710.116,786.283H478.214c-2.167,0-3.773-0.398-3.589-0.893l3.18-8.432
									c0.176-0.467,2.019-0.842,4.116-0.842h224.491c2.097,0,3.939,0.375,4.116,0.842l3.178,8.432
									C713.893,785.885,712.286,786.283,710.116,786.283z"/>
							</g>
						</g>
					</g>
				</g>
			</g>
		</g>
	</g>
	<path fill="#DFDFDE" d="M990.748,825.916c-0.05,4.607-8.089,8.027-20.459,8.027H211.437c-12.15,0-20.127-3.297-20.453-7.781h-0.001
		v13.594l0.004,5.197c0.144,4.568,8.152,7.947,20.45,7.947h758.853c12.328,0,20.344-3.4,20.448-7.98l0.013-5.197v-13.807H990.748z"
		/>
	<g>
		<path fill="#AB7AB5" d="M992.229,663.001c0,13.254-10.745,23.998-23.999,23.998H914.97c-13.255,0-23.998-10.744-23.998-23.998
			v-85.462c0-13.254,10.743-23.998,23.998-23.998h53.261c13.254,0,23.999,10.744,23.999,23.998V663.001z"/>
		<g>
			<g>
				<g>
					<path fill="#FFFFFF" d="M920.458,667.522h-0.306c-1.459,0-2.642-1.182-2.642-2.643v-89.221c0-1.458,1.183-2.642,2.642-2.642
						h0.306c1.459,0,2.641,1.184,2.641,2.642v89.221C923.099,666.341,921.917,667.522,920.458,667.522z"/>
				</g>
			</g>
			<g>
				<g>
					<path fill="#FFFFFF" d="M941.959,667.522h-0.306c-1.458,0-2.642-1.182-2.642-2.643v-89.221c0-1.458,1.184-2.642,2.642-2.642
						h0.306c1.46,0,2.642,1.184,2.642,2.642v89.221C944.601,666.341,943.419,667.522,941.959,667.522z"/>
				</g>
			</g>
			<g>
				<g>
					<path fill="#FFFFFF" d="M963.46,667.522h-0.306c-1.459,0-2.641-1.182-2.641-2.643v-89.221c0-1.458,1.182-2.642,2.641-2.642
						h0.306c1.459,0,2.641,1.184,2.641,2.642v89.221C966.101,666.341,964.919,667.522,963.46,667.522z"/>
				</g>
			</g>
			<g>
				<g>
					<path fill="#4E4E4E" d="M919.948,617.312h-1.024c-3.002,0-5.436-2.434-5.436-5.436l0,0c0-3.002,2.434-5.436,5.436-5.436h1.024
						c3.001,0,5.435,2.434,5.435,5.436l0,0C925.383,614.878,922.949,617.312,919.948,617.312z"/>
				</g>
			</g>
			<g>
				<g>
					<path fill="#4E4E4E" d="M942.853,637.802h-1.024c-3.001,0-5.434-2.434-5.434-5.436l0,0c0-3.002,2.433-5.436,5.434-5.436h1.024
						c3.002,0,5.436,2.434,5.436,5.436l0,0C948.288,635.368,945.854,637.802,942.853,637.802z"/>
				</g>
			</g>
			<g>
				<g>
					<path fill="#4E4E4E" d="M963.573,599.182h-1.023c-3.002,0-5.435-2.434-5.435-5.436l0,0c0-3.002,2.433-5.434,5.435-5.434h1.023
						c3.002,0,5.436,2.432,5.436,5.434l0,0C969.009,596.748,966.575,599.182,963.573,599.182z"/>
				</g>
			</g>
		</g>
	</g>
	<path fill="#FFFFFF" d="M558.314,538.223c0,13.807-11.192,25-25,25H408.388c-13.807,0-25-11.193-25-25V428.029
		c0-13.807,11.193-25,25-25h124.927c13.808,0,25,11.193,25,25V538.223z"/>
	<path fill="#FFFFFF" d="M862.978,691.963c0,5.522-4.477,10-10,10H746.3c-5.523,0-10-4.478-10-10v-302c0-5.523,4.477-10,10-10
		h106.678c5.523,0,10,4.477,10,10V691.963z"/>
	<g>
		<rect x="806.948" y="421.996" fill="#F2A4C8" width="5.865" height="4.048"/>
		<g>
			<rect x="800.339" y="421.996" fill="#F2A4C8" width="5.121" height="4.048"/>
			<g>
				<g>
					<rect x="793.646" y="411.007" fill="#F2A4C8" width="5.204" height="4.048"/>
					<rect x="793.646" y="416.625" fill="#F2A4C8" width="5.204" height="3.801"/>
				</g>
				<rect x="793.646" y="421.996" fill="#F2A4C8" width="5.204" height="4.048"/>
			</g>
			<g>
				<rect x="806.948" y="411.007" fill="#F2A4C8" width="5.865" height="4.048"/>
				<g>
					<rect x="800.339" y="411.007" fill="#F2A4C8" width="5.121" height="4.048"/>
					<rect x="800.339" y="416.625" fill="#F2A4C8" width="5.121" height="3.801"/>
				</g>
				<rect x="806.948" y="416.625" fill="#F2A4C8" width="5.865" height="3.801"/>
			</g>
		</g>
	</g>
	<g>
		<circle fill="#AB7AB5" cx="764.524" cy="469.44" r="8.875"/>
		<path fill="#AB7AB5" d="M824.771,465.19c0,1.346-1.091,2.438-2.438,2.438h-38.247c-1.346,0-2.438-1.092-2.438-2.438l0,0
			c0-1.346,1.092-2.438,2.438-2.438h38.247C823.681,462.752,824.771,463.844,824.771,465.19L824.771,465.19z"/>
		<path fill="#AB7AB5" d="M836.149,473.627c0,1.381-1.119,2.5-2.5,2.5h-49.5c-1.381,0-2.5-1.119-2.5-2.5l0,0
			c0-1.381,1.119-2.5,2.5-2.5h49.5C835.03,471.127,836.149,472.247,836.149,473.627L836.149,473.627z"/>
		<path fill="#AB7AB5" d="M850.149,473.627c0,1.381-1.119,2.5-2.5,2.5h-6.25c-1.381,0-2.5-1.119-2.5-2.5l0,0
			c0-1.381,1.119-2.5,2.5-2.5h6.25C849.03,471.127,850.149,472.247,850.149,473.627L850.149,473.627z"/>
	</g>
	<g>
		<circle fill="#AB7AB5" cx="764.524" cy="535.348" r="8.875"/>
		<path fill="#AB7AB5" d="M824.771,531.098c0,1.346-1.091,2.438-2.438,2.438h-38.247c-1.346,0-2.438-1.092-2.438-2.438l0,0
			c0-1.346,1.092-2.438,2.438-2.438h38.247C823.681,528.66,824.771,529.752,824.771,531.098L824.771,531.098z"/>
		<path fill="#AB7AB5" d="M836.149,539.535c0,1.381-1.119,2.5-2.5,2.5h-49.5c-1.381,0-2.5-1.119-2.5-2.5l0,0
			c0-1.381,1.119-2.5,2.5-2.5h49.5C835.03,537.035,836.149,538.154,836.149,539.535L836.149,539.535z"/>
		<path fill="#AB7AB5" d="M850.149,539.535c0,1.381-1.119,2.5-2.5,2.5h-6.25c-1.381,0-2.5-1.119-2.5-2.5l0,0
			c0-1.381,1.119-2.5,2.5-2.5h6.25C849.03,537.035,850.149,538.154,850.149,539.535L850.149,539.535z"/>
	</g>
	<g>
		<circle fill="#AB7AB5" cx="764.524" cy="501.667" r="8.875"/>
		<path fill="#AB7AB5" d="M824.771,497.417c0,1.346-1.091,2.438-2.438,2.438h-38.247c-1.346,0-2.438-1.092-2.438-2.438l0,0
			c0-1.346,1.092-2.438,2.438-2.438h38.247C823.681,494.979,824.771,496.071,824.771,497.417L824.771,497.417z"/>
		<path fill="#AB7AB5" d="M836.149,505.854c0,1.381-1.119,2.5-2.5,2.5h-49.5c-1.381,0-2.5-1.119-2.5-2.5l0,0
			c0-1.381,1.119-2.5,2.5-2.5h49.5C835.03,503.354,836.149,504.474,836.149,505.854L836.149,505.854z"/>
		<path fill="#AB7AB5" d="M850.149,505.854c0,1.381-1.119,2.5-2.5,2.5h-6.25c-1.381,0-2.5-1.119-2.5-2.5l0,0
			c0-1.381,1.119-2.5,2.5-2.5h6.25C849.03,503.354,850.149,504.474,850.149,505.854L850.149,505.854z"/>
	</g>
	<g>
		<circle fill="#AB7AB5" cx="764.524" cy="571.187" r="8.875"/>
		<path fill="#AB7AB5" d="M824.771,566.937c0,1.346-1.091,2.438-2.438,2.438h-38.247c-1.346,0-2.438-1.092-2.438-2.438l0,0
			c0-1.346,1.092-2.438,2.438-2.438h38.247C823.681,564.499,824.771,565.591,824.771,566.937L824.771,566.937z"/>
		<path fill="#AB7AB5" d="M836.149,575.374c0,1.381-1.119,2.5-2.5,2.5h-49.5c-1.381,0-2.5-1.119-2.5-2.5l0,0
			c0-1.381,1.119-2.5,2.5-2.5h49.5C835.03,572.874,836.149,573.993,836.149,575.374L836.149,575.374z"/>
		<path fill="#AB7AB5" d="M850.149,575.374c0,1.381-1.119,2.5-2.5,2.5h-6.25c-1.381,0-2.5-1.119-2.5-2.5l0,0
			c0-1.381,1.119-2.5,2.5-2.5h6.25C849.03,572.874,850.149,573.993,850.149,575.374L850.149,575.374z"/>
	</g>
	<path fill="#AB7AB5" d="M840.265,676.997c0,5.523-4.477,10-10,10h-61.252c-5.523,0-10-4.477-10-10v-53.664c0-5.522,4.477-10,10-10
		h61.252c5.523,0,10,4.478,10,10V676.997z"/>
	<g>
		<path fill-rule="evenodd" clip-rule="evenodd" fill="#FFFFFF" d="M799.648,645.497c-7.349,0-14.7,0-22.052,0
			c-0.686,0-0.762-0.075-0.763-0.749c0-0.672,0.013-1.345-0.005-2.017c-0.011-0.333,0.097-0.559,0.372-0.759
			c6.803-4.956,13.601-9.917,20.398-14.879c0.543-0.396,1.1-0.775,1.624-1.193c0.34-0.271,0.6-0.249,0.946,0.005
			c4.122,3.022,8.256,6.032,12.385,9.047c3.189,2.326,6.374,4.657,9.571,6.975c0.313,0.227,0.45,0.467,0.436,0.854
			c-0.027,0.656-0.008,1.315-0.008,1.973c-0.002,0.652-0.09,0.743-0.729,0.743c-3.813,0-7.625,0-11.438,0
			C806.808,645.497,803.229,645.497,799.648,645.497z M799.563,642.394c3.121-0.013,5.651-2.56,5.638-5.668
			c-0.014-3.081-2.566-5.624-5.65-5.627c-3.106-0.002-5.652,2.551-5.642,5.661C793.919,639.893,796.442,642.405,799.563,642.394z"/>
		<path fill-rule="evenodd" clip-rule="evenodd" fill="#FFFFFF" d="M782.491,646.415c1.646,0,3.291-0.001,4.938,0
			c0.557,0,0.667,0.114,0.668,0.676c0.004,0.714-0.014,1.426,0.009,2.138c0.01,0.344-0.115,0.557-0.397,0.741
			c-0.655,0.427-1.3,0.871-1.926,1.337c-0.135,0.1-0.26,0.321-0.26,0.488c-0.013,4.456-0.008,8.913-0.016,13.368
			c0,0.266,0.082,0.424,0.302,0.567c0.664,0.438,1.309,0.901,1.97,1.345c0.226,0.152,0.33,0.334,0.324,0.613
			c-0.013,0.767-0.002,1.535-0.006,2.303c-0.002,0.45-0.139,0.588-0.588,0.588c-3.359,0.002-6.72,0.002-10.078,0
			c-0.447,0-0.592-0.146-0.594-0.593c-0.006-0.754,0.008-1.509-0.008-2.262c-0.006-0.293,0.104-0.489,0.342-0.65
			c0.66-0.443,1.306-0.906,1.968-1.348c0.214-0.144,0.31-0.296,0.308-0.565c-0.009-4.442-0.009-8.885,0-13.328
			c0.002-0.27-0.095-0.424-0.308-0.566c-0.65-0.433-1.284-0.891-1.937-1.321c-0.27-0.177-0.381-0.393-0.373-0.717
			c0.018-0.725,0.002-1.452,0.005-2.18c0.003-0.491,0.142-0.632,0.64-0.634C779.146,646.413,780.819,646.415,782.491,646.415z"/>
		<path fill-rule="evenodd" clip-rule="evenodd" fill="#FFFFFF" d="M816.897,670.58c-1.646,0-3.293,0.001-4.938,0
			c-0.566-0.001-0.67-0.104-0.67-0.672c-0.002-0.741,0.008-1.482-0.006-2.222c-0.005-0.279,0.1-0.461,0.326-0.612
			c0.683-0.458,1.362-0.922,2.026-1.405c0.119-0.087,0.228-0.28,0.228-0.425c0.013-4.498,0.013-8.995,0-13.493
			c0-0.152-0.129-0.352-0.26-0.448c-0.651-0.476-1.32-0.93-1.992-1.381c-0.226-0.152-0.333-0.332-0.328-0.611
			c0.014-0.781,0.01-1.563,0.003-2.345c-0.004-0.382,0.179-0.552,0.55-0.552c3.388,0.001,6.774,0.001,10.161,0.001
			c0.372,0,0.556,0.18,0.556,0.552c0,0.797,0.021,1.593-0.017,2.387c-0.009,0.193-0.167,0.435-0.329,0.556
			c-0.637,0.477-1.297,0.919-1.959,1.357c-0.216,0.143-0.309,0.298-0.309,0.566c0.01,4.443,0.01,8.886,0,13.329
			c0,0.27,0.096,0.423,0.31,0.564c0.661,0.441,1.307,0.905,1.968,1.348c0.24,0.162,0.346,0.359,0.34,0.651
			c-0.014,0.739-0.001,1.48-0.004,2.221c-0.003,0.496-0.139,0.633-0.639,0.634C820.242,670.581,818.57,670.58,816.897,670.58z"/>
		<path fill-rule="evenodd" clip-rule="evenodd" fill="#FFFFFF" d="M799.543,670.58c-1.645,0.001-3.291,0.001-4.936,0.001
			c-0.574-0.001-0.685-0.104-0.687-0.659c-0.002-0.728,0.011-1.455-0.006-2.18c-0.006-0.308,0.092-0.512,0.351-0.683
			c0.665-0.437,1.32-0.888,1.958-1.36c0.139-0.101,0.268-0.318,0.268-0.483c0.015-4.483,0.015-8.968,0.001-13.45
			c0-0.155-0.119-0.36-0.247-0.454c-0.652-0.479-1.318-0.937-1.992-1.385c-0.244-0.162-0.343-0.354-0.337-0.646
			c0.016-0.753,0.001-1.508,0.005-2.263c0.003-0.475,0.134-0.603,0.619-0.603c3.331-0.001,6.664-0.001,9.996,0
			c0.52,0,0.647,0.137,0.648,0.663c0.001,0.714-0.015,1.427,0.006,2.14c0.011,0.342-0.119,0.56-0.398,0.744
			c-0.652,0.43-1.285,0.889-1.934,1.322c-0.204,0.135-0.285,0.287-0.285,0.536c0.008,4.443,0.008,8.885,0,13.328
			c0,0.263,0.076,0.428,0.296,0.572c0.651,0.431,1.282,0.893,1.936,1.321c0.284,0.187,0.396,0.413,0.386,0.752
			c-0.019,0.712-0.003,1.425-0.006,2.139c-0.002,0.515-0.138,0.646-0.664,0.647C802.86,670.581,801.202,670.58,799.543,670.58z"/>
		<path fill-rule="evenodd" clip-rule="evenodd" fill="#FFFFFF" d="M799.119,640.57c-0.579-0.242-1.077-0.425-1.548-0.657
			c-0.276-0.136-0.472-0.389-0.25-0.706c0.217-0.311,0.47-0.189,0.748-0.021c0.293,0.18,0.63,0.288,1.043,0.47
			c0-0.812-0.023-1.505,0.009-2.196c0.021-0.459-0.038-0.758-0.532-0.979c-0.657-0.293-0.997-0.886-0.969-1.632
			c0.025-0.757,0.465-1.242,1.115-1.543c0.267-0.123,0.424-0.245,0.384-0.565c-0.042-0.326,0.026-0.648,0.436-0.644
			c0.407,0.006,0.439,0.335,0.433,0.659c-0.002,0.08,0.009,0.162,0.012,0.22c0.4,0.175,0.793,0.324,1.164,0.516
			c0.263,0.136,0.445,0.37,0.25,0.675c-0.203,0.321-0.466,0.234-0.742,0.056c-0.187-0.12-0.406-0.189-0.683-0.313
			c0,0.714-0.014,1.343,0.016,1.97c0.005,0.104,0.188,0.232,0.317,0.288c0.809,0.349,1.389,0.896,1.508,1.799
			c0.129,0.978-0.4,1.839-1.396,2.219c-0.366,0.14-0.507,0.309-0.45,0.676c0.011,0.065,0.016,0.163-0.021,0.198
			c-0.135,0.129-0.295,0.331-0.438,0.325c-0.141-0.006-0.319-0.21-0.393-0.369C799.066,640.867,799.119,640.668,799.119,640.57z
			 M800.007,639.396c0.639-0.255,0.993-0.696,0.979-1.182c-0.013-0.521-0.404-0.997-0.979-1.172
			C800.007,637.819,800.007,638.591,800.007,639.396z M799.095,634.109c-0.4,0.209-0.638,0.469-0.602,0.863
			c0.03,0.35,0.211,0.628,0.602,0.763C799.095,635.189,799.095,634.68,799.095,634.109z"/>
		<path fill-rule="evenodd" clip-rule="evenodd" fill="#FFFFFF" d="M824.646,671.417c0,0.828-0.672,1.5-1.5,1.5H776.23
			c-0.828,0-1.5-0.672-1.5-1.5l0,0c0-0.828,0.672-1.5,1.5-1.5h46.916C823.975,669.917,824.646,670.589,824.646,671.417
			L824.646,671.417z"/>
	</g>
	<g>
		<path fill="#FFFFFF" d="M722.562,465.326c0,8.344-6.765,15.109-15.108,15.109h-114.83c-8.346,0-15.109-6.765-15.109-15.109
			v-45.025c0-8.344,6.764-15.109,15.109-15.109h114.83c8.344,0,15.108,6.765,15.108,15.109V465.326z"/>
		<path fill="#DFDFDE" d="M577.514,454.75v10.576c0,8.344,6.764,15.109,15.109,15.109h114.83c8.344,0,15.108-6.765,15.108-15.109
			V454.75H577.514z"/>
		<path fill="#FFFFFF" d="M722.562,549.636c0,8.344-6.765,15.109-15.108,15.109h-114.83c-8.346,0-15.109-6.766-15.109-15.109
			v-45.026c0-8.345,6.764-15.108,15.109-15.108h114.83c8.344,0,15.108,6.764,15.108,15.108V549.636z"/>
		
			<path fill="none" stroke="#F2A4C8" stroke-width="1.683" stroke-linecap="round" stroke-linejoin="round" stroke-miterlimit="10" d="
			M722.562,549.636v-10.577H577.514v10.577c0,8.344,6.764,15.109,15.109,15.109"/>
		<circle fill="#AB7AB5" cx="598.396" cy="505.683" r="7.469"/>
		<circle fill="#AB7AB5" cx="598.396" cy="420.411" r="7.469"/>
		<path fill="#F2A4C8" d="M675.863,551.01c0,1.703-1.381,3.085-3.086,3.085h-44.533c-1.704,0-3.086-1.382-3.086-3.085l0,0
			c0-1.705,1.382-3.086,3.086-3.086h44.533C674.482,547.924,675.863,549.305,675.863,551.01L675.863,551.01z"/>
		<g>
			<path fill-rule="evenodd" clip-rule="evenodd" fill="#DFDFDE" d="M660.135,437.1c0,1.7-1.152,3.078-2.573,3.078h-37.771
				c-1.422,0-2.574-1.378-2.574-3.078l0,0c0-1.7,1.152-3.078,2.574-3.078h37.771C658.982,434.022,660.135,435.4,660.135,437.1
				L660.135,437.1z"/>
			<path fill-rule="evenodd" clip-rule="evenodd" fill="#DFDFDE" d="M646.34,445.554c0,1.481-1.004,2.683-2.242,2.683h-10.674
				c-1.239,0-2.243-1.201-2.243-2.683l0,0c0-1.481,1.004-2.682,2.243-2.682h10.674C645.336,442.872,646.34,444.072,646.34,445.554
				L646.34,445.554z"/>
		</g>
		<g>
			<path fill-rule="evenodd" clip-rule="evenodd" fill="#DFDFDE" d="M711.654,437.1c0,1.7-1.152,3.078-2.573,3.078h-37.771
				c-1.422,0-2.574-1.378-2.574-3.078l0,0c0-1.7,1.152-3.078,2.574-3.078h37.771C710.502,434.022,711.654,435.4,711.654,437.1
				L711.654,437.1z"/>
			<path fill-rule="evenodd" clip-rule="evenodd" fill="#DFDFDE" d="M697.859,445.554c0,1.481-1.004,2.683-2.242,2.683h-10.674
				c-1.239,0-2.243-1.201-2.243-2.683l0,0c0-1.481,1.004-2.682,2.243-2.682h10.674C696.855,442.872,697.859,444.072,697.859,445.554
				L697.859,445.554z"/>
		</g>
		<path fill-rule="evenodd" clip-rule="evenodd" fill="#DFDFDE" d="M675.89,420.411c0,1.99-1.614,3.604-3.604,3.604H616.59
			c-1.99,0-3.604-1.614-3.604-3.604l0,0c0-1.99,1.613-3.604,3.604-3.604h55.695C674.275,416.807,675.89,418.421,675.89,420.411
			L675.89,420.411z"/>
		<g>
			<path fill-rule="evenodd" clip-rule="evenodd" fill="#DFDFDE" d="M660.135,522.371c0,1.7-1.152,3.079-2.573,3.079h-37.771
				c-1.422,0-2.574-1.379-2.574-3.079l0,0c0-1.699,1.152-3.077,2.574-3.077h37.771C658.982,519.294,660.135,520.672,660.135,522.371
				L660.135,522.371z"/>
			<path fill-rule="evenodd" clip-rule="evenodd" fill="#DFDFDE" d="M646.34,530.826c0,1.48-1.004,2.683-2.242,2.683h-10.674
				c-1.239,0-2.243-1.202-2.243-2.683l0,0c0-1.481,1.004-2.683,2.243-2.683h10.674C645.336,528.144,646.34,529.345,646.34,530.826
				L646.34,530.826z"/>
		</g>
		<g>
			<path fill-rule="evenodd" clip-rule="evenodd" fill="#DFDFDE" d="M711.654,522.371c0,1.7-1.152,3.079-2.573,3.079h-37.771
				c-1.422,0-2.574-1.379-2.574-3.079l0,0c0-1.699,1.152-3.077,2.574-3.077h37.771C710.502,519.294,711.654,520.672,711.654,522.371
				L711.654,522.371z"/>
			<path fill-rule="evenodd" clip-rule="evenodd" fill="#DFDFDE" d="M697.859,530.826c0,1.48-1.004,2.683-2.242,2.683h-10.674
				c-1.239,0-2.243-1.202-2.243-2.683l0,0c0-1.481,1.004-2.683,2.243-2.683h10.674C696.855,528.144,697.859,529.345,697.859,530.826
				L697.859,530.826z"/>
		</g>
		<path fill-rule="evenodd" clip-rule="evenodd" fill="#DFDFDE" d="M675.89,505.683c0,1.99-1.614,3.604-3.604,3.604H616.59
			c-1.99,0-3.604-1.613-3.604-3.604l0,0c0-1.99,1.613-3.604,3.604-3.604h55.695C674.275,502.079,675.89,503.692,675.89,505.683
			L675.89,505.683z"/>
	</g>
	<path fill="#AB7AB5" d="M454.643,387.505c0,1.899-1.539,3.438-3.438,3.438h-57.71c-1.899,0-3.438-1.539-3.438-3.438l0,0
		c0-1.899,1.539-3.438,3.438-3.438h57.71C453.104,384.067,454.643,385.606,454.643,387.505L454.643,387.505z"/>
	<path fill="#AB7AB5" d="M478.837,387.505c0,1.899-1.539,3.438-3.438,3.438h-12.899c-1.898,0-3.438-1.539-3.438-3.438l0,0
		c0-1.899,1.54-3.438,3.438-3.438h12.899C477.298,384.067,478.837,385.606,478.837,387.505L478.837,387.505z"/>
	<path fill="#AB7AB5" d="M639.977,387.505c0,1.899-1.539,3.438-3.438,3.438h-57.71c-1.899,0-3.438-1.539-3.438-3.438l0,0
		c0-1.899,1.539-3.438,3.438-3.438h57.71C638.438,384.067,639.977,385.606,639.977,387.505L639.977,387.505z"/>
	<path fill="#AB7AB5" d="M664.171,387.505c0,1.899-1.539,3.438-3.438,3.438h-12.899c-1.898,0-3.438-1.539-3.438-3.438l0,0
		c0-1.899,1.54-3.438,3.438-3.438h12.899C662.632,384.067,664.171,385.606,664.171,387.505L664.171,387.505z"/>
	<path fill="#DFDFDE" d="M825.39,387.505c0,1.899-1.539,3.438-3.438,3.438h-57.71c-1.899,0-3.438-1.539-3.438-3.438l0,0
		c0-1.899,1.539-3.438,3.438-3.438h57.71C823.851,384.067,825.39,385.606,825.39,387.505L825.39,387.505z"/>
	<path fill="#DFDFDE" d="M849.584,387.505c0,1.899-1.539,3.438-3.438,3.438h-12.899c-1.898,0-3.438-1.539-3.438-3.438l0,0
		c0-1.899,1.54-3.438,3.438-3.438h12.899C848.045,384.067,849.584,385.606,849.584,387.505L849.584,387.505z"/>
	<g>
		<path fill="#FFFFFF" d="M702.312,686.512c0,1.221-0.989,2.211-2.208,2.211h-96.262c-1.219,0-2.208-0.99-2.208-2.211v-99.543
			c0-1.22,0.989-2.21,2.208-2.21h96.262c1.219,0,2.208,0.99,2.208,2.21V686.512z"/>
		<path fill="#F2A4C8" d="M702.312,599.7v-12.731c0-1.22-0.989-2.21-2.208-2.21h-96.262c-1.219,0-2.208,0.99-2.208,2.21V599.7
			H702.312z"/>
		<path fill="#F2A4C8" d="M651.488,608.846c-18.917,0-34.251,15.334-34.251,34.249c0,18.917,15.334,34.251,34.251,34.251
			c18.916,0,34.251-15.334,34.251-34.251C685.739,624.18,670.404,608.846,651.488,608.846z M651.488,662.594
			c-10.77,0-19.498-8.73-19.498-19.499c0-10.768,8.729-19.497,19.498-19.497c10.769,0,19.498,8.729,19.498,19.497
			C670.986,653.863,662.257,662.594,651.488,662.594z"/>
		<path fill="#AB7AB5" d="M651.944,608.852v14.757c10.556,0.244,19.042,8.872,19.042,19.486c0,10.769-8.729,19.499-19.498,19.499
			c-9.841,0-17.973-7.289-19.303-16.764l-14.549,2.502c2.521,16.432,16.717,29.014,33.852,29.014
			c18.916,0,34.251-15.334,34.251-34.251C685.739,624.332,670.649,609.096,651.944,608.852z"/>
		<g>
			<circle fill="#FFFFFF" cx="673.862" cy="592.408" r="2.718"/>
			<circle fill="#FFFFFF" cx="683.394" cy="592.408" r="2.718"/>
			<circle fill="#FFFFFF" cx="692.975" cy="592.408" r="2.718"/>
		</g>
	</g>
	<path fill="#FFFFFF" d="M531.093,608.06H410.544c-13.807,0-25,11.193-25,25v74.209c0.662,0.057,1.331,0.092,2.008,0.092h168.541
		V633.06C556.093,619.253,544.899,608.06,531.093,608.06z"/>
	<g>
		<circle fill="#DFDFDE" cx="408.857" cy="436.569" r="8.875"/>
		<path fill="#DFDFDE" d="M469.104,432.319c0,1.346-1.091,2.438-2.438,2.438H428.42c-1.346,0-2.438-1.092-2.438-2.438l0,0
			c0-1.346,1.092-2.438,2.438-2.438h38.247C468.014,429.882,469.104,430.974,469.104,432.319L469.104,432.319z"/>
		<path fill="#DFDFDE" d="M480.482,440.757c0,1.381-1.119,2.5-2.5,2.5h-49.5c-1.381,0-2.5-1.119-2.5-2.5l0,0
			c0-1.381,1.119-2.5,2.5-2.5h49.5C479.363,438.257,480.482,439.376,480.482,440.757L480.482,440.757z"/>
		<path fill="#DFDFDE" d="M494.482,440.757c0,1.381-1.119,2.5-2.5,2.5h-6.25c-1.381,0-2.5-1.119-2.5-2.5l0,0
			c0-1.381,1.119-2.5,2.5-2.5h6.25C493.363,438.257,494.482,439.376,494.482,440.757L494.482,440.757z"/>
	</g>
	<g>
		<circle fill="#DFDFDE" cx="408.857" cy="478.786" r="8.875"/>
		<path fill="#DFDFDE" d="M469.104,474.536c0,1.346-1.091,2.438-2.438,2.438H428.42c-1.346,0-2.438-1.092-2.438-2.438l0,0
			c0-1.346,1.092-2.438,2.438-2.438h38.247C468.014,472.099,469.104,473.19,469.104,474.536L469.104,474.536z"/>
		<path fill="#DFDFDE" d="M480.482,482.974c0,1.381-1.119,2.5-2.5,2.5h-49.5c-1.381,0-2.5-1.119-2.5-2.5l0,0
			c0-1.381,1.119-2.5,2.5-2.5h49.5C479.363,480.474,480.482,481.593,480.482,482.974L480.482,482.974z"/>
		<path fill="#DFDFDE" d="M494.482,482.974c0,1.381-1.119,2.5-2.5,2.5h-6.25c-1.381,0-2.5-1.119-2.5-2.5l0,0
			c0-1.381,1.119-2.5,2.5-2.5h6.25C493.363,480.474,494.482,481.593,494.482,482.974L494.482,482.974z"/>
	</g>
	<g>
		<circle fill="#DFDFDE" cx="408.857" cy="520.06" r="8.875"/>
		<path fill="#DFDFDE" d="M469.104,515.81c0,1.346-1.091,2.438-2.438,2.438H428.42c-1.346,0-2.438-1.092-2.438-2.438l0,0
			c0-1.346,1.092-2.438,2.438-2.438h38.247C468.014,513.372,469.104,514.464,469.104,515.81L469.104,515.81z"/>
		<path fill="#DFDFDE" d="M480.482,524.247c0,1.381-1.119,2.5-2.5,2.5h-49.5c-1.381,0-2.5-1.119-2.5-2.5l0,0
			c0-1.381,1.119-2.5,2.5-2.5h49.5C479.363,521.747,480.482,522.866,480.482,524.247L480.482,524.247z"/>
		<path fill="#DFDFDE" d="M494.482,524.247c0,1.381-1.119,2.5-2.5,2.5h-6.25c-1.381,0-2.5-1.119-2.5-2.5l0,0
			c0-1.381,1.119-2.5,2.5-2.5h6.25C493.363,521.747,494.482,522.866,494.482,524.247L494.482,524.247z"/>
	</g>
	<g id="card_3_">
		<path fill="#DFDFDE" d="M517.558,691.617h-96.905c-2.04,0-3.694-1.656-3.694-3.694v-54.986c0-2.038,1.654-3.693,3.694-3.693
			h96.905c2.041,0,3.693,1.655,3.693,3.693v54.986C521.251,689.961,519.599,691.617,517.558,691.617z"/>
		<rect x="416.958" y="641.023" fill="#FFFFFF" width="104.293" height="10.762"/>
		<path fill="#FFFFFF" d="M440.848,679.649h-15.335c-0.975,0-1.765,0.789-1.765,1.765l0,0c0,0.976,0.79,1.765,1.765,1.765h15.335
			c0.974,0,1.764-0.789,1.764-1.765l0,0C442.611,680.438,441.821,679.649,440.848,679.649z"/>
		<path fill="#FFFFFF" d="M464.429,679.649h-15.335c-0.975,0-1.764,0.789-1.764,1.765l0,0c0,0.976,0.789,1.765,1.764,1.765h15.335
			c0.974,0,1.765-0.789,1.765-1.765l0,0C466.193,680.438,465.402,679.649,464.429,679.649z"/>
		<path fill="#FFFFFF" d="M488.009,679.649h-15.333c-0.976,0-1.766,0.789-1.766,1.765l0,0c0,0.976,0.79,1.765,1.766,1.765h15.333
			c0.976,0,1.767-0.789,1.767-1.765l0,0C489.775,680.438,488.984,679.649,488.009,679.649z"/>
		<path fill="#FFFFFF" d="M511.591,679.649h-15.333c-0.976,0-1.767,0.789-1.767,1.765l0,0c0,0.976,0.791,1.765,1.767,1.765h15.333
			c0.976,0,1.767-0.789,1.767-1.765l0,0C513.357,680.438,512.566,679.649,511.591,679.649z"/>
		<path fill="#FFFFFF" d="M424.806,632.408L424.806,632.408c-1.075,0-1.948,0.873-1.948,1.948v0.687
			c0,1.075,0.873,1.948,1.948,1.948l0,0c1.076,0,1.948-0.873,1.948-1.948v-0.687C426.754,633.281,425.882,632.408,424.806,632.408z"
			/>
		<path fill="#FFFFFF" d="M429.003,634.698L429.003,634.698c0,1.268,1.025,2.293,2.29,2.293h8.117c1.265,0,2.29-1.025,2.29-2.293
			l0,0c0-1.265-1.025-2.29-2.29-2.29h-8.117C430.028,632.408,429.003,633.434,429.003,634.698z"/>
		<path fill="#FFFFFF" d="M427.938,657.576h10.483c1.681,0,3.043,1.361,3.043,3.042v9.037c0,1.681-1.362,3.042-3.043,3.042h-10.483
			c-1.68,0-3.042-1.361-3.042-3.042v-9.037C424.896,658.938,426.258,657.576,427.938,657.576z"/>
	</g>
	<g>
		<path fill="#AB7AB5" d="M371.495,455.5h0.275c0.695,0,1.258,0.564,1.258,1.262v50.768c0,0.696-0.563,1.262-1.258,1.262h-0.275
			V455.5z"/>
		<g>
			<path fill="#AB7AB5" d="M341.522,799.411H167.388c-16.555,0-29.975-13.419-29.975-29.973V365.845
				c0-16.554,13.42-29.973,29.975-29.973h174.135c16.555,0,29.973,13.419,29.973,29.973v403.594
				C371.495,785.992,358.077,799.411,341.522,799.411z"/>
			<path fill="#37474F" d="M167.388,795.724c-14.494,0-26.285-11.792-26.285-26.285V365.845c0-14.493,11.791-26.284,26.285-26.284
				h174.135c14.494,0,26.285,11.791,26.285,26.284v403.594c0,14.493-11.791,26.285-26.285,26.285H167.388z"/>
			<g>
				<g>
					<path fill="#F3F3F3" d="M237.644,354.169c-1.438,0-2.604-1.168-2.604-2.604s1.166-2.603,2.604-2.603h33.477
						c1.436,0,2.604,1.167,2.604,2.603s-1.168,2.604-2.604,2.604H237.644z"/>
					<path fill="#37474F" d="M271.12,349.935h-33.477c-0.9,0-1.631,0.73-1.631,1.631l0,0c0,0.9,0.73,1.631,1.631,1.631h33.477
						c0.902,0,1.633-0.73,1.633-1.631l0,0C272.753,350.665,272.022,349.935,271.12,349.935z"/>
				</g>
				<g>
					<g>
						<circle fill="#F3F3F3" cx="219.692" cy="351.566" r="2.603"/>
					</g>
					<g>
						<circle fill="#F3F3F3" cx="229.274" cy="351.566" r="2.603"/>
						<circle fill="#37474F" cx="229.274" cy="351.565" r="1.631"/>
					</g>
					<g>
						<circle fill="#F3F3F3" cx="289.218" cy="351.566" r="2.603"/>
						<circle fill="#37474F" cx="289.216" cy="351.565" r="1.631"/>
					</g>
					<g>
						<circle fill="#F3F3F3" cx="279.636" cy="351.566" r="2.603"/>
						<circle fill="#37474F" cx="279.636" cy="351.565" r="1.631"/>
					</g>
				</g>
			</g>
			<path fill="#FFFFFF" d="M337.44,342.688h-31.512c-3.059,0-5.748,2.02-6.6,4.956l-2.578,8.878
				c-0.953,3.288-3.965,5.549-7.391,5.549h-69.814c-3.422,0-6.434-2.261-7.387-5.549l-2.578-8.878
				c-0.852-2.936-3.541-4.956-6.6-4.956H171.47c-13.857,0-25.092,11.234-25.092,25.093v396.703
				c0,13.858,11.234,25.093,25.092,25.093H337.44c13.857,0,25.092-11.234,25.092-25.093V367.78
				C362.532,353.922,351.298,342.688,337.44,342.688z"/>
			<g>
				<path fill="#AB7AB5" d="M138.308,487.711H137.8c-1.072,0-1.939,0.563-1.939,1.261v31.218c0,0.696,0.867,1.26,1.939,1.26h0.508
					V487.711z"/>
				<path fill="#AB7AB5" d="M138.308,443.631H137.8c-1.072,0-1.939,0.564-1.939,1.26v31.218c0,0.695,0.867,1.262,1.939,1.262h0.508
					V443.631z"/>
				<path fill="#AB7AB5" d="M138.308,410.543h-0.387c-0.953,0-1.723,0.502-1.723,1.121v13.446c0,0.619,0.77,1.121,1.723,1.121h0.387
					V410.543z"/>
			</g>
			<path fill="none" d="M337.44,342.688h-31.512c-3.059,0-5.748,2.02-6.6,4.956l-2.578,8.878c-0.953,3.288-3.965,5.549-7.391,5.549
				h-69.814c-3.422,0-6.434-2.261-7.387-5.549l-2.578-8.878c-0.852-2.936-3.541-4.956-6.6-4.956H171.47
				c-13.857,0-25.092,11.234-25.092,25.093v396.703c0,13.858,11.234,25.093,25.092,25.093H337.44
				c13.857,0,25.092-11.234,25.092-25.093V367.78C362.532,353.922,351.298,342.688,337.44,342.688z"/>
			<g>
				<g>
					<rect x="310.853" y="358.02" fill="#F2A4C8" width="1.475" height="2.07"/>
					<rect x="313.255" y="357.098" fill="#F2A4C8" width="1.475" height="2.992"/>
					<rect x="315.657" y="356.406" opacity="0.55" fill="#F2A4C8" width="1.475" height="3.684"/>
					<rect x="315.657" y="358.614" fill="#F2A4C8" width="1.475" height="1.476"/>
					<rect x="318.06" y="355.068" opacity="0.55" fill="#F2A4C8" width="1.477" height="5.021"/>
				</g>
				<g>
					<path opacity="0.55" fill="#F2A4C8" d="M340.349,356.142v-1.706c0,0-7.371,0-9.369,0c-0.275,0-0.492,0.224-0.492,0.5v4.653
						c0,0.276,0.223,0.5,0.5,0.5h9.361v-1.706h1.174v-2.242H340.349z"/>
					<polygon opacity="0.55" fill="#F2A4C8" points="331.423,359.153 331.423,355.373 339.415,355.373 339.415,357.077 
						339.415,357.449 339.415,359.153 					"/>
					<polygon fill="#F2A4C8" points="331.423,359.153 331.423,355.373 333.267,355.373 333.267,357.077 333.267,357.449 
						333.267,359.153 					"/>
				</g>
				<g>
					<circle fill="#F2A4C8" cx="324.859" cy="359.255" r="0.925"/>
					<g>
						<path fill="#F2A4C8" d="M323.278,357.676l0.592,0.591c0.254-0.253,0.602-0.41,0.988-0.41c0.385,0,0.736,0.157,0.988,0.41
							l0.592-0.591c-0.406-0.404-0.963-0.655-1.58-0.655S323.683,357.272,323.278,357.676z"/>
						<path fill="#F2A4C8" d="M324.858,355.704c-0.979,0-1.867,0.399-2.51,1.042l0.592,0.591c0.49-0.492,1.17-0.795,1.918-0.795
							s1.426,0.304,1.918,0.795l0.592-0.591C326.724,356.103,325.837,355.704,324.858,355.704z"/>
						<path fill="#F2A4C8" d="M321.388,355.785l0.59,0.591c0.738-0.738,1.756-1.195,2.881-1.195c1.123,0,2.141,0.457,2.879,1.195
							l0.592-0.591c-0.891-0.889-2.115-1.44-3.471-1.44C323.505,354.345,322.276,354.896,321.388,355.785z"/>
					</g>
				</g>
			</g>
			<path fill="#F2A4C8" d="M356.989,392c0,5.523-4.477,10-10,10H161.663c-5.521,0-10-4.477-10-10v-11.25c0-5.523,4.479-10,10-10
				h185.326c5.523,0,10,4.477,10,10V392z"/>
			<g>
				<circle opacity="0.8" fill="#F5F5F5" cx="345.059" cy="386.352" r="4.644"/>
				<ellipse opacity="0.8" fill="#F5F5F5" cx="328.356" cy="386.352" rx="4.645" ry="4.639"/>
				<ellipse opacity="0.8" fill="#F5F5F5" cx="312.198" cy="386.352" rx="4.645" ry="4.639"/>
			</g>
		</g>
	</g>
	<g>
		<path fill="#F5F5F5" d="M340.637,508.472c0,9.915-8.038,17.954-17.954,17.954H186.229c-9.917,0-17.955-8.039-17.955-17.954
			v-53.504c0-9.916,8.038-17.955,17.955-17.955h136.454c9.916,0,17.954,8.039,17.954,17.955V508.472z"/>
		<path fill="#DFDFDE" d="M168.273,495.903v12.568c0,9.915,8.038,17.954,17.955,17.954h136.454c9.916,0,17.954-8.039,17.954-17.954
			v-12.568H168.273z"/>
		<path fill="#F5F5F5" d="M340.637,608.658c0,9.915-8.038,17.955-17.954,17.955H186.229c-9.917,0-17.955-8.04-17.955-17.955v-53.505
			c0-9.916,8.038-17.954,17.955-17.954h136.454c9.916,0,17.954,8.038,17.954,17.954V608.658z"/>
		<path fill="none" stroke="#F2A4C8" stroke-width="2" stroke-linecap="round" stroke-linejoin="round" stroke-miterlimit="10" d="
			M340.637,608.658V596.09H168.273v12.568c0,9.915,8.038,17.955,17.955,17.955"/>
		<path fill="#4E4E4E" d="M259.676,425.286c0,2.256-1.829,4.085-4.086,4.085h-68.578c-2.257,0-4.086-1.829-4.086-4.085l0,0
			c0-2.256,1.829-4.085,4.086-4.085h68.578C257.847,421.201,259.676,423.03,259.676,425.286L259.676,425.286z"/>
		<path fill="#4E4E4E" d="M288.426,425.286c0,2.256-1.829,4.085-4.086,4.085h-15.328c-2.257,0-4.086-1.829-4.086-4.085l0,0
			c0-2.256,1.829-4.085,4.086-4.085h15.328C286.597,421.201,288.426,423.03,288.426,425.286L288.426,425.286z"/>
		<path fill="#4E4E4E" d="M259.676,648.871c0,2.257-1.829,4.086-4.086,4.086h-68.578c-2.257,0-4.086-1.829-4.086-4.086l0,0
			c0-2.256,1.829-4.085,4.086-4.085h68.578C257.847,644.786,259.676,646.615,259.676,648.871L259.676,648.871z"/>
		<path fill="#4E4E4E" d="M288.426,648.871c0,2.257-1.829,4.086-4.086,4.086h-15.328c-2.257,0-4.086-1.829-4.086-4.086l0,0
			c0-2.256,1.829-4.085,4.086-4.085h15.328C286.597,644.786,288.426,646.615,288.426,648.871L288.426,648.871z"/>
		<path fill="#F5F5F5" d="M338.822,789.576V688.957c0-13.807-11.193-25-25-25H193.273c-13.807,0-25,11.193-25,25v74.209v26.41
			H338.822z"/>
		<circle fill="#AB7AB5" cx="196.301" cy="699.957" r="8.875"/>
		<circle fill="#AB7AB5" cx="193.089" cy="556.429" r="8.875"/>
		<circle fill="#AB7AB5" cx="193.089" cy="455.099" r="8.875"/>
		<path fill="#AB7AB5" d="M256.548,695.207c0,1.346-1.091,2.438-2.438,2.438h-38.247c-1.346,0-2.438-1.092-2.438-2.438l0,0
			c0-1.346,1.092-2.438,2.438-2.438h38.247C255.457,692.77,256.548,693.861,256.548,695.207L256.548,695.207z"/>
		<path fill="#AB7AB5" d="M267.926,703.645c0,1.381-1.119,2.5-2.5,2.5h-49.5c-1.381,0-2.5-1.119-2.5-2.5l0,0
			c0-1.381,1.119-2.5,2.5-2.5h49.5C266.807,701.145,267.926,702.264,267.926,703.645L267.926,703.645z"/>
		<path fill="#AB7AB5" d="M281.926,703.645c0,1.381-1.119,2.5-2.5,2.5h-6.25c-1.381,0-2.5-1.119-2.5-2.5l0,0
			c0-1.381,1.119-2.5,2.5-2.5h6.25C280.807,701.145,281.926,702.264,281.926,703.645L281.926,703.645z"/>
		<g>
			<circle fill="#AB7AB5" cx="196.301" cy="739.068" r="8.875"/>
			<path fill="#AB7AB5" d="M256.548,734.818c0,1.346-1.091,2.438-2.438,2.438h-38.247c-1.346,0-2.438-1.092-2.438-2.438l0,0
				c0-1.346,1.092-2.438,2.438-2.438h38.247C255.457,732.381,256.548,733.473,256.548,734.818L256.548,734.818z"/>
			<path fill="#AB7AB5" d="M267.926,743.256c0,1.381-1.119,2.5-2.5,2.5h-49.5c-1.381,0-2.5-1.119-2.5-2.5l0,0
				c0-1.381,1.119-2.5,2.5-2.5h49.5C266.807,740.756,267.926,741.875,267.926,743.256L267.926,743.256z"/>
			<path fill="#AB7AB5" d="M281.926,743.256c0,1.381-1.119,2.5-2.5,2.5h-6.25c-1.381,0-2.5-1.119-2.5-2.5l0,0
				c0-1.381,1.119-2.5,2.5-2.5h6.25C280.807,740.756,281.926,741.875,281.926,743.256L281.926,743.256z"/>
		</g>
		<path fill="#F2A4C8" d="M285.145,610.291c0,2.024-1.642,3.666-3.667,3.666h-52.92c-2.025,0-3.667-1.642-3.667-3.666l0,0
			c0-2.025,1.642-3.667,3.667-3.667h52.92C283.503,606.624,285.145,608.266,285.145,610.291L285.145,610.291z"/>
		<g>
			<path fill-rule="evenodd" clip-rule="evenodd" fill="#DFDFDE" d="M266.454,474.93c0,2.02-1.369,3.658-3.059,3.658h-44.883
				c-1.689,0-3.059-1.638-3.059-3.658l0,0c0-2.02,1.369-3.658,3.059-3.658h44.883C265.085,471.272,266.454,472.91,266.454,474.93
				L266.454,474.93z"/>
			<path fill-rule="evenodd" clip-rule="evenodd" fill="#DFDFDE" d="M250.061,484.976c0,1.76-1.192,3.188-2.664,3.188h-12.685
				c-1.472,0-2.665-1.427-2.665-3.188l0,0c0-1.76,1.193-3.188,2.665-3.188h12.685C248.868,481.789,250.061,483.216,250.061,484.976
				L250.061,484.976z"/>
		</g>
		<g>
			<path fill-rule="evenodd" clip-rule="evenodd" fill="#DFDFDE" d="M327.676,474.93c0,2.02-1.369,3.658-3.059,3.658h-44.883
				c-1.689,0-3.059-1.638-3.059-3.658l0,0c0-2.02,1.369-3.658,3.059-3.658h44.883C326.307,471.272,327.676,472.91,327.676,474.93
				L327.676,474.93z"/>
			<path fill-rule="evenodd" clip-rule="evenodd" fill="#DFDFDE" d="M311.282,484.976c0,1.76-1.192,3.188-2.664,3.188h-12.685
				c-1.472,0-2.665-1.427-2.665-3.188l0,0c0-1.76,1.193-3.188,2.665-3.188h12.685C310.09,481.789,311.282,483.216,311.282,484.976
				L311.282,484.976z"/>
		</g>
		<path fill-rule="evenodd" clip-rule="evenodd" fill="#DFDFDE" d="M285.176,455.099c0,2.365-1.918,4.283-4.283,4.283h-66.184
			c-2.365,0-4.283-1.917-4.283-4.283l0,0c0-2.365,1.918-4.283,4.283-4.283h66.184C283.258,450.816,285.176,452.733,285.176,455.099
			L285.176,455.099z"/>
		<g>
			<path fill-rule="evenodd" clip-rule="evenodd" fill="#DFDFDE" d="M266.454,576.26c0,2.021-1.369,3.658-3.059,3.658h-44.883
				c-1.689,0-3.059-1.638-3.059-3.658l0,0c0-2.02,1.369-3.657,3.059-3.657h44.883C265.085,572.603,266.454,574.24,266.454,576.26
				L266.454,576.26z"/>
			<path fill-rule="evenodd" clip-rule="evenodd" fill="#DFDFDE" d="M250.061,586.307c0,1.76-1.192,3.188-2.664,3.188h-12.685
				c-1.472,0-2.665-1.428-2.665-3.188l0,0c0-1.761,1.193-3.188,2.665-3.188h12.685C248.868,583.119,250.061,584.546,250.061,586.307
				L250.061,586.307z"/>
		</g>
		<g>
			<path fill-rule="evenodd" clip-rule="evenodd" fill="#DFDFDE" d="M327.676,576.26c0,2.021-1.369,3.658-3.059,3.658h-44.883
				c-1.689,0-3.059-1.638-3.059-3.658l0,0c0-2.02,1.369-3.657,3.059-3.657h44.883C326.307,572.603,327.676,574.24,327.676,576.26
				L327.676,576.26z"/>
			<path fill-rule="evenodd" clip-rule="evenodd" fill="#DFDFDE" d="M311.282,586.307c0,1.76-1.192,3.188-2.664,3.188h-12.685
				c-1.472,0-2.665-1.428-2.665-3.188l0,0c0-1.761,1.193-3.188,2.665-3.188h12.685C310.09,583.119,311.282,584.546,311.282,586.307
				L311.282,586.307z"/>
		</g>
		<path fill-rule="evenodd" clip-rule="evenodd" fill="#DFDFDE" d="M285.176,556.429c0,2.365-1.918,4.282-4.283,4.282h-66.184
			c-2.365,0-4.283-1.917-4.283-4.282l0,0c0-2.365,1.918-4.282,4.283-4.282h66.184C283.258,552.146,285.176,554.063,285.176,556.429
			L285.176,556.429z"/>
	</g>
</g>
<g id="Layer_1">
</g>
<g id="Layer_3">
</g>
</svg>
