<svg width="20" height="20" viewBox="0 0 20 20" fill="none" xmlns="http://www.w3.org/2000/svg">
<path fill-rule="evenodd" clip-rule="evenodd" d="M20 10C20 15.5228 15.5228 20 10 20C4.47971 19.9938 0.00617966 15.5203 0 10C0 4.47715 4.47715 0 10 0C15.5228 0 20 4.47715 20 10ZM18.6544 10C18.6544 5.2203 14.7797 1.34559 10 1.34559C5.22235 1.35054 1.35054 5.22235 1.34559 10C1.34559 14.7797 5.2203 18.6544 10 18.6544C14.7797 18.6544 18.6544 14.7797 18.6544 10Z" fill="#999999"/>
<path fill-rule="evenodd" clip-rule="evenodd" d="M5.86003 15.062C5.75575 15.1248 5.63639 15.1582 5.51466 15.1585C5.27151 15.1594 5.04677 15.0291 4.92684 14.8175C4.8069 14.606 4.81042 14.3463 4.93605 14.1381L8.30004 8.54489C8.35585 8.45333 8.43274 8.37644 8.5243 8.32062L14.1175 4.95664C14.3824 4.79624 14.7226 4.83744 14.9417 5.05645C15.1607 5.27545 15.2019 5.61567 15.0415 5.88061L11.6775 11.4738C11.6217 11.5654 11.5448 11.6422 11.4532 11.6981L5.86003 15.062ZM12.5117 7.48636L9.37203 9.37243L7.48595 12.5121L10.6257 10.6261L12.5117 7.48636Z" fill="#999999"/>
<path fill-rule="evenodd" clip-rule="evenodd" d="M17.6888 10.3992C17.5274 10.7871 17.1481 11.0395 16.7279 11.0386C16.1554 11.0374 15.6918 10.5729 15.6918 10.0003C15.6918 9.58011 15.9451 9.20135 16.3333 9.04077C16.7216 8.88018 17.1684 8.96943 17.4652 9.26686C17.762 9.5643 17.8503 10.0113 17.6888 10.3992ZM17.0157 9.88306C16.9672 9.76721 16.8535 9.69214 16.7279 9.69305C16.5588 9.69427 16.4219 9.83111 16.4207 10.0003C16.4198 10.1259 16.4949 10.2395 16.6107 10.288C16.7266 10.3365 16.8602 10.3102 16.949 10.2214C17.0378 10.1326 17.0642 9.99891 17.0157 9.88306Z" fill="#999999"/>
<path fill-rule="evenodd" clip-rule="evenodd" d="M4.23291 10.3992C4.07149 10.7871 3.69218 11.0395 3.27201 11.0386C2.69942 11.0374 2.2359 10.5729 2.2359 10.0003C2.2359 9.58011 2.48913 9.20135 2.87741 9.04077C3.26569 8.88018 3.71248 8.96943 4.00927 9.26686C4.30606 9.5643 4.39434 10.0113 4.23291 10.3992ZM3.55974 9.88306C3.51126 9.76721 3.39759 9.69214 3.27201 9.69305C3.10283 9.69427 2.96599 9.83111 2.96476 10.0003C2.96386 10.1259 3.03893 10.2395 3.15478 10.288C3.27062 10.3365 3.40428 10.3102 3.49308 10.2214C3.58188 10.1326 3.60822 9.99891 3.55974 9.88306Z" fill="#999999"/>
<path fill-rule="evenodd" clip-rule="evenodd" d="M9.04046 16.3329C9.20105 15.9446 9.57981 15.6914 9.99999 15.6914C10.5726 15.6914 11.0371 16.1549 11.0383 16.7275C11.0392 17.1477 10.7868 17.527 10.3989 17.6884C10.011 17.8498 9.56399 17.7616 9.26656 17.4648C8.96913 17.168 8.87988 16.7212 9.04046 16.3329ZM9.6905 16.7275C9.6905 16.8984 9.82906 17.037 9.99999 17.037C10.0821 17.037 10.1608 17.0044 10.2188 16.9464C10.2769 16.8883 10.3095 16.8096 10.3095 16.7275C10.3095 16.5566 10.1709 16.418 9.99999 16.418C9.82906 16.418 9.6905 16.5566 9.6905 16.7275Z" fill="#999999"/>
<path fill-rule="evenodd" clip-rule="evenodd" d="M10.9609 3.67069C10.7995 4.05862 10.4201 4.31103 9.99997 4.31013C9.42739 4.30889 8.96387 3.84437 8.96387 3.27178C8.96387 2.8516 9.2171 2.47284 9.60538 2.31225C9.99366 2.15167 10.4404 2.24092 10.7372 2.53835C11.034 2.83578 11.1223 3.28276 10.9609 3.67069ZM10.2877 3.15454C10.2392 3.0387 10.1256 2.96363 9.99997 2.96453C9.8308 2.96575 9.69395 3.1026 9.69273 3.27178C9.69182 3.39736 9.76689 3.51103 9.88274 3.55951C9.99859 3.60799 10.1322 3.58165 10.221 3.49285C10.3098 3.40405 10.3362 3.27039 10.2877 3.15454Z" fill="#999999"/>
</svg>
