<svg width="20" height="24" viewBox="0 0 20 24" fill="none" xmlns="http://www.w3.org/2000/svg">
<path d="M10.944 5.75954C10.7328 5.75954 10.56 5.93234 10.56 6.14354V7.87154H8.63997V6.14354C8.63997 5.93234 8.46717 5.75954 8.25597 5.75954H6.52797V3.83954H8.25597C8.46717 3.83954 8.63997 3.66674 8.63997 3.45554V1.72754H10.56V3.45554C10.56 3.66674 10.7328 3.83954 10.944 3.83954H12.672V5.75954H10.944ZM5.37981 10.0546C5.08029 9.76466 4.60029 9.76658 4.30269 10.0623C4.15869 10.2082 4.07805 10.4002 4.07805 10.6056C4.07805 10.8111 4.15869 11.005 4.30269 11.149C4.31037 11.1567 4.31805 11.1643 4.32573 11.1739L5.36253 12.4027C5.49885 12.564 5.47773 12.8059 5.31645 12.9423C5.15517 13.0805 4.91133 13.0594 4.77501 12.8981L3.74781 11.6789C3.46749 11.3928 3.31197 11.0146 3.31005 10.6133C3.31005 10.6114 3.31005 10.6114 3.31005 10.6095L3.26397 5.95538C3.26397 5.52722 2.92029 5.18354 2.49597 5.18354C2.07165 5.18354 1.72797 5.52722 1.72797 5.95154V11.8306C1.72797 11.917 1.75677 11.9995 1.80861 12.0667L4.94013 16.0661C5.09757 16.2677 5.18397 16.5192 5.18397 16.7765V17.4715H8.25597V13.5336C8.25597 13.4415 8.22333 13.3512 8.16189 13.2821L5.37981 10.0546ZM16.704 5.18354C16.2796 5.18354 15.936 5.52722 15.936 5.95154L15.8899 10.6095C15.8899 10.6171 15.888 10.6229 15.888 10.6306C15.8822 11.0107 15.7363 11.389 15.4521 11.6789L14.4249 12.8981C14.2886 13.0594 14.0467 13.0805 13.8835 12.9423C13.7222 12.8059 13.7011 12.564 13.8374 12.4027L14.8742 11.1739C14.8819 11.1643 14.8896 11.1567 14.8972 11.149C15.1968 10.8495 15.1968 10.3618 14.8972 10.0623C14.7513 9.91826 14.5593 9.83762 14.3539 9.83762C14.1523 9.83762 13.9641 9.91442 13.8201 10.0546L11.0361 13.2821C10.9766 13.3512 10.944 13.4415 10.944 13.5336V17.4715H14.016V16.7765C14.016 16.5192 14.1024 16.2677 14.2617 16.0661L17.3913 12.0667C17.4432 11.9995 17.472 11.917 17.472 11.8306V5.95154C17.472 5.52722 17.1283 5.18354 16.704 5.18354Z" fill="#A3A2A2"/>
</svg>
