<svg width="24" height="30" viewBox="0 0 24 30" fill="none" xmlns="http://www.w3.org/2000/svg">
<path d="M9.64688 10.8885C9.80625 10.7478 9.96094 10.6025 10.0734 10.5041C10.5375 10.101 10.5938 9.3791 10.1953 8.90097C9.70781 8.31035 9.22969 7.70097 8.77031 7.08691C8.4 6.58535 7.6875 6.46347 7.18594 6.81972L6.31875 7.43379C6.27656 7.4666 6.20156 7.52754 6.08906 7.62597C6.01875 7.68691 5.925 7.7666 5.89688 7.79004C5.32969 8.18847 5.1375 8.94316 5.42813 9.62285C7.24688 13.9353 10.1016 16.7947 14.4188 18.6135C14.6297 18.7025 14.85 18.7494 15.0609 18.7494C15.5344 18.7494 15.975 18.5385 16.2516 18.1447C16.2703 18.1166 16.3547 18.0228 16.4109 17.9525C16.5094 17.84 16.5703 17.7697 16.5984 17.7228L17.2125 16.8557C17.5688 16.3494 17.4469 15.6369 16.9453 15.2666C16.3313 14.8119 15.7219 14.3338 15.1313 13.8416C14.6531 13.4432 13.9313 13.4994 13.5281 13.9635C13.4297 14.076 13.2891 14.2353 13.1438 14.3947C12.9984 14.5541 12.8531 14.7182 12.7547 14.8307C12.7219 14.8682 12.6797 14.8869 12.6281 14.8916C12.5672 14.8963 12.5109 14.8728 12.4641 14.8353C11.0578 13.5932 10.4484 12.9838 9.20625 11.5775C9.16406 11.5307 9.14531 11.4744 9.15 11.4135C9.15469 11.3619 9.17344 11.3197 9.21094 11.2869C9.32813 11.1791 9.4875 11.0338 9.64688 10.8885Z" fill="#999999"/>
<path d="M18.7078 8.97128C18.7078 6.92285 17.0437 5.25879 14.9953 5.25879C12.9468 5.25879 11.2828 6.92285 11.2828 8.97128C11.2828 11.0197 12.9468 12.6838 14.9953 12.6838C17.039 12.6838 18.7078 11.015 18.7078 8.97128ZM14.2125 8.04784V8.08066H13.739V8.04784C13.739 7.35878 14.3015 6.79628 14.9906 6.79628C15.6796 6.79628 16.2421 7.35878 16.2421 8.04784C16.2421 8.58222 15.9374 8.8494 15.6468 9.10722C15.4078 9.31815 15.1828 9.51503 15.1171 9.84784C15.0984 9.9369 15.0984 10.0166 15.0984 10.1103H14.625C14.625 9.98377 14.6343 9.87596 14.6484 9.77753C14.7187 9.2994 15.0187 9.0369 15.2859 8.80722C15.5437 8.58222 15.7687 8.39003 15.7687 8.04316C15.7687 7.61191 15.4171 7.26503 14.9906 7.26503C14.564 7.26503 14.2125 7.61659 14.2125 8.04784ZM14.625 10.6681H15.0984V11.1416H14.625V10.6681Z" fill="#999999"/>
</svg>
