<svg width="21" height="20" viewBox="0 0 21 20" fill="none" xmlns="http://www.w3.org/2000/svg">
<path d="M17.1127 2.92543C13.3137 -0.873615 7.25631 -0.958038 3.30953 2.58773L2.25424 1.53244C1.91655 1.19475 1.32559 1.3636 1.22006 1.82792L0.0170276 6.76668C-0.0885013 7.2099 0.312508 7.63201 0.776836 7.52648L5.71559 6.32346C6.17992 6.21793 6.34876 5.62696 6.01107 5.28927L4.85025 4.12845C7.9528 1.42691 12.6594 1.51134 15.6142 4.46615C18.6745 7.52648 18.6745 12.5497 15.5931 15.6311L15.2976 15.9055C14.8544 16.3065 14.8333 16.9819 15.2132 17.4251C15.4242 17.6573 15.7197 17.7839 16.0152 17.7839C16.2685 17.7839 16.5217 17.6995 16.7328 17.5095C16.8594 17.404 16.9861 17.2774 17.0916 17.1507C21.0173 13.225 21.0173 6.8511 17.1127 2.92543Z" fill="#999999"/>
<path d="M12.4694 17.5306L12.0684 17.6573C11.4986 17.805 11.1609 18.396 11.3086 18.9869C11.4352 19.4724 11.8785 19.789 12.3428 19.789C12.4272 19.789 12.5327 19.7679 12.6172 19.7468C12.786 19.7045 12.9549 19.6412 13.1237 19.599C13.6936 19.4091 13.989 18.797 13.7991 18.2482C13.6513 17.6573 13.0393 17.3407 12.4694 17.5306Z" fill="#999999"/>
<path d="M8.83922 17.8474L8.41711 17.7841C7.82614 17.6575 7.25629 18.0374 7.15076 18.6284C7.02412 19.2193 7.40403 19.7892 7.99499 19.8947C8.16384 19.9369 8.35379 19.958 8.52263 19.9791C8.56485 19.9791 8.62816 20.0002 8.69148 20.0002C9.21913 20.0002 9.68345 19.6203 9.74677 19.0716C9.83119 18.4806 9.43018 17.9319 8.83922 17.8474Z" fill="#999999"/>
<path d="M5.12463 16.2431C4.6603 15.8843 3.98492 15.9476 3.60501 16.4119C3.24622 16.8762 3.30953 17.5516 3.77386 17.9315C3.9216 18.0371 4.04824 18.1426 4.19598 18.2481C4.38593 18.3748 4.59699 18.4381 4.80804 18.4381C5.14574 18.4381 5.48343 18.2903 5.69449 17.9737C6.03218 17.4883 5.92665 16.8129 5.44122 16.4752L5.12463 16.2431Z" fill="#999999"/>
<path d="M2.84519 13.3936C2.59193 12.8449 1.95875 12.6127 1.41 12.866C0.861251 13.1193 0.629088 13.7524 0.882357 14.3012C0.96678 14.47 1.0301 14.6178 1.11452 14.7866C1.30447 15.1454 1.68438 15.3565 2.06428 15.3565C2.23313 15.3565 2.40197 15.3143 2.57082 15.2298C3.09846 14.9555 3.28842 14.3012 3.01404 13.7735L2.84519 13.3936Z" fill="#999999"/>
<path d="M13.5458 11.0088L11.0764 9.4259V5.50022C11.0764 4.90926 10.591 4.42383 10 4.42383C9.40908 4.42383 8.92365 4.90926 8.92365 5.50022V10.0169C8.92365 10.3757 9.1136 10.7345 9.43018 10.9244L12.385 12.8028C12.5538 12.9084 12.7649 12.9717 12.9548 12.9717C13.3136 12.9717 13.6513 12.8028 13.8624 12.4651C14.179 11.9797 14.0312 11.3254 13.5458 11.0088Z" fill="#999999"/>
</svg>
