<svg width="94" height="70" viewBox="0 0 94 70" fill="none" xmlns="http://www.w3.org/2000/svg">
<path d="M83.6111 11.6667C82.5378 11.6667 81.6667 12.5378 81.6667 13.6111V60.2778C81.6667 63.4939 79.0494 66.1111 75.8333 66.1111H9.72222C6.50611 66.1111 3.88889 63.4939 3.88889 60.2778V9.72222C3.88889 6.50611 6.50611 3.88889 9.72222 3.88889H64.1667C65.24 3.88889 66.1111 3.01778 66.1111 1.94444C66.1111 0.871111 65.24 0 64.1667 0H9.72222C4.36333 0 0 4.36333 0 9.72222V60.2778C0 65.6367 4.36333 70 9.72222 70H75.8333C81.1922 70 85.5556 65.6367 85.5556 60.2778V13.6111C85.5556 12.5378 84.6844 11.6667 83.6111 11.6667ZM91.3889 0C66.7294 0 46.6667 20.0628 46.6667 44.7222V47.81L38.3172 39.4606C37.5589 38.7022 36.3261 38.7022 35.5678 39.4606C34.8094 40.2189 34.8094 41.4517 35.5678 42.21L47.2344 53.8767C47.3006 53.9389 47.3822 53.9661 47.4522 54.0206C47.5844 54.1217 47.7128 54.2306 47.8683 54.2928C48.1056 54.3939 48.3583 54.4444 48.6111 54.4444C48.8639 54.4444 49.1167 54.3939 49.3539 54.2928C49.595 54.1917 49.8128 54.0439 49.9956 53.8611L61.6467 42.21C62.405 41.4517 62.405 40.2189 61.6467 39.4606C60.8883 38.7022 59.6556 38.7022 58.8972 39.4606L50.5556 47.8022V44.7222C50.5556 22.2056 68.8722 3.88889 91.3889 3.88889C92.4622 3.88889 93.3333 3.01778 93.3333 1.94444C93.3333 0.871111 92.4622 0 91.3889 0Z" fill="url(#paint0_linear_65_3184)"/>
<defs>
<linearGradient id="paint0_linear_65_3184" x1="46.6667" y1="0" x2="46.6667" y2="70" gradientUnits="userSpaceOnUse">
<stop stop-color="#CC8BC3"/>
<stop offset="1" stop-color="#AB7AB6"/>
</linearGradient>
</defs>
</svg>
