<svg width="44" height="44" viewBox="0 0 44 44" fill="none" xmlns="http://www.w3.org/2000/svg">
<ellipse cx="22" cy="22.0001" rx="22" ry="21.6945" fill="white"/>
<path fill-rule="evenodd" clip-rule="evenodd" d="M30.9954 30.875V30.8743H30.9999V24.3644C30.9999 21.1798 30.3047 18.7266 26.5292 18.7266C24.7142 18.7266 23.4962 19.7087 22.9989 20.6399H22.9464V19.0239H19.3667V30.8743H23.0942V25.0064C23.0942 23.4614 23.3912 21.9674 25.3314 21.9674C27.2432 21.9674 27.2717 23.7306 27.2717 25.1055V30.875H30.9954Z" fill="url(#paint0_linear)"/>
<path fill-rule="evenodd" clip-rule="evenodd" d="M13.2969 19.0244H17.0289V30.8748H13.2969V19.0244Z" fill="url(#paint1_linear)"/>
<path fill-rule="evenodd" clip-rule="evenodd" d="M15.1615 13.125C13.9682 13.125 13 14.0798 13 15.2565C13 16.4331 13.9682 17.4079 15.1615 17.4079C16.3547 17.4079 17.323 16.4331 17.323 15.2565C17.3222 14.0798 16.354 13.125 15.1615 13.125Z" fill="url(#paint2_linear)"/>
<defs>
<linearGradient id="paint0_linear" x1="19.3667" y1="30.7318" x2="30.7257" y2="30.7318" gradientUnits="userSpaceOnUse">
<stop stop-color="#FDA3D6"/>
<stop offset="1" stop-color="#AB7AB6"/>
</linearGradient>
<linearGradient id="paint1_linear" x1="13.2969" y1="30.7351" x2="16.9409" y2="30.7351" gradientUnits="userSpaceOnUse">
<stop stop-color="#FDA3D6"/>
<stop offset="1" stop-color="#AB7AB6"/>
</linearGradient>
<linearGradient id="paint2_linear" x1="13" y1="17.3574" x2="17.2211" y2="17.3574" gradientUnits="userSpaceOnUse">
<stop stop-color="#FDA3D6"/>
<stop offset="1" stop-color="#AB7AB6"/>
</linearGradient>
</defs>
</svg>
