<svg width="46" height="46" viewBox="0 0 46 46" fill="none" xmlns="http://www.w3.org/2000/svg">
<circle cx="23" cy="23" r="22" stroke="black"/>
<path fill-rule="evenodd" clip-rule="evenodd" d="M31.9954 32.0002V31.9994H31.9999V25.3979C31.9999 22.1684 31.3047 19.6807 27.5292 19.6807C25.7142 19.6807 24.4962 20.6767 23.9989 21.6209H23.9464V19.9822H20.3667V31.9994H24.0942V26.0489C24.0942 24.4822 24.3912 22.9672 26.3314 22.9672C28.2432 22.9672 28.2717 24.7552 28.2717 26.1494V32.0002H31.9954Z" fill="black"/>
<path fill-rule="evenodd" clip-rule="evenodd" d="M14.297 19.9829H18.029V32.0002H14.297V19.9829Z" fill="black"/>
<path fill-rule="evenodd" clip-rule="evenodd" d="M16.1615 14C14.9683 14 14 14.9683 14 16.1615C14 17.3547 14.9683 18.3432 16.1615 18.3432C17.3547 18.3432 18.323 17.3547 18.323 16.1615C18.3222 14.9683 17.354 14 16.1615 14Z" fill="black"/>
</svg>
