<svg width="16" height="20" viewBox="0 0 16 20" fill="none" xmlns="http://www.w3.org/2000/svg">
<g clip-path="url(#clip0)">
<path d="M13.184 0.400391H2.81599C1.99999 0.400391 1.35999 1.05639 1.35999 1.85639V14.1284C1.35999 14.9444 2.01599 15.5844 2.81599 15.5844H13.168C13.984 15.5844 14.624 14.9284 14.624 14.1284V1.85639C14.64 1.05639 13.984 0.400391 13.184 0.400391ZM5.03999 12.2244H4.81599C4.41599 12.2244 4.07999 11.9044 4.07999 11.4884C4.07999 11.0884 4.39999 10.7524 4.81599 10.7524H5.03999C5.43999 10.7524 5.77599 11.0724 5.77599 11.4884C5.77599 11.8884 5.45599 12.2244 5.03999 12.2244ZM5.03999 8.73639H4.81599C4.41599 8.73639 4.07999 8.41639 4.07999 8.00039C4.07999 7.60039 4.39999 7.26439 4.81599 7.26439H5.03999C5.43999 7.26439 5.77599 7.58439 5.77599 8.00039C5.77599 8.40039 5.45599 8.73639 5.03999 8.73639ZM5.03999 5.24839H4.81599C4.41599 5.24839 4.07999 4.92839 4.07999 4.51239C4.07999 4.09639 4.39999 3.77639 4.81599 3.77639H5.03999C5.43999 3.77639 5.77599 4.09639 5.77599 4.51239C5.77599 4.92839 5.45599 5.24839 5.03999 5.24839ZM11.184 12.2244H7.50399C7.10399 12.2244 6.76799 11.9044 6.76799 11.4884C6.76799 11.0884 7.08799 10.7524 7.50399 10.7524H11.2C11.6 10.7524 11.936 11.0724 11.936 11.4884C11.92 11.8884 11.584 12.2244 11.184 12.2244ZM11.184 8.73639H7.50399C7.10399 8.73639 6.76799 8.41639 6.76799 8.00039C6.76799 7.60039 7.08799 7.26439 7.50399 7.26439H11.2C11.6 7.26439 11.936 7.58439 11.936 8.00039C11.92 8.40039 11.584 8.73639 11.184 8.73639ZM11.184 5.24839H7.50399C7.10399 5.24839 6.76799 4.92839 6.76799 4.51239C6.76799 4.09639 7.08799 3.77639 7.50399 3.77639H11.2C11.6 3.77639 11.936 4.09639 11.936 4.51239C11.936 4.92839 11.584 5.24839 11.184 5.24839Z" fill="#A3A2A2"/>
</g>
<defs>
<clipPath id="clip0">
<rect width="16" height="20" fill="white"/>
</clipPath>
</defs>
</svg>
