<svg width="18" height="17" viewBox="0 0 18 17" fill="none" xmlns="http://www.w3.org/2000/svg">
<path d="M17.9631 5.75814C17.9203 4.36273 17.3125 3.05293 16.2595 2.06843C14.2991 0.23642 11.2172 0.00527826 8.9828 1.42637C6.73987 -0.00328255 3.66654 0.23642 1.70611 2.06843C0.653135 3.05293 0.0453167 4.36273 0.00251266 5.75814C-0.0402914 7.15355 0.464797 8.48904 1.44073 9.52489C1.5349 9.62762 1.62051 9.71323 1.70611 9.79028L8.16096 15.8085C8.24657 15.8856 8.33218 15.9626 8.44347 16.0568L8.9828 16.502L9.52213 16.0568C9.63342 15.9626 9.71903 15.8856 9.80464 15.8085L16.2509 9.79028C16.3365 9.71323 16.4221 9.62762 16.5163 9.52489C17.4922 8.48904 18.0059 7.14499 17.9631 5.75814Z" fill="#A3A2A2"/>
</svg>
