<svg width="24" height="24" viewBox="0 0 24 24" fill="none" xmlns="http://www.w3.org/2000/svg">
<path fill-rule="evenodd" clip-rule="evenodd" d="M17.9363 16.5257L23.7061 22.2955C24.098 22.6824 24.098 23.3192 23.7061 23.7061C23.3143 24.098 22.6824 24.098 22.2906 23.7061L16.5208 17.9412C14.7771 19.3714 12.5486 20.2286 10.1143 20.2286C4.52571 20.2286 0 15.698 0 10.1143C0 4.53061 4.52571 0 10.1143 0C15.698 0 20.2286 4.53061 20.2286 10.1143C20.2286 12.5486 19.3665 14.782 17.9363 16.5257ZM2.00816 10.1143C2.00816 14.5812 5.64245 18.2155 10.1143 18.2155C14.5812 18.2155 18.2204 14.5812 18.2204 10.1143C18.2204 5.64735 14.5812 2.00816 10.1143 2.00816C5.64245 2.00816 2.00816 5.64735 2.00816 10.1143Z" fill="#A3A2A2"/>
</svg>
