<svg width="36" height="36" viewBox="0 0 36 36" fill="none" xmlns="http://www.w3.org/2000/svg">
<rect width="36" height="36" rx="18" fill="#F6F6F8"/>
<path d="M13.0029 19.5234L19.5598 12.9666L23.0243 16.4311L16.4674 22.988L13.0029 19.5234Z" fill="#979797"/>
<path d="M24.7806 13.7879L22.2219 11.1929C21.9678 10.9388 21.5686 10.9388 21.3327 11.1747C21.3327 11.1747 21.3327 11.1747 21.3146 11.1929L20.1895 12.318L23.6555 15.8022L24.7806 14.6771C25.0347 14.423 25.0347 14.0238 24.7806 13.7879Z" fill="#979797"/>
<path d="M12.4953 20.2852L11.0617 24.1323C10.9346 24.4589 11.098 24.8219 11.4246 24.9489C11.5698 25.0033 11.7331 25.0033 11.8783 24.9489L15.7254 23.4971L12.4953 20.2852Z" fill="#979797"/>
</svg>
