<svg width="388" height="350" viewBox="0 0 388 350" fill="none" xmlns="http://www.w3.org/2000/svg">
<path d="M387.004 328.393C387.004 329.992 300.371 331.288 193.503 331.288C86.6334 331.288 0 329.992 0 328.393C0 326.794 86.6334 325.498 193.503 325.498C300.371 325.498 387.004 326.794 387.004 328.393Z" fill="#E6E6E5"/>
<path d="M104.121 326.715C104.121 326.715 92.3009 320.651 96.0101 318.48C100.141 316.062 106.178 325.655 106.178 325.655C106.178 325.655 104.509 319.771 107.848 320.366C111.189 320.961 109.518 326.715 109.518 326.715H104.121Z" fill="#E6E6E5"/>
<path d="M300.397 327.671C300.397 327.671 312.217 321.608 308.508 319.436C304.376 317.018 298.338 326.612 298.338 326.612C298.338 326.612 300.009 320.727 296.668 321.322C293.328 321.917 294.997 327.671 294.997 327.671H300.397Z" fill="#E6E6E5"/>
<path d="M58.9947 260.265H57.7828V323.572H58.9947V260.265Z" fill="#37474F"/>
<path d="M69.0522 327.308C66.8451 324.581 62.8957 322.764 58.3884 322.764C53.8819 322.764 49.9317 324.581 47.725 327.308H69.0522Z" fill="#37474F"/>
<path d="M68.2907 266.32H49.6982L51.0465 225.113H66.9428L68.2907 266.32Z" fill="url(#paint0_linear)"/>
<path d="M51.0465 225.113H56.7045L55.6266 266.32H49.6982L51.0465 225.113Z" fill="#F2A4C8"/>
<path d="M114.234 112.52H73.119V168.243H114.234V112.52Z" fill="url(#paint1_linear)"/>
<path d="M114.234 174.57H73.119V286.539H114.234V174.57Z" fill="url(#paint2_linear)"/>
<path d="M162.587 112.52H121.473V168.243H162.587V112.52Z" fill="url(#paint3_linear)"/>
<path d="M162.587 174.57H121.473V286.539H162.587V174.57Z" fill="url(#paint4_linear)"/>
<path d="M274.614 112.52H233.499V168.243H274.614V112.52Z" fill="url(#paint5_linear)"/>
<path d="M274.614 174.57H233.499V286.539H274.614V174.57Z" fill="url(#paint6_linear)"/>
<path d="M322.968 112.52H281.852V168.243H322.968V112.52Z" fill="url(#paint7_linear)"/>
<path d="M322.968 174.57H281.852V286.539H322.968V174.57Z" fill="url(#paint8_linear)"/>
<path d="M349.511 326.811H349.51C348.851 326.81 348.318 326.275 348.319 325.617L348.56 99.3541L194.895 2.60762L44.3294 99.7469L45.9099 325.211C45.9147 325.87 45.3843 326.408 44.7255 326.412C44.7227 326.412 44.7199 326.412 44.7171 326.412C44.0622 326.412 43.5291 325.883 43.5243 325.227L41.9394 99.108C41.9366 98.7 42.1426 98.3187 42.4857 98.0973L194.24 0.19057C194.63 -0.0611154 195.129 -0.0635001 195.523 0.183414L350.39 97.6861C350.737 97.9048 350.947 98.2865 350.947 98.6969L350.704 325.619C350.703 326.277 350.169 326.811 349.511 326.811Z" fill="url(#paint9_linear)"/>
<path d="M322.674 82.8404C322.015 82.8404 321.481 82.3064 321.481 81.6476V29.412H293.744V62.6826C293.744 63.3414 293.21 63.8754 292.552 63.8754C291.893 63.8754 291.359 63.3414 291.359 62.6826V28.2192C291.359 27.5604 291.893 27.0264 292.552 27.0264H322.674C323.333 27.0264 323.867 27.5604 323.867 28.2192V81.6476C323.867 82.3064 323.333 82.8404 322.674 82.8404Z" fill="url(#paint10_linear)"/>
<path d="M101.63 311.998H70.0427L69.7719 327.306H102.429L101.63 311.998Z" fill="#F2A4C8"/>
<path d="M70.0716 311.998H54.6512L54.685 327.306H69.7718L70.0716 311.998Z" fill="url(#paint11_linear)"/>
<path d="M55.1078 317.71H61.6695C62.4209 317.71 63.0352 317.095 63.0352 316.344C63.0352 315.592 62.4209 314.978 61.6695 314.978H55.1078C54.3563 314.978 53.7416 315.592 53.7416 316.344C53.7416 317.095 54.3563 317.71 55.1078 317.71Z" fill="white"/>
<path d="M78.4692 310.6H89.3445C91.2717 309.195 92.5023 307.057 92.5023 304.663C92.5023 300.431 88.6539 297 83.9064 297C79.1598 297 75.311 300.431 75.311 304.663C75.3106 307.057 76.542 309.195 78.4692 310.6Z" fill="#AB7AB5"/>
<path d="M95.2804 298.537H72.5321L77.1447 277.178H90.6674L95.2804 298.537Z" fill="#E3DFDD"/>
<path d="M76.5444 279.959H87.9979L91.207 298.537H72.5322L76.5444 279.959Z" fill="#F7F4F1"/>
<path d="M78.4694 310.599H89.3443L89.8048 312.135H78.0078L78.4694 310.599Z" fill="#F7F4F1"/>
<path d="M253.839 293.486H285L285.267 327.307H253.051L253.839 293.486Z" fill="url(#paint12_linear)"/>
<path d="M284.971 293.854H300.184L300.15 327.308H285.267L284.971 293.854Z" fill="#F2A4C8"/>
<path d="M295.813 300.645H289.34C288.6 300.645 287.993 300.038 287.993 299.297C287.993 298.556 288.6 297.949 289.34 297.949H295.813C296.554 297.949 297.161 298.555 297.161 299.297C297.161 300.038 296.555 300.645 295.813 300.645Z" fill="white"/>
<path d="M253.777 293.854L247.95 302.867H279.145L284.971 293.854H253.777Z" fill="#AB7AB5"/>
<path d="M300.184 293.854L306.009 302.867H290.798L284.971 293.854H300.184Z" fill="#AB7AB5"/>
<path d="M110.417 293.486H141.578L141.845 327.307H109.629L110.417 293.486Z" fill="url(#paint13_linear)"/>
<path d="M141.549 293.854H156.762L156.728 327.308H141.845L141.549 293.854Z" fill="#F2A4C8"/>
<path d="M152.391 300.645H145.918C145.178 300.645 144.571 300.038 144.571 299.297C144.571 298.556 145.178 297.949 145.918 297.949H152.391C153.133 297.949 153.739 298.555 153.739 299.297C153.739 300.038 153.133 300.645 152.391 300.645Z" fill="white"/>
<path d="M110.355 293.854L104.528 302.867H135.723L141.549 293.854H110.355Z" fill="#AB7AB5"/>
<path d="M156.762 293.854L162.587 302.867H147.376L141.549 293.854H156.762Z" fill="#AB7AB5"/>
<path d="M65.6824 303.924V302.07C65.6824 300.802 64.8522 299.693 63.6415 299.315C59.0372 297.879 47.8645 291.84 42.9477 266.67C42.6483 265.142 41.3 264.045 39.7434 264.045C38.665 264.045 37.7899 264.92 37.7899 265.998V303.924C37.7899 305.003 38.665 305.878 39.7434 305.878H63.7286C64.8081 305.878 65.6824 305.003 65.6824 303.924Z" fill="url(#paint14_linear)"/>
<path d="M63.7609 303.924V302.07C63.7609 300.802 62.9303 299.693 61.7196 299.315C57.1157 297.879 45.9434 291.84 41.0262 266.67C40.728 265.142 39.3797 264.045 37.8223 264.045H21.6007V305.878H61.8071C62.8862 305.878 63.7609 305.003 63.7609 303.924Z" fill="#AB7AB5"/>
<path d="M38.2669 327.306H35.8682L39.5627 305.877H41.9603L38.2669 327.306Z" fill="#37474F"/>
<path d="M66.3302 327.306H68.7286L65.0344 305.877H62.6365L66.3302 327.306Z" fill="#37474F"/>
<path d="M64.7466 305.877H39.5626V307.724H64.7466V305.877Z" fill="#37474F"/>
<path d="M41.952 299.004H67.2367C68.6366 299.004 69.7722 300.139 69.7722 301.539V303.342C69.7722 304.743 68.637 305.877 67.2367 305.877H41.952C40.5521 305.877 39.4173 304.743 39.4173 303.342V301.539C39.4173 300.139 40.5517 299.004 41.952 299.004Z" fill="url(#paint15_linear)"/>
<path d="M25.6265 299.004H50.9115C52.3115 299.004 53.4467 300.139 53.4467 301.539V303.342C53.4467 304.743 52.3115 305.877 50.9115 305.877H25.6265C24.2265 305.877 23.0914 304.743 23.0914 303.342V301.539C23.0914 300.139 24.2265 299.004 25.6265 299.004Z" fill="white"/>
<path d="M47.1576 303.924V302.07C47.1576 300.802 46.327 299.693 45.1159 299.315C40.5128 297.879 29.3397 291.84 24.4229 266.67C24.1243 265.142 22.7756 264.045 21.2193 264.045C20.1398 264.045 19.2655 264.92 19.2655 265.998V303.924C19.2655 305.003 20.1398 305.878 21.2193 305.878H45.2034C46.2829 305.878 47.1576 305.003 47.1576 303.924Z" fill="url(#paint16_linear)"/>
<path d="M21.6629 327.306H19.2654L22.9584 305.877H25.3571L21.6629 327.306Z" fill="#37474F"/>
<path d="M49.7262 327.306H52.1249L48.4316 305.877H46.0324L49.7262 327.306Z" fill="#37474F"/>
<path d="M48.1425 305.877H22.9581V307.724H48.1425V305.877Z" fill="#37474F"/>
<path d="M309.969 151.728H98.8109V295.312H309.969V151.728Z" fill="#37474F"/>
<path d="M309.969 274.131H98.8107V295.312H309.969V274.131Z" fill="#EBEBEB"/>
<path d="M245.537 321.194H163.243V328.071H245.537V321.194Z" fill="url(#paint17_linear)"/>
<path d="M235.737 321.201H173.043L174.635 309.266L174.714 308.703L174.862 307.583L174.935 307.02L175.088 305.9L175.108 305.726L175.161 305.338L175.313 304.218L175.387 303.655L176.501 295.316H232.277L233.329 303.181L233.382 303.561L233.556 304.864L233.602 305.243L233.671 305.726L233.781 306.547L233.829 306.925L234.002 308.235L234.055 308.608L235.737 321.201Z" fill="#EBEBEB"/>
<path d="M204.328 286.795C206.26 286.795 207.826 285.229 207.826 283.298C207.826 281.366 206.26 279.8 204.328 279.8C202.396 279.8 200.83 281.366 200.83 283.298C200.83 285.229 202.396 286.795 204.328 286.795Z" fill="#37474F"/>
<path d="M233.671 305.726L175.387 303.655L176.501 295.316H232.277L233.671 305.726Z" fill="#DCDBDB"/>
<path d="M300.226 161.063H108.555V264.171H300.226V161.063Z" fill="white"/>
<path d="M289.09 167.452H119.101V264.207H289.09V167.452Z" fill="url(#paint18_linear)"/>
<path d="M289.09 167.452H119.101V179.099H289.09V167.452Z" fill="#F2A4C8"/>
<path opacity="0.8" d="M194.106 176.188H128.26C126.683 176.188 125.405 174.909 125.405 173.332C125.405 171.755 126.683 170.477 128.26 170.477H194.106C195.683 170.477 196.961 171.755 196.961 173.332C196.961 174.909 195.683 176.188 194.106 176.188Z" fill="white"/>
<path opacity="0.8" d="M279.773 176.187C281.35 176.187 282.628 174.909 282.628 173.332C282.628 171.755 281.35 170.477 279.773 170.477C278.196 170.477 276.918 171.755 276.918 173.332C276.918 174.909 278.196 176.187 279.773 176.187Z" fill="white"/>
<path opacity="0.6" d="M269.862 176.189C271.44 176.189 272.718 174.91 272.718 173.333C272.718 171.755 271.44 170.477 269.862 170.477C268.285 170.477 267.006 171.755 267.006 173.333C267.006 174.91 268.285 176.189 269.862 176.189Z" fill="white"/>
<path opacity="0.4" d="M259.951 176.189C261.529 176.189 262.807 174.91 262.807 173.333C262.807 171.755 261.529 170.477 259.951 170.477C258.374 170.477 257.095 171.755 257.095 173.333C257.095 174.91 258.374 176.189 259.951 176.189Z" fill="white"/>
<path d="M282.628 190.239H125.405V245.392H282.628V190.239Z" fill="#F2A4C8"/>
<path d="M204.652 186.267H187.854C186.834 186.267 186.006 185.44 186.006 184.419C186.006 183.399 186.834 182.571 187.854 182.571H204.652C205.672 182.571 206.499 183.399 206.499 184.419C206.499 185.44 205.672 186.267 204.652 186.267Z" fill="#F2A4C8"/>
<path d="M230.184 186.267H213.386C212.366 186.267 211.539 185.44 211.539 184.419C211.539 183.399 212.366 182.571 213.386 182.571H230.184C231.205 182.571 232.031 183.399 232.031 184.419C232.031 185.44 231.205 186.267 230.184 186.267Z" fill="#F2A4C8"/>
<path d="M255.717 186.267H238.919C237.898 186.267 237.071 185.44 237.071 184.419C237.071 183.399 237.898 182.571 238.919 182.571H255.717C256.736 182.571 257.564 183.399 257.564 184.419C257.563 185.44 256.736 186.267 255.717 186.267Z" fill="#F2A4C8"/>
<path d="M281.248 186.267H264.451C263.431 186.267 262.603 185.44 262.603 184.419C262.603 183.399 263.431 182.571 264.451 182.571H281.248C282.269 182.571 283.096 183.399 283.096 184.419C283.096 185.44 282.269 186.267 281.248 186.267Z" fill="#F2A4C8"/>
<path d="M161.537 171.611C160.964 171.037 160.034 171.037 159.461 171.611C158.886 172.184 158.886 173.113 159.461 173.687C159.968 174.194 160.754 174.252 161.325 173.862C161.335 173.935 161.362 174.007 161.419 174.064L162.41 175.055C162.546 175.192 162.768 175.192 162.905 175.055C163.041 174.918 163.041 174.697 162.905 174.559L161.914 173.568C161.857 173.512 161.785 173.484 161.711 173.475C162.102 172.903 162.045 172.118 161.537 171.611ZM161.237 173.386C160.829 173.793 160.17 173.793 159.761 173.386C159.354 172.979 159.354 172.317 159.761 171.91C160.17 171.503 160.829 171.503 161.237 171.91C161.645 172.318 161.645 172.979 161.237 173.386Z" fill="#5274B8"/>
<path d="M161.537 171.611C160.964 171.037 160.034 171.037 159.461 171.611C158.886 172.184 158.886 173.113 159.461 173.687C159.968 174.194 160.754 174.252 161.325 173.862C161.335 173.935 161.362 174.007 161.419 174.064L162.41 175.055C162.546 175.192 162.768 175.192 162.905 175.055C163.041 174.918 163.041 174.697 162.905 174.559L161.914 173.568C161.857 173.512 161.785 173.484 161.711 173.475C162.102 172.903 162.045 172.118 161.537 171.611ZM161.237 173.386C160.829 173.793 160.17 173.793 159.761 173.386C159.354 172.979 159.354 172.317 159.761 171.91C160.17 171.503 160.829 171.503 161.237 171.91C161.645 172.318 161.645 172.979 161.237 173.386Z" fill="#37474F"/>
<path d="M182.906 228.106H139.386V264.286H182.906V228.106Z" fill="white"/>
<path d="M175.433 232.192H147.853V250.325H175.433V232.192Z" fill="#5274B8"/>
<path d="M175.433 232.192H147.853V250.325H175.433V232.192Z" fill="#AB7AB5"/>
<path d="M173.516 254.671H148.494C148.139 254.671 147.853 254.384 147.853 254.03C147.853 253.677 148.14 253.389 148.494 253.389H173.516C173.87 253.389 174.157 253.677 174.157 254.03C174.157 254.384 173.87 254.671 173.516 254.671Z" fill="#AB7AB5"/>
<path d="M169.456 257.236H148.494C148.139 257.236 147.853 256.948 147.853 256.595C147.853 256.24 148.14 255.954 148.494 255.954H169.456C169.811 255.954 170.098 256.241 170.098 256.595C170.098 256.949 169.811 257.236 169.456 257.236Z" fill="#AB7AB5"/>
<path d="M170.778 259.8H148.495C148.14 259.8 147.853 259.513 147.853 259.159C147.853 258.805 148.14 258.519 148.495 258.519H170.778C171.132 258.519 171.418 258.805 171.418 259.159C171.418 259.513 171.132 259.8 170.778 259.8Z" fill="#AB7AB5"/>
<path d="M163.639 242.264H158.64V247.263H163.639V242.264Z" fill="#5274B8"/>
<path d="M163.639 242.264H158.64V247.263H163.639V242.264Z" fill="#F2A4C8"/>
<path d="M161.099 234.587L153.884 241.101H156.602V247.264H159.729V243.241H162.466V247.264H165.593V241.101H168.314L161.099 234.587Z" fill="white"/>
<path opacity="0.8" d="M206.499 229.742C213.936 229.742 219.965 223.713 219.965 216.276C219.965 208.839 213.936 202.811 206.499 202.811C199.062 202.811 193.033 208.839 193.033 216.276C193.033 223.713 199.062 229.742 206.499 229.742Z" fill="white"/>
<path d="M196.29 215.396H197.951C197.951 215.396 199.011 223.878 208.233 223.241C208.233 223.241 201.908 222.464 200.813 215.396H202.439L199.329 210.379L196.29 215.396Z" fill="url(#paint19_linear)"/>
<path d="M205.345 208.338C205.345 208.338 212.792 209.814 212.827 216.175H211.308L214.205 221.015L216.82 216.28H215.371C215.371 216.28 214.859 207.923 205.345 208.338Z" fill="url(#paint20_linear)"/>
<path opacity="0.8" d="M247.964 208.276C251.118 208.276 253.675 205.719 253.675 202.565C253.675 199.411 251.118 196.854 247.964 196.854C244.81 196.854 242.253 199.411 242.253 202.565C242.253 205.719 244.81 208.276 247.964 208.276Z" fill="white"/>
<path d="M249.462 200.984C249.462 200.207 248.819 199.532 248.011 199.532C247.203 199.532 246.56 200.208 246.56 200.984C246.56 201.785 247.21 202.434 248.011 202.434C248.813 202.434 249.462 201.785 249.462 200.984Z" fill="url(#paint21_linear)"/>
<path d="M249.226 203.202C248.829 203.089 248.42 203.031 248.011 203.031C247.602 203.031 247.193 203.089 246.795 203.202C246.082 203.407 245.595 204.072 245.595 204.816V205.173C245.595 205.378 245.76 205.543 245.964 205.543H250.057C250.261 205.543 250.427 205.378 250.427 205.173V204.816C250.427 204.071 249.941 203.407 249.226 203.202Z" fill="url(#paint22_linear)"/>
<path opacity="0.8" d="M247.964 223.57C251.118 223.57 253.675 221.013 253.675 217.859C253.675 214.705 251.118 212.148 247.964 212.148C244.81 212.148 242.253 214.705 242.253 217.859C242.253 221.013 244.81 223.57 247.964 223.57Z" fill="white"/>
<path d="M249.462 216.276C249.462 215.498 248.819 214.824 248.011 214.824C247.203 214.824 246.56 215.499 246.56 216.276C246.56 217.077 247.21 217.726 248.011 217.726C248.813 217.726 249.462 217.077 249.462 216.276Z" fill="url(#paint23_linear)"/>
<path d="M249.226 218.495C248.829 218.381 248.42 218.323 248.011 218.323C247.602 218.323 247.193 218.381 246.795 218.495C246.082 218.701 245.595 219.365 245.595 220.108V220.465C245.595 220.67 245.76 220.835 245.964 220.835H250.057C250.261 220.835 250.427 220.67 250.427 220.465V220.108C250.427 219.365 249.941 218.7 249.226 218.495Z" fill="url(#paint24_linear)"/>
<path opacity="0.8" d="M248.011 238.777C251.165 238.777 253.722 236.22 253.722 233.066C253.722 229.912 251.165 227.355 248.011 227.355C244.857 227.355 242.3 229.912 242.3 233.066C242.3 236.22 244.857 238.777 248.011 238.777Z" fill="white"/>
<path d="M249.462 231.484C249.462 230.707 248.819 230.033 248.011 230.033C247.203 230.033 246.56 230.708 246.56 231.484C246.56 232.286 247.21 232.935 248.011 232.935C248.813 232.935 249.462 232.286 249.462 231.484Z" fill="url(#paint25_linear)"/>
<path d="M249.225 233.702C248.829 233.588 248.42 233.53 248.011 233.53C247.602 233.53 247.193 233.588 246.795 233.702C246.082 233.907 245.595 234.571 245.595 235.315V235.673C245.595 235.877 245.76 236.042 245.964 236.042H250.057C250.261 236.042 250.427 235.877 250.427 235.673V235.315C250.427 234.571 249.941 233.906 249.225 233.702Z" fill="url(#paint26_linear)"/>
<path opacity="0.8" d="M239.363 229.062C239.236 229.062 239.118 229.095 239.011 229.147L230.232 223.438C230.235 223.41 230.24 223.381 230.24 223.351C230.24 222.912 229.885 222.557 229.445 222.557C229.006 222.557 228.651 222.913 228.651 223.351C228.651 223.79 229.007 224.146 229.445 224.146C229.518 224.146 229.586 224.134 229.652 224.116L238.574 229.92C238.606 230.329 238.945 230.653 239.363 230.653C239.802 230.653 240.157 230.296 240.157 229.858C240.158 229.418 239.802 229.062 239.363 229.062Z" fill="white"/>
<path opacity="0.8" d="M239.363 216.795C239.088 216.795 238.846 216.935 238.703 217.148H230.901C230.758 216.935 230.516 216.795 230.241 216.795C229.802 216.795 229.446 217.151 229.446 217.59C229.446 218.029 229.802 218.385 230.241 218.385C230.516 218.385 230.758 218.244 230.901 218.032H238.703C238.846 218.244 239.088 218.385 239.363 218.385C239.802 218.385 240.158 218.029 240.158 217.59C240.158 217.151 239.802 216.795 239.363 216.795Z" fill="white"/>
<path opacity="0.8" d="M229.295 211.818C229.706 211.818 230.041 211.504 230.082 211.103L239.095 205.24C239.223 205.329 239.378 205.381 239.545 205.381C239.984 205.381 240.34 205.025 240.34 204.585C240.34 204.147 239.984 203.791 239.545 203.791C239.173 203.791 238.864 204.047 238.777 204.392L229.661 210.321C229.551 210.264 229.428 210.228 229.295 210.228C228.856 210.228 228.5 210.584 228.5 211.023C228.5 211.461 228.856 211.818 229.295 211.818Z" fill="white"/>
<path opacity="0.8" d="M367.304 215.173V209.026C368.071 209.026 368.693 209.647 368.693 210.414V213.785C368.693 214.552 368.071 215.173 367.304 215.173Z" fill="#F2A4C8"/>
<path opacity="0.8" d="M367.304 223.432V217.285C368.071 217.285 368.693 217.907 368.693 218.673V222.044C368.693 222.811 368.071 223.432 367.304 223.432Z" fill="#F2A4C8"/>
<path d="M357.315 323.218H305.727C300.21 323.218 295.737 318.746 295.737 313.229V318.497C295.737 324.014 300.21 328.487 305.727 328.487H357.315C362.831 328.487 367.304 324.014 367.304 318.497V313.229C367.304 318.746 362.831 323.218 357.315 323.218Z" fill="#37474F"/>
<path d="M357.315 328.648H305.728C300.21 328.648 295.737 324.019 295.737 318.309V197.248C295.737 191.537 300.21 186.909 305.728 186.909H357.315C362.832 186.909 367.304 191.537 367.304 197.248V318.309C367.304 324.019 362.832 328.648 357.315 328.648Z" fill="#AB7AB5"/>
<path d="M357.315 189.764H305.727C301.792 189.764 298.591 193.318 298.591 197.688V317.829C298.591 322.199 301.792 325.753 305.727 325.753H357.315C361.249 325.753 364.45 322.199 364.45 317.829V197.688C364.45 193.318 361.249 189.764 357.315 189.764Z" fill="#F3F3F3"/>
<path d="M357.315 189.764H305.727C301.792 189.764 298.591 192.965 298.591 196.9V200.959H364.451V196.9C364.45 192.965 361.249 189.764 357.315 189.764Z" fill="#F2A4C8"/>
<path d="M357.225 240.652C357.225 244.54 354.073 247.691 350.186 247.691H315.23C311.343 247.691 308.192 244.54 308.192 240.652V215.469C308.192 211.582 311.343 208.431 315.23 208.431H350.186C354.073 208.431 357.224 211.582 357.224 215.469V240.652H357.225Z" fill="url(#paint27_linear)"/>
<path d="M356.955 239.598C356.955 243.485 353.803 246.636 349.916 246.636H314.96C311.073 246.636 307.922 243.485 307.922 239.598V214.415C307.922 210.527 311.073 207.376 314.96 207.376H349.916C353.803 207.376 356.955 210.527 356.955 214.415V239.598Z" fill="white"/>
<path d="M331.307 255.468C331.464 255.31 331.72 255.31 331.877 255.468L332.18 255.769C332.225 255.815 332.304 255.782 332.304 255.717V253.36C332.304 253.137 332.485 252.957 332.708 252.957C332.931 252.957 333.112 253.137 333.112 253.36V255.717C333.112 255.782 333.19 255.815 333.236 255.769L333.538 255.468C333.695 255.31 333.951 255.31 334.108 255.468C334.265 255.625 334.265 255.88 334.108 256.038L332.941 257.205C332.813 257.334 332.603 257.334 332.474 257.205L331.307 256.038C331.149 255.88 331.149 255.625 331.307 255.468Z" fill="url(#paint28_linear)"/>
<path d="M356.955 238.511C356.955 242.398 353.803 245.55 349.916 245.55H314.96C311.073 245.55 307.922 242.398 307.922 238.511V213.328C307.922 209.44 311.073 206.289 314.96 206.289H349.916C353.803 206.289 356.955 209.44 356.955 213.328V238.511Z" fill="url(#paint29_linear)"/>
<path d="M345.218 234.769H320.196C319.841 234.769 319.555 234.482 319.555 234.128C319.555 233.774 319.842 233.486 320.196 233.486H345.218C345.572 233.486 345.859 233.775 345.859 234.128C345.859 234.482 345.572 234.769 345.218 234.769Z" fill="white"/>
<path d="M342.919 237.334H321.957C321.602 237.334 321.316 237.046 321.316 236.693C321.316 236.338 321.602 236.052 321.957 236.052H342.919C343.273 236.052 343.56 236.338 343.56 236.693C343.56 237.046 343.273 237.334 342.919 237.334Z" fill="white"/>
<path d="M343.849 239.9H321.566C321.21 239.9 320.924 239.612 320.924 239.259C320.924 238.904 321.211 238.618 321.566 238.618H343.849C344.203 238.618 344.489 238.905 344.489 239.259C344.489 239.612 344.202 239.9 343.849 239.9Z" fill="white"/>
<path d="M335.193 221.13H327.606V228.717H335.193V221.13Z" fill="#5274B8"/>
<path d="M335.193 221.13H327.606V228.717H335.193V221.13Z" fill="#F2A4C8"/>
<path d="M331.338 209.479L320.389 219.364H324.514V228.716H329.26V222.612H333.413V228.716H338.158V219.364H342.288L331.338 209.479Z" fill="white"/>
<path opacity="0.8" d="M315.633 291.315C322.522 291.315 328.106 285.731 328.106 278.843C328.106 271.954 322.522 266.37 315.633 266.37C308.745 266.37 303.161 271.954 303.161 278.843C303.161 285.731 308.745 291.315 315.633 291.315Z" fill="#F2A4C8"/>
<path d="M306.176 278.028H307.715C307.715 278.028 308.696 285.884 317.239 285.294C317.239 285.294 311.381 284.574 310.366 278.028H311.871L308.991 273.381L306.176 278.028Z" fill="#F3F3F3"/>
<path d="M314.563 271.489C314.563 271.489 321.461 272.856 321.494 278.748H320.087L322.771 283.232L325.193 278.846H323.851C323.85 278.846 323.376 271.105 314.563 271.489Z" fill="#F3F3F3"/>
<path d="M352.025 271.433C354.946 271.433 357.315 269.065 357.315 266.144C357.315 263.223 354.946 260.854 352.025 260.854C349.104 260.854 346.736 263.223 346.736 266.144C346.736 269.065 349.104 271.433 352.025 271.433Z" fill="url(#paint30_linear)"/>
<path d="M353.412 264.678C353.412 263.958 352.816 263.333 352.069 263.333C351.319 263.333 350.724 263.959 350.724 264.678C350.724 265.42 351.327 266.022 352.069 266.022C352.811 266.022 353.412 265.42 353.412 264.678Z" fill="#F3F3F3"/>
<path d="M353.193 266.733C352.826 266.628 352.447 266.575 352.069 266.575C351.689 266.575 351.311 266.628 350.943 266.733C350.282 266.923 349.831 267.538 349.831 268.228V268.559C349.831 268.748 349.984 268.901 350.173 268.901H353.964C354.152 268.901 354.306 268.748 354.306 268.559V268.228C354.306 267.538 353.856 266.923 353.193 266.733Z" fill="#F3F3F3"/>
<path d="M352.025 285.598C354.946 285.598 357.315 283.23 357.315 280.309C357.315 277.388 354.946 275.02 352.025 275.02C349.104 275.02 346.736 277.388 346.736 280.309C346.736 283.23 349.104 285.598 352.025 285.598Z" fill="url(#paint31_linear)"/>
<path d="M353.412 278.843C353.412 278.122 352.816 277.498 352.069 277.498C351.319 277.498 350.724 278.123 350.724 278.843C350.724 279.585 351.327 280.187 352.069 280.187C352.811 280.187 353.412 279.585 353.412 278.843Z" fill="#F3F3F3"/>
<path d="M353.193 280.897C352.826 280.791 352.447 280.738 352.069 280.738C351.689 280.738 351.311 280.792 350.943 280.897C350.282 281.087 349.831 281.702 349.831 282.391V282.722C349.831 282.911 349.984 283.065 350.173 283.065H353.964C354.152 283.065 354.306 282.911 354.306 282.722V282.391C354.306 281.702 353.856 281.087 353.193 280.897Z" fill="#F3F3F3"/>
<path d="M352.068 299.685C354.99 299.685 357.358 297.317 357.358 294.396C357.358 291.475 354.99 289.106 352.068 289.106C349.147 289.106 346.779 291.475 346.779 294.396C346.779 297.317 349.147 299.685 352.068 299.685Z" fill="url(#paint32_linear)"/>
<path d="M353.412 292.929C353.412 292.209 352.816 291.586 352.068 291.586C351.319 291.586 350.724 292.211 350.724 292.929C350.724 293.673 351.326 294.274 352.068 294.274C352.811 294.274 353.412 293.673 353.412 292.929Z" fill="#F3F3F3"/>
<path d="M353.193 294.985C352.826 294.879 352.447 294.826 352.068 294.826C351.689 294.826 351.311 294.879 350.942 294.985C350.282 295.174 349.831 295.79 349.831 296.479V296.81C349.831 296.999 349.984 297.152 350.173 297.152H353.963C354.152 297.152 354.306 296.999 354.306 296.81V296.479C354.306 295.79 353.856 295.174 353.193 294.985Z" fill="#F3F3F3"/>
<path opacity="0.8" d="M342.769 290.686C342.651 290.686 342.542 290.717 342.443 290.766L334.312 285.477C334.314 285.451 334.319 285.425 334.319 285.397C334.319 284.991 333.99 284.661 333.583 284.661C333.176 284.661 332.847 284.991 332.847 285.397C332.847 285.804 333.176 286.133 333.583 286.133C333.65 286.133 333.713 286.122 333.774 286.106L342.038 291.481C342.068 291.861 342.382 292.16 342.769 292.16C343.175 292.16 343.505 291.83 343.505 291.424C343.505 291.017 343.175 290.686 342.769 290.686Z" fill="#F2A4C8"/>
<path opacity="0.8" d="M342.769 279.325C342.514 279.325 342.29 279.454 342.158 279.652H334.931C334.798 279.454 334.575 279.325 334.319 279.325C333.913 279.325 333.582 279.655 333.582 280.061C333.582 280.468 333.913 280.798 334.319 280.798C334.575 280.798 334.798 280.668 334.931 280.472H342.158C342.29 280.668 342.514 280.798 342.769 280.798C343.176 280.798 343.506 280.468 343.506 280.061C343.506 279.655 343.176 279.325 342.769 279.325Z" fill="#F2A4C8"/>
<path opacity="0.8" d="M333.444 274.715C333.825 274.715 334.135 274.424 334.172 274.053L342.521 268.622C342.64 268.704 342.783 268.752 342.938 268.752C343.345 268.752 343.674 268.422 343.674 268.015C343.674 267.609 343.345 267.279 342.938 267.279C342.594 267.279 342.307 267.517 342.226 267.836L333.783 273.328C333.681 273.274 333.567 273.241 333.444 273.241C333.038 273.241 332.707 273.571 332.707 273.979C332.707 274.385 333.037 274.715 333.444 274.715Z" fill="#F2A4C8"/>
<path opacity="0.8" d="M358.682 197.947C359.71 197.947 360.543 197.114 360.543 196.086C360.543 195.058 359.71 194.225 358.682 194.225C357.654 194.225 356.821 195.058 356.821 196.086C356.821 197.114 357.654 197.947 358.682 197.947Z" fill="white"/>
<path opacity="0.8" d="M351.989 197.947C353.017 197.947 353.85 197.114 353.85 196.086C353.85 195.058 353.017 194.225 351.989 194.225C350.961 194.225 350.128 195.058 350.128 196.086C350.128 197.114 350.961 197.947 351.989 197.947Z" fill="white"/>
<path opacity="0.8" d="M345.514 197.947C346.542 197.947 347.375 197.114 347.375 196.086C347.375 195.058 346.542 194.225 345.514 194.225C344.486 194.225 343.653 195.058 343.653 196.086C343.653 197.114 344.486 197.947 345.514 197.947Z" fill="white"/>
<path d="M120.732 350.001C150.242 350.001 174.165 348.878 174.165 347.492C174.165 346.106 150.242 344.982 120.732 344.982C91.2211 344.982 67.298 346.106 67.298 347.492C67.298 348.878 91.2211 350.001 120.732 350.001Z" fill="#E6E6E5"/>
<path d="M96.05 346.036C96.05 346.036 92.786 340.779 93.8102 338.897C94.951 336.802 96.6181 345.117 96.6181 345.117C96.6181 345.117 96.1573 340.017 97.0794 340.533C98.0014 341.049 97.5406 346.037 97.5406 346.037H96.05V346.036Z" fill="#E6E6E5"/>
<path d="M150.249 346.865C150.249 346.865 153.513 341.608 152.489 339.725C151.349 337.63 149.681 345.946 149.681 345.946C149.681 345.946 150.143 340.845 149.22 341.361C148.298 341.877 148.758 346.865 148.758 346.865H150.249V346.865Z" fill="#E6E6E5"/>
<path d="M124.469 235.337C126.402 234.166 126.837 230.819 125.041 229.812C123.245 228.805 122.101 229.703 122.101 229.703C122.101 229.703 116.077 227.506 113.8 233.106C112.086 237.323 113.446 239.528 111.95 241.651C110.244 244.07 107.514 246.25 111.079 250.496L116.544 247.833L121.585 238.195L124.469 235.337Z" fill="#272737"/>
<path d="M98.4011 326.918L104.315 329.52C104.315 329.52 103.465 331.715 102.738 334.269L96.6572 332.327L98.4011 326.918Z" fill="#F29886"/>
<path d="M96.6577 332.326L102.739 334.268C101.906 337.194 101.234 340.589 102.184 341.697C103.419 343.138 104.497 344.329 104.756 345.331C104.908 345.92 104.303 346.417 103.76 346.143L95.9034 342.18C94.602 341.523 94.0402 339.964 94.6251 338.628L96.6577 332.326Z" fill="#1A1B43"/>
<path d="M102.128 336.596L102.223 336.295L96.0224 334.343L95.9277 334.644L102.128 336.596Z" fill="#676691"/>
<path d="M103.336 343.273L103.401 342.965C101.896 342.645 101.019 342.092 100.797 341.321C100.43 340.053 101.938 338.568 101.955 338.554L101.734 338.328C101.666 338.393 100.076 339.96 100.493 341.408C100.751 342.3 101.707 342.928 103.336 343.273Z" fill="#676691"/>
<path d="M121.241 332.659L128.074 333.29C128.074 333.29 127.896 335.716 128.106 338.151L121.534 338.054L121.241 332.659Z" fill="#F29886"/>
<path d="M128.105 338.15C128.291 340.305 128.781 342.468 129.966 342.962C132.488 344.013 134.486 344.748 134.276 346.221H124.576C123.118 346.221 121.915 345.08 121.835 343.624L121.533 338.054L128.105 338.15Z" fill="#1A1B43"/>
<path d="M121.755 340.058L128.063 339.953L128.058 339.638L121.75 339.744L121.755 340.058Z" fill="#676691"/>
<path d="M130.126 344.156C130.546 344.156 131.034 344.094 131.59 343.97L131.521 343.662C130.139 343.971 129.198 343.876 128.805 343.388C128.283 342.738 128.815 341.568 128.821 341.557L128.535 341.424C128.509 341.48 127.914 342.785 128.56 343.586C128.865 343.965 129.39 344.156 130.126 344.156Z" fill="#676691"/>
<path d="M121.33 334.277C121.412 334.305 121.487 334.324 121.556 334.34C122.922 334.655 127.441 334.34 127.441 334.34C127.646 334.296 127.842 334.239 128.029 334.173C132.254 332.634 131.967 325.244 131.333 318.782C130.75 312.857 136.149 287.65 129.56 268.924L120.818 270.003L120.756 271.803L120.627 275.481L120.4 281.987C120.4 281.987 119.996 288.282 119.444 296.169C118.618 307.996 117.458 323.408 116.826 326.562C115.82 331.58 119.621 333.778 121.33 334.277Z" fill="url(#paint33_linear)"/>
<path d="M97.1272 327.727C97.3638 328.001 97.6254 328.244 97.9062 328.455C99.3447 329.562 101.284 329.969 102.987 330.43C103.287 330.512 103.599 330.571 103.917 330.609C105.503 330.804 107.236 330.442 107.977 329.095C111.773 322.176 116.053 308.441 119.443 296.169C121.922 287.21 123.925 279.026 124.921 274.853C125.36 273.009 125.603 271.949 125.603 271.949L120.756 271.804L113.249 271.555C112.88 271.555 112.283 273.856 111.996 275.07C109.183 287.076 103.394 303.562 101.224 309.876C99.9216 313.657 97.9511 317.032 97.0835 320.993C96.6235 323.09 95.5507 325.907 97.1272 327.727Z" fill="url(#paint34_linear)"/>
<path opacity="0.6" d="M112.614 275.182C115.98 275.734 118.081 275.673 120.626 275.481C122.228 275.361 123.663 275.134 124.921 274.853C129.239 273.901 130.458 271.768 130.458 271.768L120.818 270.003L120.756 271.803L112.858 272.001C112.633 273.111 112.901 273.967 112.614 275.182Z" fill="#1A1B43"/>
<path d="M119.596 296.214L122.894 284.528L126.288 283.293L126.18 282.997L122.635 284.286L122.613 284.364L119.292 296.127L119.596 296.214Z" fill="white"/>
<path d="M99.3428 329.164L99.6164 329.006C98.0248 326.243 101.215 317.725 105.255 306.942C109.178 296.472 114.06 283.442 115.825 271.815L115.513 271.768C113.752 283.361 108.877 296.375 104.96 306.832C100.89 317.692 97.6776 326.271 99.3428 329.164Z" fill="white"/>
<path d="M128.116 248.027L128.365 248.395L128.629 248.777L129.16 249.543C129.518 250.054 129.883 250.56 130.252 251.062C130.619 251.565 130.989 252.063 131.366 252.553C131.741 253.043 132.12 253.529 132.504 254.001C132.889 254.473 133.278 254.935 133.67 255.378C134.061 255.821 134.459 256.245 134.853 256.629C135.243 257.012 135.642 257.364 135.972 257.601C136.133 257.719 136.279 257.804 136.333 257.836C136.346 257.844 136.35 257.848 136.347 257.851C136.342 257.852 136.329 257.852 136.301 257.849L136.276 257.847C136.271 257.847 136.27 257.847 136.261 257.846L136.221 257.842C136.168 257.839 136.116 257.836 136.064 257.84C135.962 257.842 135.867 257.857 135.787 257.877C135.708 257.897 135.647 257.919 135.599 257.942C135.554 257.963 135.522 257.983 135.504 257.997C135.467 258.026 135.477 258.032 135.505 258.018C135.568 257.987 135.7 257.877 135.838 257.727C135.977 257.579 136.128 257.391 136.278 257.186C136.428 256.98 136.579 256.757 136.728 256.521C137.026 256.049 137.313 255.535 137.588 255.005C137.862 254.473 138.131 253.924 138.388 253.364C138.902 252.243 139.387 251.086 139.846 249.913C140.08 249.328 140.304 248.737 140.523 248.144L140.846 247.254L141.006 246.81L141.159 246.375L141.173 246.332C141.505 245.386 142.542 244.889 143.487 245.222C144.353 245.526 144.843 246.42 144.665 247.293L144.564 247.795L144.461 248.283C144.39 248.607 144.317 248.93 144.241 249.253C144.091 249.898 143.934 250.542 143.767 251.185C143.43 252.47 143.06 253.753 142.626 255.036C142.408 255.679 142.179 256.322 141.921 256.968C141.663 257.613 141.383 258.262 141.054 258.92C140.89 259.25 140.711 259.583 140.512 259.919C140.312 260.257 140.09 260.599 139.824 260.953C139.555 261.306 139.247 261.673 138.81 262.052C138.588 262.243 138.334 262.436 138.013 262.619C137.853 262.71 137.674 262.799 137.478 262.878C137.278 262.956 137.062 263.027 136.825 263.078C136.586 263.129 136.331 263.16 136.067 263.165C135.934 263.166 135.802 263.162 135.667 263.149L135.568 263.139L135.493 263.129C135.444 263.123 135.394 263.116 135.349 263.108C135.161 263.077 134.993 263.037 134.831 262.993C134.674 262.949 134.524 262.902 134.389 262.851C133.84 262.648 133.418 262.418 133.035 262.188C132.655 261.956 132.318 261.722 132.002 261.485C131.685 261.247 131.391 261.01 131.108 260.768C130.545 260.285 130.028 259.795 129.531 259.299C129.034 258.805 128.56 258.305 128.101 257.798C127.182 256.786 126.318 255.754 125.482 254.708C125.066 254.182 124.658 253.654 124.256 253.12C124.054 252.852 123.854 252.584 123.655 252.314L123.359 251.904L123.056 251.476C122.08 250.095 122.406 248.186 123.786 247.209C125.167 246.232 127.077 246.559 128.054 247.94C128.062 247.952 128.071 247.965 128.08 247.977L128.116 248.027Z" fill="#F29886"/>
<path d="M135.731 257.567C135.362 258.063 135.145 258.621 135.067 259.234C135.047 259.389 135.291 259.387 135.31 259.234C135.383 258.665 135.6 258.148 135.941 257.689C136.034 257.563 135.823 257.441 135.731 257.567Z" fill="#90341E"/>
<path d="M135.416 257.972C135.13 258.097 134.845 258.222 134.56 258.346C134.417 258.409 134.541 258.619 134.683 258.556C134.969 258.432 135.254 258.307 135.539 258.183C135.682 258.121 135.558 257.91 135.416 257.972Z" fill="#90341E"/>
<path d="M145.909 244.853C145.909 244.853 145.512 247.565 144.203 248.167C143.101 248.674 141.029 247.003 141.029 247.003C140.198 246.158 140.038 245.635 139.744 244.614C139.449 243.592 140.983 242.406 140.983 242.406C140.983 242.406 142.031 238.295 142.658 237.948C143.285 237.602 142.742 241.561 142.742 241.561C142.742 241.561 142.957 241.31 143.369 241.383C143.931 241.482 145.277 242.186 145.872 242.805C146.404 243.359 145.909 244.853 145.909 244.853Z" fill="#F29886"/>
<path d="M140.358 245.046C141.112 244.678 142.105 244.284 142.582 243.549C142.761 243.273 142.881 242.839 142.6 242.584C142.354 242.359 141.958 242.421 141.655 242.429C141.498 242.434 141.498 242.677 141.655 242.673C141.909 242.665 142.378 242.58 142.509 242.874C142.609 243.097 142.393 243.421 142.249 243.582C142.127 243.719 141.979 243.836 141.831 243.944C141.338 244.302 140.781 244.569 140.235 244.834C140.093 244.904 140.217 245.114 140.358 245.046Z" fill="#90341E"/>
<path d="M142.57 243.309C143.473 244.027 144.52 244.494 145.661 244.675C145.814 244.699 145.88 244.464 145.725 244.44C144.629 244.267 143.612 243.827 142.741 243.137C142.62 243.04 142.447 243.211 142.57 243.309Z" fill="#90341E"/>
<path d="M143.424 244.465C142.82 245.271 142.677 246.22 143.011 247.169C143.063 247.315 143.299 247.252 143.246 247.103C142.932 246.21 143.067 245.346 143.634 244.589C143.728 244.463 143.516 244.341 143.424 244.465Z" fill="#90341E"/>
<path d="M143.253 243.516C143.408 242.894 143.578 242.256 143.958 241.729C144.049 241.603 143.838 241.481 143.748 241.607C143.357 242.148 143.177 242.811 143.018 243.451C142.981 243.603 143.215 243.668 143.253 243.516Z" fill="#90341E"/>
<path d="M144.162 244.107C144.294 243.46 144.541 242.841 144.866 242.268C144.943 242.13 144.733 242.008 144.656 242.144C144.322 242.735 144.063 243.376 143.927 244.041C143.895 244.195 144.13 244.26 144.162 244.107Z" fill="#90341E"/>
<path d="M145.057 244.27C145.05 244.288 145.044 244.307 145.037 244.325C145.116 244.347 145.194 244.369 145.272 244.39C145.362 243.846 145.525 243.396 145.844 242.94C145.934 242.812 145.723 242.69 145.634 242.818C145.304 243.29 145.131 243.759 145.038 244.325C145.013 244.479 145.221 244.541 145.273 244.39C145.28 244.372 145.286 244.353 145.292 244.334C145.344 244.186 145.108 244.121 145.057 244.27Z" fill="#90341E"/>
<path d="M142.555 241.656C142.434 241.97 142.355 242.298 142.348 242.635C142.344 242.792 142.588 242.792 142.591 242.635C142.597 242.319 142.677 242.015 142.789 241.721C142.846 241.575 142.61 241.511 142.555 241.656Z" fill="#90341E"/>
<path d="M130.583 271.966C129.06 272.373 127.322 272.695 125.339 272.918C125.338 272.92 125.338 272.92 125.338 272.918C125.214 272.934 125.089 272.947 124.963 272.961C121.625 273.313 117.289 273.533 112.46 273.292C112.493 272.086 112.777 270.714 112.708 269.546C112.703 269.459 112.697 269.372 112.692 269.287C112.488 266.128 112.043 263.523 112.031 263.443C112.004 263.27 111.975 263.087 111.94 262.897C111.925 262.817 111.91 262.736 111.894 262.651C111.789 262.11 111.653 261.511 111.488 260.875C111.402 260.533 111.306 260.182 111.205 259.823C111.104 259.468 110.997 259.106 110.882 258.739C110.869 258.694 110.855 258.648 110.84 258.601C110.815 258.523 110.791 258.444 110.765 258.364C110.693 258.14 110.62 257.914 110.544 257.687C110.469 257.461 110.391 257.233 110.312 257.006C110.266 256.872 110.218 256.738 110.171 256.604C110.162 256.581 110.152 256.557 110.145 256.534C110.108 256.431 110.072 256.329 110.034 256.227C110.032 256.223 110.031 256.22 110.029 256.216V256.215C109.947 255.994 109.864 255.773 109.779 255.552C109.748 255.47 109.717 255.387 109.684 255.307C109.684 255.306 109.684 255.306 109.684 255.306C109.51 254.859 109.329 254.417 109.144 253.983C107.778 250.803 107.558 247.218 110.841 246.124C111.08 246.044 111.315 245.967 111.545 245.897C111.967 245.762 112.371 245.641 112.742 245.534C112.836 245.506 112.927 245.48 113.015 245.455C113.69 245.264 114.231 245.125 114.547 245.046C114.633 245.025 114.701 245.007 114.751 244.995C114.772 244.99 114.79 244.986 114.803 244.983C114.834 244.975 114.851 244.972 114.851 244.972L121.742 245.543L122.398 245.598C122.521 245.612 122.641 245.625 122.758 245.64C122.843 245.65 122.927 245.66 123.008 245.671C123.7 245.759 124.289 245.856 124.791 245.967C125.358 246.091 125.817 246.231 126.191 246.398C126.389 246.486 126.563 246.582 126.718 246.683C126.786 246.729 126.85 246.776 126.91 246.825C127.581 247.364 127.803 248.107 128.006 249.183C128.023 249.27 128.04 249.36 128.056 249.453C128.117 249.796 128.18 250.172 128.256 250.583C128.265 250.622 128.27 250.661 128.278 250.7C128.281 250.713 128.284 250.726 128.286 250.739C128.307 250.851 128.329 250.962 128.354 251.071C128.372 251.15 128.388 251.23 128.407 251.309C128.451 251.501 128.498 251.693 128.549 251.884C128.65 252.265 128.76 252.642 128.878 253.013C128.89 253.052 128.903 253.091 128.914 253.129C128.927 253.17 128.94 253.209 128.952 253.248C129.187 253.973 129.438 254.669 129.666 255.324C129.692 255.397 129.717 255.469 129.741 255.541C129.743 255.545 129.744 255.549 129.745 255.553C129.864 255.897 129.974 256.229 130.071 256.546C130.078 256.566 130.084 256.585 130.089 256.605C130.107 256.663 130.123 256.721 130.14 256.778C130.232 257.099 130.309 257.403 130.361 257.688C130.432 258.075 130.46 258.427 130.428 258.74C130.417 258.856 130.397 258.967 130.368 259.072C130.296 259.329 130.201 259.581 130.09 259.823C130.084 259.835 130.08 259.848 130.074 259.86C130.028 259.958 129.98 260.055 129.93 260.15C129.795 260.407 129.646 260.651 129.496 260.875C129.114 261.446 128.723 261.889 128.521 262.105C128.433 262.2 128.381 262.252 128.381 262.252C128.382 262.258 128.382 262.265 128.383 262.274C128.389 262.33 128.395 262.39 128.403 262.452C128.433 262.692 128.475 262.976 128.527 263.298C128.532 263.327 128.565 263.522 128.625 263.852C128.639 263.929 128.655 264.013 128.671 264.105C128.738 264.456 128.826 264.911 128.937 265.445C128.954 265.533 128.974 265.623 128.993 265.716C129.336 267.354 129.869 269.638 130.583 271.966Z" fill="#EBEBEB"/>
<path d="M126.19 246.398C126.359 247.919 127.225 250.308 128.548 251.885C128.448 251.507 128.359 251.125 128.285 250.74C128.283 250.727 128.28 250.713 128.277 250.7C128.27 250.661 128.263 250.622 128.256 250.583C127.834 248.314 127.823 247.123 126.19 246.398Z" fill="#D9735B"/>
<path d="M115.056 250.95C114.894 253.982 112.326 257.35 110.312 257.006C110.257 256.849 110.201 256.692 110.145 256.534C110.108 256.432 110.071 256.33 110.033 256.228C109.754 255.469 109.455 254.713 109.142 253.984C107.777 250.804 107.557 247.219 110.84 246.125C111.079 246.045 111.314 245.969 111.544 245.896C113.375 246.274 115.243 247.458 115.056 250.95Z" fill="#F29886"/>
<path d="M118.384 263.204C118.413 263.255 118.466 263.284 118.523 263.284C118.549 263.284 118.577 263.277 118.601 263.263C118.627 263.248 121.214 261.79 124.373 262.407C125.979 262.72 127.343 262.689 128.402 262.452C128.394 262.389 128.387 262.329 128.381 262.273C128.381 262.265 128.379 262.258 128.379 262.251C128.379 262.251 128.432 262.2 128.519 262.105C127.484 262.368 126.097 262.418 124.435 262.095C121.156 261.455 118.552 262.924 118.443 262.988C118.366 263.031 118.34 263.128 118.384 263.204Z" fill="white"/>
<path d="M124.769 238.283C124.769 238.283 126.066 237.995 126.42 236.157C126.997 233.163 125.006 230.393 121.285 229.891C116.41 229.233 115.718 230.741 114.76 232.632C113.803 234.522 114.046 237.346 115.015 238.895C115.951 240.394 117.872 241.037 117.872 241.037L124.769 238.283Z" fill="#272737"/>
<path d="M124.899 237.58C124.899 237.58 125.508 237.67 125.579 238.456C125.651 239.242 125.182 240.52 124.403 240.314C123.624 240.108 124.899 237.58 124.899 237.58Z" fill="#D67869"/>
<path d="M124.652 241.302C125.043 241.302 125.36 240.985 125.36 240.594C125.36 240.203 125.043 239.886 124.652 239.886C124.261 239.886 123.943 240.203 123.943 240.594C123.943 240.985 124.261 241.302 124.652 241.302Z" fill="white"/>
<path d="M115.799 245.284C115.799 245.284 116.745 247.355 119.007 247.821C121.88 248.413 122.286 247.184 122.286 247.184C122.187 246.783 122.137 246.388 122.127 245.969C122.124 245.809 122.126 245.646 122.134 245.478C122.155 245.019 122.216 244.518 122.311 243.943C122.333 243.808 122.357 243.668 122.382 243.524L122.386 243.506C120.407 242.911 118.818 241.922 117.783 240.372L117.493 240.175L117.297 240.041L117.253 240.156L117.269 240.531C117.348 242.297 116.866 243.726 115.799 245.284Z" fill="#F29886"/>
<path d="M119.08 241.998C119.447 242.983 120.329 244.735 122.133 245.477C122.155 245.018 122.216 244.518 122.31 243.942C122.333 243.807 122.356 243.667 122.382 243.523C122.342 243.525 122.302 243.526 122.261 243.526C121.163 243.533 120.009 242.897 119.08 241.998Z" fill="#272737"/>
<path d="M115.029 237.002C114.895 238.086 115.649 239.527 117.062 239.742L117.069 239.743H117.07L117.1 239.748C117.115 239.813 117.133 239.877 117.154 239.943C117.162 239.971 117.171 240 117.181 240.029C117.181 240.032 117.182 240.035 117.184 240.037C117.838 241.988 120.328 243.395 121.742 243.609C122.247 243.684 122.602 243.613 122.714 243.603C124.258 243.462 124.791 241.465 124.747 239.882C124.74 239.653 124.721 239.432 124.692 239.227C124.69 239.214 124.688 239.2 124.685 239.185C124.685 239.185 125.458 237.074 125.694 236.141C126.148 234.333 125.325 232.336 121.343 231.47C117.358 230.605 116.084 232.986 115.636 234.278C115.561 234.493 115.443 235.816 115.637 236.055C115.231 236.202 115.075 236.638 115.029 237.002Z" fill="#F29886"/>
<path d="M120.782 234.031C120.782 234.031 120.786 235.181 119.738 235.72C119.73 235.724 119.746 235.715 119.738 235.72C119.133 236.03 118.655 236.331 118.833 236.987C119.066 237.849 118.801 238.392 118.303 238.383C117.417 238.367 117.455 236.37 115.638 236.056C115.638 236.056 114.594 235.158 114.802 234.014C115.009 232.869 117.773 230.509 120.758 231.057C123.744 231.606 126.234 233.41 126.082 235.536C125.931 237.662 125.527 237.193 125.527 237.193C125.527 237.193 125.574 237.071 125.487 235.34C125.409 233.786 120.591 233.01 120.782 234.031Z" fill="#272737"/>
<path d="M116.347 240.432C116.738 240.432 117.055 240.115 117.055 239.724C117.055 239.333 116.738 239.016 116.347 239.016C115.956 239.016 115.639 239.333 115.639 239.724C115.639 240.115 115.956 240.432 116.347 240.432Z" fill="white"/>
<path d="M117.062 239.742L117.069 239.743H117.07L117.1 239.749C117.115 239.814 117.133 239.877 117.154 239.944C117.162 239.972 117.171 240.002 117.181 240.03C117.181 240.033 117.182 240.035 117.183 240.038C117.348 240.032 117.558 239.997 117.758 239.889C117.874 239.825 117.988 239.737 118.085 239.612C118.136 239.548 118.125 239.455 118.06 239.405C117.996 239.354 117.903 239.365 117.853 239.43C117.744 239.568 117.604 239.647 117.466 239.692C117.373 239.722 117.281 239.736 117.201 239.74C117.149 239.743 117.101 239.743 117.062 239.742Z" fill="#90341E"/>
<path d="M114.388 256.196C114.342 256.215 114.278 256.245 114.221 256.271L114.044 256.354L113.686 256.519L112.97 256.853C112.493 257.076 112.015 257.295 111.542 257.509C110.593 257.937 109.648 258.343 108.729 258.685C108.5 258.769 108.273 258.853 108.049 258.927C107.825 259.001 107.605 259.069 107.391 259.131C107.177 259.193 106.968 259.246 106.772 259.287C106.577 259.329 106.393 259.362 106.234 259.378C106.077 259.395 105.945 259.394 105.873 259.387C105.842 259.381 105.817 259.377 105.827 259.373C105.826 259.371 105.84 259.369 105.853 259.371C105.857 259.373 105.873 259.372 105.883 259.375C105.888 259.376 105.894 259.378 105.899 259.379L105.949 259.392C106.027 259.417 106.135 259.455 106.244 259.515C106.355 259.574 106.481 259.656 106.594 259.758C106.71 259.859 106.817 259.977 106.901 260.098C106.986 260.219 107.048 260.333 107.092 260.438C107.136 260.54 107.162 260.626 107.179 260.696C107.197 260.762 107.205 260.82 107.211 260.854C107.22 260.929 107.219 260.952 107.223 260.943C107.232 260.925 107.255 260.805 107.3 260.66C107.346 260.512 107.409 260.336 107.487 260.148C107.641 259.772 107.835 259.352 108.055 258.929C108.274 258.505 108.511 258.07 108.763 257.634C109.011 257.195 109.278 256.758 109.544 256.316C110.084 255.436 110.645 254.549 111.217 253.662L112.079 252.332L112.929 251.016L112.954 250.976C113.733 249.771 113.386 248.162 112.18 247.384C111.091 246.68 109.673 246.895 108.836 247.833L108.684 248.002L108.543 248.163L108.263 248.486C108.079 248.702 107.898 248.919 107.72 249.138C107.362 249.576 107.013 250.019 106.671 250.471C105.989 251.373 105.33 252.299 104.704 253.266C104.389 253.748 104.087 254.244 103.787 254.75C103.492 255.259 103.202 255.782 102.926 256.331C102.654 256.883 102.386 257.455 102.148 258.098C102.029 258.42 101.916 258.762 101.815 259.14C101.715 259.521 101.623 259.937 101.583 260.463C101.564 260.726 101.559 261.023 101.593 261.37C101.61 261.542 101.64 261.733 101.686 261.933C101.733 262.136 101.799 262.354 101.895 262.581C101.993 262.812 102.118 263.049 102.28 263.282C102.443 263.514 102.638 263.737 102.856 263.929C103.073 264.12 103.309 264.284 103.54 264.408C103.771 264.532 104.002 264.627 104.212 264.692L104.291 264.717L104.33 264.728L104.359 264.735L104.474 264.765C104.55 264.783 104.633 264.804 104.704 264.816L104.924 264.854C104.999 264.867 105.063 264.873 105.134 264.881C105.413 264.913 105.662 264.918 105.904 264.913C106.378 264.902 106.791 264.84 107.172 264.763C107.93 264.608 108.569 264.385 109.172 264.142C109.773 263.9 110.328 263.628 110.863 263.345C111.932 262.775 112.911 262.145 113.851 261.474C114.321 261.139 114.777 260.791 115.224 260.431C115.447 260.251 115.668 260.068 115.887 259.88C115.996 259.786 116.103 259.69 116.212 259.593L116.375 259.447L116.545 259.29C117.318 258.58 117.367 257.378 116.657 256.606C116.106 256.007 115.26 255.842 114.548 256.129L114.388 256.196Z" fill="#F29886"/>
<path d="M115.765 248.334L117.715 261.672L127.979 260.172L126.03 246.834L115.765 248.334Z" fill="white"/>
<path d="M115.287 248.401L117.235 261.739L127.499 260.24L125.551 246.902L115.287 248.401Z" fill="#272737"/>
<path d="M114.293 259.212C115.079 259.83 116.216 259.641 116.86 258.877C117.199 258.473 117.609 258.062 118.015 257.836C118.991 257.295 120.295 256.927 120.711 256.514C121.324 255.905 120.392 255.867 120.277 255.878C119.532 255.95 118.523 256.227 118.523 256.227C118.523 256.227 120.175 255.294 120.917 255.213C121.66 255.131 122.024 254.565 121.288 254.245C120.55 253.924 118.518 254.573 118.002 254.906C118.002 254.906 118.873 254.068 119.875 253.923C120.877 253.78 121.217 253.595 121.54 253.342C121.863 253.089 121.293 252.494 119.899 252.731C118.505 252.967 118.03 253.408 117.483 253.827C117.483 253.827 117.769 253.346 118.397 252.676C119.025 252.006 120.196 251.932 120.358 251.407C120.524 250.871 119.178 251.015 118.472 251.427C117.765 251.838 117.217 252.078 116.58 252.908C115.945 253.737 115.366 254.552 115.106 255.141C114.844 255.729 113.64 257.699 113.848 258.603C113.901 258.834 114.071 259.037 114.293 259.212Z" fill="#F29886"/>
<path d="M114.344 256.752C114.344 256.752 114.488 254.792 114.861 254.244C115.234 253.695 115.505 252.668 115.895 252.888C116.284 253.108 115.916 254.36 115.916 254.36L114.344 256.752Z" fill="#F29886"/>
<path d="M110.355 255.369C110.408 255.403 110.479 255.392 110.517 255.341C110.537 255.316 112.462 252.815 113.231 251.635C113.267 251.579 113.251 251.504 113.195 251.467C113.139 251.431 113.063 251.446 113.027 251.503C112.263 252.674 110.345 255.168 110.325 255.192C110.284 255.246 110.294 255.322 110.347 255.363C110.35 255.365 110.352 255.367 110.355 255.369Z" fill="#90341E"/>
<path d="M112.333 252.79C112.362 252.809 112.4 252.816 112.802 252.683L113.717 252.38C113.416 252.479 113.451 252.411 113.43 252.347C113.408 252.283 113.34 252.248 113.275 252.27L112.36 252.573C112.297 252.594 112.262 252.663 112.284 252.727C112.292 252.753 112.31 252.776 112.333 252.79Z" fill="#90341E"/>
<path d="M105.977 259.712C106.019 259.739 106.075 259.738 106.117 259.707C106.749 259.227 107.965 259.149 107.977 259.149C108.044 259.145 108.096 259.087 108.092 259.02C108.087 258.954 108.03 258.902 107.963 258.907C107.91 258.909 106.661 258.99 105.97 259.513C105.916 259.553 105.906 259.63 105.947 259.683C105.955 259.695 105.966 259.704 105.977 259.712Z" fill="#90341E"/>
<path d="M106.058 258.846C106.085 258.864 106.12 258.871 106.154 258.863C106.175 258.857 106.648 258.749 107.179 259.22C107.23 259.263 107.307 259.259 107.351 259.209C107.395 259.159 107.391 259.082 107.341 259.037C106.706 258.477 106.119 258.62 106.094 258.627C106.029 258.643 105.99 258.709 106.006 258.775C106.014 258.805 106.034 258.83 106.058 258.846Z" fill="#90341E"/>
<path d="M97.6484 207.262H121.702C123.243 207.262 124.492 208.511 124.492 210.053V215.734C124.492 217.158 123.429 218.331 122.054 218.504C121.852 218.529 121.702 218.7 121.702 218.904V222.015C121.702 222.194 121.47 222.268 121.366 222.122L118.916 218.696C118.84 218.59 118.716 218.526 118.585 218.526H97.6484C96.1069 218.526 94.8568 217.277 94.8568 215.734V210.053C94.8564 208.511 96.1069 207.262 97.6484 207.262Z" fill="#AB7AB5"/>
<path d="M118.931 213.804C119.439 213.804 119.85 213.393 119.85 212.885C119.85 212.377 119.439 211.966 118.931 211.966C118.423 211.966 118.012 212.377 118.012 212.885C118.012 213.393 118.423 213.804 118.931 213.804Z" fill="white"/>
<path d="M114.303 213.804C114.81 213.804 115.222 213.393 115.222 212.885C115.222 212.377 114.81 211.966 114.303 211.966C113.795 211.966 113.383 212.377 113.383 212.885C113.383 213.393 113.795 213.804 114.303 213.804Z" fill="white"/>
<path d="M109.675 213.804C110.182 213.804 110.594 213.393 110.594 212.885C110.594 212.377 110.182 211.966 109.675 211.966C109.167 211.966 108.755 212.377 108.755 212.885C108.755 213.393 109.167 213.804 109.675 213.804Z" fill="white"/>
<path d="M105.047 213.804C105.555 213.804 105.966 213.392 105.966 212.885C105.966 212.377 105.555 211.966 105.047 211.966C104.54 211.966 104.128 212.377 104.128 212.885C104.128 213.392 104.54 213.804 105.047 213.804Z" fill="white"/>
<path d="M100.419 213.805C100.927 213.805 101.338 213.393 101.338 212.886C101.338 212.378 100.927 211.967 100.419 211.967C99.9117 211.967 99.5003 212.378 99.5003 212.886C99.5003 213.393 99.9117 213.805 100.419 213.805Z" fill="white"/>
<defs>
<linearGradient id="paint0_linear" x1="49.6983" y1="245.717" x2="68.2907" y2="245.717" gradientUnits="userSpaceOnUse">
<stop stop-color="#F2A4C8"/>
<stop offset="1" stop-color="#AB7AB5" stop-opacity="0.97"/>
</linearGradient>
<linearGradient id="paint1_linear" x1="93.6767" y1="76.4842" x2="93.6766" y2="282.58" gradientUnits="userSpaceOnUse">
<stop stop-color="#F2A4C8" stop-opacity="0"/>
<stop offset="1" stop-color="#AB7AB5" stop-opacity="0.97"/>
</linearGradient>
<linearGradient id="paint2_linear" x1="93.6767" y1="76.4839" x2="93.6766" y2="282.581" gradientUnits="userSpaceOnUse">
<stop stop-color="#F2A4C8" stop-opacity="0"/>
<stop offset="1" stop-color="#AB7AB5" stop-opacity="0.97"/>
</linearGradient>
<linearGradient id="paint3_linear" x1="142.03" y1="76.4842" x2="142.03" y2="282.58" gradientUnits="userSpaceOnUse">
<stop stop-color="#F2A4C8" stop-opacity="0"/>
<stop offset="1" stop-color="#AB7AB5" stop-opacity="0.97"/>
</linearGradient>
<linearGradient id="paint4_linear" x1="142.03" y1="76.4839" x2="142.03" y2="282.581" gradientUnits="userSpaceOnUse">
<stop stop-color="#F2A4C8" stop-opacity="0"/>
<stop offset="1" stop-color="#AB7AB5" stop-opacity="0.97"/>
</linearGradient>
<linearGradient id="paint5_linear" x1="254.057" y1="76.4842" x2="254.057" y2="282.58" gradientUnits="userSpaceOnUse">
<stop stop-color="#F2A4C8" stop-opacity="0"/>
<stop offset="1" stop-color="#AB7AB5" stop-opacity="0.97"/>
</linearGradient>
<linearGradient id="paint6_linear" x1="254.057" y1="76.4839" x2="254.057" y2="282.581" gradientUnits="userSpaceOnUse">
<stop stop-color="#F2A4C8" stop-opacity="0"/>
<stop offset="1" stop-color="#AB7AB5" stop-opacity="0.97"/>
</linearGradient>
<linearGradient id="paint7_linear" x1="302.41" y1="76.4842" x2="302.41" y2="282.58" gradientUnits="userSpaceOnUse">
<stop stop-color="#F2A4C8" stop-opacity="0"/>
<stop offset="1" stop-color="#AB7AB5" stop-opacity="0.97"/>
</linearGradient>
<linearGradient id="paint8_linear" x1="302.41" y1="76.4839" x2="302.41" y2="282.581" gradientUnits="userSpaceOnUse">
<stop stop-color="#F2A4C8" stop-opacity="0"/>
<stop offset="1" stop-color="#AB7AB5" stop-opacity="0.97"/>
</linearGradient>
<linearGradient id="paint9_linear" x1="196.443" y1="256.029" x2="196.443" y2="77.8939" gradientUnits="userSpaceOnUse">
<stop stop-color="#F2A4C8" stop-opacity="0"/>
<stop offset="1" stop-color="#AB7AB5" stop-opacity="0.97"/>
</linearGradient>
<linearGradient id="paint10_linear" x1="307.613" y1="256.029" x2="307.613" y2="77.8942" gradientUnits="userSpaceOnUse">
<stop stop-color="#F2A4C8" stop-opacity="0"/>
<stop offset="1" stop-color="#AB7AB5" stop-opacity="0.97"/>
</linearGradient>
<linearGradient id="paint11_linear" x1="54.6513" y1="319.652" x2="70.0718" y2="319.652" gradientUnits="userSpaceOnUse">
<stop stop-color="#F2A4C8"/>
<stop offset="1" stop-color="#AB7AB5" stop-opacity="0.97"/>
</linearGradient>
<linearGradient id="paint12_linear" x1="253.051" y1="310.397" x2="285.267" y2="310.397" gradientUnits="userSpaceOnUse">
<stop stop-color="#F2A4C8"/>
<stop offset="1" stop-color="#AB7AB5" stop-opacity="0.97"/>
</linearGradient>
<linearGradient id="paint13_linear" x1="109.629" y1="310.397" x2="141.845" y2="310.397" gradientUnits="userSpaceOnUse">
<stop stop-color="#F2A4C8"/>
<stop offset="1" stop-color="#AB7AB5" stop-opacity="0.97"/>
</linearGradient>
<linearGradient id="paint14_linear" x1="37.7903" y1="284.961" x2="65.6826" y2="284.961" gradientUnits="userSpaceOnUse">
<stop stop-color="#F2A4C8"/>
<stop offset="1" stop-color="#AB7AB5" stop-opacity="0.97"/>
</linearGradient>
<linearGradient id="paint15_linear" x1="39.4172" y1="302.441" x2="69.772" y2="302.441" gradientUnits="userSpaceOnUse">
<stop stop-color="#F2A4C8"/>
<stop offset="1" stop-color="#AB7AB5" stop-opacity="0.97"/>
</linearGradient>
<linearGradient id="paint16_linear" x1="19.2655" y1="284.961" x2="47.1574" y2="284.961" gradientUnits="userSpaceOnUse">
<stop stop-color="#F2A4C8"/>
<stop offset="1" stop-color="#AB7AB5" stop-opacity="0.97"/>
</linearGradient>
<linearGradient id="paint17_linear" x1="204.39" y1="327.001" x2="204.39" y2="318.567" gradientUnits="userSpaceOnUse">
<stop stop-color="#F2A4C8"/>
<stop offset="1" stop-color="#AB7AB5" stop-opacity="0.97"/>
</linearGradient>
<linearGradient id="paint18_linear" x1="204.096" y1="174.519" x2="204.096" y2="256.84" gradientUnits="userSpaceOnUse">
<stop stop-color="#F2A4C8" stop-opacity="0"/>
<stop offset="1" stop-color="#AB7AB5" stop-opacity="0.97"/>
</linearGradient>
<linearGradient id="paint19_linear" x1="202.262" y1="232.968" x2="202.262" y2="199.349" gradientUnits="userSpaceOnUse">
<stop stop-color="#F2A4C8" stop-opacity="0"/>
<stop offset="1" stop-color="#AB7AB5" stop-opacity="0.97"/>
</linearGradient>
<linearGradient id="paint20_linear" x1="211.083" y1="232.968" x2="211.083" y2="199.349" gradientUnits="userSpaceOnUse">
<stop stop-color="#F2A4C8" stop-opacity="0"/>
<stop offset="1" stop-color="#AB7AB5" stop-opacity="0.97"/>
</linearGradient>
<linearGradient id="paint21_linear" x1="248.011" y1="232.968" x2="248.011" y2="199.349" gradientUnits="userSpaceOnUse">
<stop stop-color="#F2A4C8" stop-opacity="0"/>
<stop offset="1" stop-color="#AB7AB5" stop-opacity="0.97"/>
</linearGradient>
<linearGradient id="paint22_linear" x1="248.011" y1="232.968" x2="248.011" y2="199.349" gradientUnits="userSpaceOnUse">
<stop stop-color="#F2A4C8" stop-opacity="0"/>
<stop offset="1" stop-color="#AB7AB5" stop-opacity="0.97"/>
</linearGradient>
<linearGradient id="paint23_linear" x1="248.011" y1="232.967" x2="248.011" y2="199.348" gradientUnits="userSpaceOnUse">
<stop stop-color="#F2A4C8" stop-opacity="0"/>
<stop offset="1" stop-color="#AB7AB5" stop-opacity="0.97"/>
</linearGradient>
<linearGradient id="paint24_linear" x1="248.011" y1="232.967" x2="248.011" y2="199.348" gradientUnits="userSpaceOnUse">
<stop stop-color="#F2A4C8" stop-opacity="0"/>
<stop offset="1" stop-color="#AB7AB5" stop-opacity="0.97"/>
</linearGradient>
<linearGradient id="paint25_linear" x1="248.011" y1="236.149" x2="248.011" y2="226.769" gradientUnits="userSpaceOnUse">
<stop stop-color="#F2A4C8" stop-opacity="0"/>
<stop offset="1" stop-color="#AB7AB5" stop-opacity="0.97"/>
</linearGradient>
<linearGradient id="paint26_linear" x1="248.011" y1="236.147" x2="248.011" y2="226.767" gradientUnits="userSpaceOnUse">
<stop stop-color="#F2A4C8" stop-opacity="0"/>
<stop offset="1" stop-color="#AB7AB5" stop-opacity="0.97"/>
</linearGradient>
<linearGradient id="paint27_linear" x1="352.706" y1="250.48" x2="314.403" y2="207.538" gradientUnits="userSpaceOnUse">
<stop stop-color="#F2A4C8" stop-opacity="0"/>
<stop offset="0.2241" stop-color="#D995C1" stop-opacity="0.2174"/>
<stop offset="0.5428" stop-color="#C086BB" stop-opacity="0.5265"/>
<stop offset="0.8129" stop-color="#B17DB7" stop-opacity="0.7885"/>
<stop offset="1" stop-color="#AB7AB5" stop-opacity="0.97"/>
</linearGradient>
<linearGradient id="paint28_linear" x1="332.707" y1="258.699" x2="332.707" y2="251.624" gradientUnits="userSpaceOnUse">
<stop stop-color="#F2A4C8"/>
<stop offset="1" stop-color="#AB7AB5" stop-opacity="0.97"/>
</linearGradient>
<linearGradient id="paint29_linear" x1="314.684" y1="210.379" x2="364.649" y2="254.115" gradientUnits="userSpaceOnUse">
<stop stop-color="#F2A4C8" stop-opacity="0"/>
<stop offset="0.2241" stop-color="#D995C1" stop-opacity="0.2174"/>
<stop offset="0.5428" stop-color="#C086BB" stop-opacity="0.5265"/>
<stop offset="0.8129" stop-color="#B17DB7" stop-opacity="0.7885"/>
<stop offset="1" stop-color="#AB7AB5" stop-opacity="0.97"/>
</linearGradient>
<linearGradient id="paint30_linear" x1="356.924" y1="271.805" x2="347.231" y2="260.605" gradientUnits="userSpaceOnUse">
<stop stop-color="#F2A4C8" stop-opacity="0"/>
<stop offset="0.2241" stop-color="#D995C1" stop-opacity="0.2174"/>
<stop offset="0.5428" stop-color="#C086BB" stop-opacity="0.5265"/>
<stop offset="0.8129" stop-color="#B17DB7" stop-opacity="0.7885"/>
<stop offset="1" stop-color="#AB7AB5" stop-opacity="0.97"/>
</linearGradient>
<linearGradient id="paint31_linear" x1="355.318" y1="284.983" x2="348.641" y2="275.506" gradientUnits="userSpaceOnUse">
<stop stop-color="#F2A4C8" stop-opacity="0"/>
<stop offset="0.2241" stop-color="#D995C1" stop-opacity="0.2174"/>
<stop offset="0.5428" stop-color="#C086BB" stop-opacity="0.5265"/>
<stop offset="0.8129" stop-color="#B17DB7" stop-opacity="0.7885"/>
<stop offset="1" stop-color="#AB7AB5" stop-opacity="0.97"/>
</linearGradient>
<linearGradient id="paint32_linear" x1="356.527" y1="298.33" x2="349.203" y2="291.868" gradientUnits="userSpaceOnUse">
<stop stop-color="#F2A4C8" stop-opacity="0"/>
<stop offset="0.2241" stop-color="#D995C1" stop-opacity="0.2174"/>
<stop offset="0.5428" stop-color="#C086BB" stop-opacity="0.5265"/>
<stop offset="0.8129" stop-color="#B17DB7" stop-opacity="0.7885"/>
<stop offset="1" stop-color="#AB7AB5" stop-opacity="0.97"/>
</linearGradient>
<linearGradient id="paint33_linear" x1="128.807" y1="289.257" x2="117.601" y2="332.212" gradientUnits="userSpaceOnUse">
<stop stop-color="#F2A4C8"/>
<stop offset="1" stop-color="#AB7AB5" stop-opacity="0.97"/>
</linearGradient>
<linearGradient id="paint34_linear" x1="114.314" y1="285.476" x2="103.108" y2="328.431" gradientUnits="userSpaceOnUse">
<stop stop-color="#F2A4C8"/>
<stop offset="1" stop-color="#AB7AB5" stop-opacity="0.97"/>
</linearGradient>
</defs>
</svg>
