<svg width="30" height="30" viewBox="0 0 30 30" fill="none" xmlns="http://www.w3.org/2000/svg">
<path opacity="0.8" d="M7.05814 23.907C6.71465 23.9681 6.36105 24 6 24C2.68629 24 0 21.3137 0 18C0 14.903 2.34649 12.354 5.35862 12.0339C6.7807 8.48957 9.84502 5.78119 13.61 4.85029C14.1464 2.08658 16.5795 0 19.5 0C22.8137 0 25.5 2.68629 25.5 6C25.5 6.75343 25.3611 7.47443 25.1076 8.1388C27.2072 10.2999 28.5 13.249 28.5 16.5C28.5 17.5764 28.3583 18.6197 28.0925 19.6123C29.2662 20.7075 30 22.268 30 24C30 27.3137 27.3137 30 24 30C22.268 30 20.7075 29.2662 19.6123 28.0925C18.6197 28.3583 17.5764 28.5 16.5 28.5C12.6678 28.5 9.25511 26.7036 7.05814 23.907ZM9.86942 22.5858C11.5145 24.3772 13.8761 25.5 16.5 25.5C17.0644 25.5 17.6166 25.4481 18.1522 25.3487C18.0526 24.9152 18 24.4637 18 24C18 20.6863 20.6863 18 24 18C24.4637 18 24.9152 18.0526 25.3487 18.1522C25.4481 17.6166 25.5 17.0644 25.5 16.5C25.5 14.2558 24.6786 12.2034 23.32 10.6271C22.2823 11.4847 20.9513 12 19.5 12C16.8536 12 14.6074 10.2867 13.81 7.90888C11.4516 8.64657 9.51048 10.3286 8.42946 12.5122C10.5328 13.4448 12 15.551 12 18C12 19.8392 11.1725 21.4851 9.86942 22.5858ZM19.5 9C21.1569 9 22.5 7.65685 22.5 6C22.5 4.34315 21.1569 3 19.5 3C17.8431 3 16.5 4.34315 16.5 6C16.5 7.65685 17.8431 9 19.5 9ZM24 27C25.6569 27 27 25.6569 27 24C27 22.3431 25.6569 21 24 21C22.3431 21 21 22.3431 21 24C21 25.6569 22.3431 27 24 27ZM6 21C7.65685 21 9 19.6569 9 18C9 16.3431 7.65685 15 6 15C4.34315 15 3 16.3431 3 18C3 19.6569 4.34315 21 6 21Z" fill="url(#paint0_linear)"/>
<defs>
<linearGradient id="paint0_linear" x1="0" y1="29.6464" x2="29.2928" y2="29.6464" gradientUnits="userSpaceOnUse">
<stop stop-color="#FDA3D6"/>
<stop offset="1" stop-color="#AB7AB6"/>
</linearGradient>
</defs>
</svg>
