<svg width="20" height="21" viewBox="0 0 20 21" fill="none" xmlns="http://www.w3.org/2000/svg">
<path d="M13.9459 10.1542C16.6366 10.1542 18.8228 7.96799 18.8228 5.27729C18.8228 2.58659 16.6366 0.400391 13.9459 0.400391C11.2552 0.400391 9.06903 2.58659 9.06903 5.27729C9.09005 7.98901 11.2552 10.1542 13.9459 10.1542ZM11.7597 4.33134L12.9369 4.20521C13.021 4.20521 13.0841 4.14215 13.1261 4.07908L13.6096 3.00701C13.7357 2.71271 14.1561 2.71271 14.2823 3.00701L14.7658 4.07908C14.8078 4.14215 14.8709 4.20521 14.9549 4.20521L16.1321 4.33134C16.4474 4.37338 16.5736 4.75176 16.3423 4.96197L15.4594 5.76077C15.3964 5.82384 15.3754 5.8869 15.3964 5.97098L15.6276 7.12715C15.6907 7.44246 15.3543 7.67369 15.0811 7.52655L14.051 6.93796C13.988 6.89591 13.9039 6.89591 13.8198 6.93796L12.7898 7.52655C12.5165 7.67369 12.1802 7.44246 12.2432 7.12715L12.4745 5.97098C12.4955 5.8869 12.4745 5.80282 12.4114 5.76077L11.5285 4.96197C11.3183 4.75176 11.4444 4.37338 11.7597 4.33134Z" fill="#A3A2A2"/>
<path d="M0.11403 16.776C-0.0541389 16.9652 -0.0331178 17.2805 0.156072 17.4487L3.45639 20.2865C3.64558 20.4547 3.96089 20.4337 4.12906 20.2445L5.6636 18.4787L1.66959 15.0312L0.11403 16.776Z" fill="#A3A2A2"/>
<path d="M19.7057 12.1088C19.4534 11.8145 19.075 11.6884 18.6967 11.7725L15.5015 12.5502C15.5015 12.6133 15.5015 12.6974 15.4804 12.7605C15.3753 13.6644 14.6816 14.4001 13.7777 14.5262L13.5675 14.5472C12.3903 14.7154 11.1921 14.7785 10.0149 14.7575L9.04798 14.7364C8.73266 14.7364 8.48041 14.4632 8.48041 14.1478C8.48041 13.8325 8.75368 13.5803 9.069 13.5803L10.036 13.6013C11.1501 13.6433 12.2852 13.5593 13.3783 13.4121L13.5885 13.3911C13.9669 13.328 14.2822 13.0337 14.3243 12.6343C14.3453 12.4031 14.2822 12.1719 14.1351 12.0037C13.9879 11.8145 13.7777 11.7094 13.5465 11.6884L8.50143 11.1628C7.95488 11.0998 7.38731 11.2469 6.90382 11.5412L2.53143 14.295L6.63055 17.8265L10.8558 18.5202C11.5915 18.6464 12.3273 18.4782 12.9369 18.0578L19.4955 13.6013C19.7267 13.4331 19.8949 13.2019 19.9159 12.9076C19.979 12.6133 19.8949 12.319 19.7057 12.1088Z" fill="#A3A2A2"/>
</svg>
