<svg width="37" height="30" viewBox="0 0 37 30" fill="none" xmlns="http://www.w3.org/2000/svg">
<path opacity="0.8" d="M36.75 10.5C36.75 9.2625 35.7375 8.25 34.5 8.25H32.112L30.1436 2.90738C29.8583 2.13338 28.9909 1.269 28.2154 0.987C28.2154 0.987375 25.5 0 18.375 0C11.25 0 8.53463 0.987375 8.53463 0.987375C7.75913 1.26938 6.89175 2.13337 6.60638 2.90775L4.638 8.25H2.25C1.0125 8.25 0 9.2625 0 10.5C0 11.7375 1.0125 12.75 2.25 12.75H2.98012L2.39363 14.3426C2.10825 15.1166 1.875 16.425 1.875 17.25V27C1.875 28.65 3.225 30 4.875 30C6.525 30 7.875 28.65 7.875 27V25.5H28.875V27C28.875 28.65 30.225 30 31.875 30C33.525 30 34.875 28.65 34.875 27V17.25C34.875 16.425 34.6418 15.1166 34.3564 14.3426L33.7699 12.75H34.5C35.7375 12.75 36.75 11.7375 36.75 10.5ZM9.75 3.75H27L29.25 10.5H7.5L9.75 3.75ZM7.125 19.5C5.88263 19.5 4.875 18.492 4.875 17.25C4.875 16.008 5.88263 15 7.125 15C8.36738 15 9.375 16.008 9.375 17.25C9.375 18.492 8.36738 19.5 7.125 19.5ZM29.625 19.5C28.3822 19.5 27.375 18.4928 27.375 17.25C27.375 16.0072 28.3822 15 29.625 15C30.8678 15 31.875 16.0072 31.875 17.25C31.875 18.4928 30.8678 19.5 29.625 19.5Z" fill="url(#paint0_linear)"/>
<defs>
<linearGradient id="paint0_linear" x1="0" y1="29.6464" x2="35.8837" y2="29.6464" gradientUnits="userSpaceOnUse">
<stop stop-color="#FDA3D6"/>
<stop offset="1" stop-color="#AB7AB6"/>
</linearGradient>
</defs>
</svg>
