<svg width="34" height="30" viewBox="0 0 34 30" fill="none" xmlns="http://www.w3.org/2000/svg">
<path opacity="0.8" d="M33.6808 9.85535C33.6005 7.23895 32.4609 4.78307 30.4865 2.93715C26.8107 -0.497874 21.0322 -0.931265 16.8428 1.73329C12.6373 -0.947317 6.87476 -0.497874 3.19896 2.93715C1.22463 4.78307 0.0849688 7.23895 0.00471124 9.85535C-0.0755463 12.4717 0.871494 14.9758 2.70137 16.918C2.87793 17.1106 3.03845 17.2712 3.19896 17.4156L15.3018 28.6998C15.4623 28.8443 15.6228 28.9888 15.8315 29.1653L16.8428 30L17.854 29.1653C18.0627 28.9888 18.2232 28.8443 18.3837 28.6998L30.4705 17.4156C30.631 17.2712 30.7915 17.1106 30.9681 16.918C32.798 14.9758 33.7611 12.4557 33.6808 9.85535Z" fill="url(#paint0_linear)"/>
<path d="M19.53 14.1225C19.134 14.1225 18.81 14.4465 18.81 14.8425V18.0825H15.21V14.8425C15.21 14.4465 14.886 14.1225 14.49 14.1225H11.25V10.5225H14.49C14.886 10.5225 15.21 10.1985 15.21 9.8025V6.5625H18.81V9.8025C18.81 10.1985 19.134 10.5225 19.53 10.5225H22.77V14.1225H19.53Z" fill="#F5E8F3"/>
<defs>
<linearGradient id="paint0_linear" x1="0" y1="29.6464" x2="32.8914" y2="29.6464" gradientUnits="userSpaceOnUse">
<stop stop-color="#FDA3D6"/>
<stop offset="1" stop-color="#AB7AB6"/>
</linearGradient>
</defs>
</svg>
