<svg width="30" height="30" viewBox="0 0 30 30" fill="none" xmlns="http://www.w3.org/2000/svg">
<path opacity="0.8" d="M27.9849 16.0457H25.8328V28.6463C25.8328 29.4099 25.208 30 24.479 30H18.8556C18.092 30 17.5019 29.3752 17.5019 28.6463V21.3567C17.5019 21.0443 17.2589 20.8013 16.9465 20.8013H12.3992C12.0867 20.8013 11.8438 21.0443 11.8438 21.3567V28.6463C11.8438 29.4099 11.2189 30 10.49 30H4.86662C4.10295 30 3.51283 29.3752 3.51283 28.6463V16.0457H1.36067C0.145745 16.0457 -0.444358 14.5878 0.388735 13.72L13.7182 0.390512C14.2389 -0.130171 15.1067 -0.130171 15.6621 0.390512L28.9916 13.72C29.79 14.5878 29.1652 16.0457 27.9849 16.0457Z" fill="url(#paint0_linear)"/>
<defs>
<linearGradient id="paint0_linear" x1="0" y1="29.6464" x2="28.6578" y2="29.6464" gradientUnits="userSpaceOnUse">
<stop stop-color="#FDA3D6"/>
<stop offset="1" stop-color="#AB7AB6"/>
</linearGradient>
</defs>
</svg>
