<svg width="25" height="30" viewBox="0 0 25 30" fill="none" xmlns="http://www.w3.org/2000/svg">
<path opacity="0.8" d="M17.6875 0H2.0625C0.9375 0 0 0.9375 0 2.0625V27.9375C0 29.0625 0.9375 30 2.0625 30H22.5C23.625 30 24.5625 29.0625 24.5625 27.9375V7.5C24.5625 7.4375 24.5625 7.375 24.5625 7.25H17.9375C17.5625 7.25 17.25 6.9375 17.3125 6.5625L17.9375 0C17.875 0 17.75 0 17.6875 0ZM4.1875 26.25C3.375 26.25 2.75 25.625 2.75 24.8125C2.75 24 3.375 23.375 4.1875 23.375C5 23.375 5.625 24 5.625 24.8125C5.625 25.625 5 26.25 4.1875 26.25ZM4.1875 21C3.375 21 2.75 20.375 2.75 19.5625C2.75 18.75 3.375 18.125 4.1875 18.125C5 18.125 5.625 18.8125 5.625 19.5625C5.625 20.375 5 21 4.1875 21ZM4.1875 15.75C3.375 15.75 2.75 15.125 2.75 14.3125C2.75 13.5 3.375 12.875 4.1875 12.875C5 12.875 5.625 13.5 5.625 14.3125C5.625 15.125 5 15.75 4.1875 15.75ZM21.0625 25.5H7.9375C7.5625 25.5 7.25 25.1875 7.25 24.8125C7.25 24.4375 7.5625 24.125 7.9375 24.125H21.0625C21.4375 24.125 21.75 24.4375 21.75 24.8125C21.75 25.1875 21.4375 25.5 21.0625 25.5ZM21.0625 20.25H7.9375C7.5625 20.25 7.25 19.9375 7.25 19.5625C7.25 19.1875 7.5625 18.875 7.9375 18.875H21.0625C21.4375 18.875 21.75 19.1875 21.75 19.5625C21.75 19.9375 21.5 20.25 21.0625 20.25ZM21.0625 13.625C21.4375 13.625 21.75 13.9375 21.75 14.3125C21.75 14.6875 21.4375 15 21.0625 15H7.9375C7.5625 15 7.25 14.6875 7.25 14.3125C7.25 13.9375 7.5625 13.625 7.9375 13.625H21.0625Z" fill="url(#paint0_linear)"/>
<path opacity="0.8" d="M18.6252 6.00781H23.5627L19.1252 1.13281L18.6252 6.00781Z" fill="url(#paint1_linear)"/>
<circle cx="6.66679" cy="5.83073" r="4.16667" fill="#F3E7F2"/>
<defs>
<linearGradient id="paint0_linear" x1="0" y1="29.6464" x2="23.9835" y2="29.6464" gradientUnits="userSpaceOnUse">
<stop stop-color="#FDA3D6"/>
<stop offset="1" stop-color="#AB7AB6"/>
</linearGradient>
<linearGradient id="paint1_linear" x1="18.6252" y1="5.95036" x2="23.4464" y2="5.95036" gradientUnits="userSpaceOnUse">
<stop stop-color="#FDA3D6"/>
<stop offset="1" stop-color="#AB7AB6"/>
</linearGradient>
</defs>
</svg>
