<?xml version="1.0" encoding="utf-8"?>
<!-- Generator: Adobe Illustrator 16.0.0, SVG Export Plug-In . SVG Version: 6.00 Build 0)  -->
<!DOCTYPE svg PUBLIC "-//W3C//DTD SVG 1.1//EN" "http://www.w3.org/Graphics/SVG/1.1/DTD/svg11.dtd">
<svg version="1.1" xmlns="http://www.w3.org/2000/svg" xmlns:xlink="http://www.w3.org/1999/xlink" x="0px" y="0px"
	 width="1093.813px" height="1000px" viewBox="0 0 1093.813 1000" enable-background="new 0 0 1093.813 1000" xml:space="preserve">
<g id="Layer_2">
</g>
<g id="Layer_1">
	<g>
		<g>
			<rect x="89.798" y="206.353" fill="#F5F5F5" width="272.566" height="531.774"/>
			<rect x="374.094" y="206.353" fill="#F5F5F5" width="272.568" height="531.774"/>
			<rect x="659.564" y="206.353" fill="#F5F5F5" width="272.57" height="531.774"/>
			<polygon fill="#EBEBEB" points="221.344,738.127 150.246,738.127 150.246,420.41 221.344,397.174 			"/>
			<polygon fill="#E6E6E6" points="280.695,738.127 209.594,738.127 209.594,496.522 280.695,473.284 			"/>
			<polygon fill="#E6E6E6" points="272.21,489.766 255.245,489.766 255.245,432.111 272.21,426.565 			"/>
			<g>
				<g>
					<path fill="#E6E6E6" d="M565.593,385.184l-26.102-1.117l1.098,37.702l-104.348-0.816v5.591l11.803,3.353l-0.459,102.837
						l0.102,44.41l-27.883,1.305v-73.502l-21.015-47.386h-47.116l-2.482-55.826l-26.058-2.701l-0.833,58.527h-31.01
						c0.236,0,0,280.038,0,280.038h119.039l37.715,0.041v0.021l4.089-0.014l9.836,0.014v-0.041l114.97-0.332l-6.807-306.274
						l9.072-2.235v-6.707l-14.65-0.115L565.593,385.184z"/>
					<polygon fill="#E6E6E6" points="805.658,427.66 805.658,417.601 744.737,417.601 716.956,417.601 690.869,417.601 
						690.869,425.425 703.392,426.543 704.059,505.506 616.166,503.547 617.819,737.688 805.994,737.688 					"/>
				</g>
			</g>
			<polygon fill="#EBEBEB" points="872.784,738.127 814.933,738.127 814.933,355.809 872.784,332.57 			"/>
			<polygon fill="#E6E6E6" points="932.135,738.127 861.03,738.127 861.03,496.522 932.135,473.284 			"/>
			<polygon fill="#E6E6E6" points="923.649,489.766 915.167,489.766 915.167,432.111 923.649,426.565 			"/>
			<polygon fill="#E6E6E6" points="895.915,503.631 887.43,503.631 887.43,445.979 895.915,440.436 			"/>
			<path fill="#EBEBEB" d="M164.812,580.277h-32.396c-11.651,0-21.092,9.441-21.092,21.088v136.762h53.488V580.277z"/>
		</g>
		<g>
			<polygon opacity="0.5" fill="#FFFFFF" points="238.662,738.123 165.411,738.123 316.38,206.353 389.634,206.353 			"/>
			<polygon opacity="0.5" fill="#FFFFFF" points="458.223,738.123 384.97,738.123 535.941,206.353 609.194,206.353 			"/>
			<polygon opacity="0.5" fill="#FFFFFF" points="549.912,738.123 476.66,738.123 627.635,206.353 700.884,206.353 			"/>
			<polygon opacity="0.5" fill="#FFFFFF" points="726.229,738.123 689.602,738.123 840.573,206.353 877.201,206.353 			"/>
		</g>
	</g>
	<g>
		<g>
			<path fill="#AB7AB5" d="M849.856,464.865h-6c-0.828,0-1.5-0.671-1.5-1.5s0.672-1.5,1.5-1.5h6c0.828,0,1.5,0.671,1.5,1.5
				S850.685,464.865,849.856,464.865z"/>
		</g>
		<g>
			<path fill="#AB7AB5" d="M931.078,464.865h-13.537c-0.828,0-1.5-0.671-1.5-1.5s0.672-1.5,1.5-1.5h13.537
				c0.828,0,1.5,0.671,1.5,1.5S931.906,464.865,931.078,464.865z M904.005,464.865h-13.537c-0.828,0-1.5-0.671-1.5-1.5
				s0.672-1.5,1.5-1.5h13.537c0.828,0,1.5,0.671,1.5,1.5S904.833,464.865,904.005,464.865z M876.931,464.865h-13.537
				c-0.828,0-1.5-0.671-1.5-1.5s0.672-1.5,1.5-1.5h13.537c0.828,0,1.5,0.671,1.5,1.5S877.759,464.865,876.931,464.865z"/>
		</g>
		<g>
			<path fill="#AB7AB5" d="M950.615,470.865c-0.828,0-1.5-0.671-1.5-1.5v-4.5h-4.5c-0.828,0-1.5-0.671-1.5-1.5s0.672-1.5,1.5-1.5h6
				c0.828,0,1.5,0.671,1.5,1.5v6C952.115,470.194,951.443,470.865,950.615,470.865z"/>
		</g>
		<g>
			<path fill="#AB7AB5" d="M950.615,593.673c-0.828,0-1.5-0.672-1.5-1.5v-12.28c0-0.828,0.672-1.5,1.5-1.5s1.5,0.672,1.5,1.5v12.28
				C952.115,593.001,951.443,593.673,950.615,593.673z M950.615,569.111c-0.828,0-1.5-0.672-1.5-1.5v-12.28
				c0-0.828,0.672-1.5,1.5-1.5s1.5,0.672,1.5,1.5v12.28C952.115,568.439,951.443,569.111,950.615,569.111z M950.615,544.55
				c-0.828,0-1.5-0.672-1.5-1.5v-12.28c0-0.828,0.672-1.5,1.5-1.5s1.5,0.672,1.5,1.5v12.28
				C952.115,543.878,951.443,544.55,950.615,544.55z M950.615,519.988c-0.828,0-1.5-0.672-1.5-1.5v-12.28c0-0.828,0.672-1.5,1.5-1.5
				s1.5,0.672,1.5,1.5v12.28C952.115,519.316,951.443,519.988,950.615,519.988z M950.615,495.427c-0.828,0-1.5-0.671-1.5-1.5
				v-12.281c0-0.829,0.672-1.5,1.5-1.5s1.5,0.671,1.5,1.5v12.281C952.115,494.755,951.443,495.427,950.615,495.427z"/>
		</g>
		<g>
			<path fill="#AB7AB5" d="M950.615,611.954h-6c-0.828,0-1.5-0.672-1.5-1.5s0.672-1.5,1.5-1.5h4.5v-4.5c0-0.828,0.672-1.5,1.5-1.5
				s1.5,0.672,1.5,1.5v6C952.115,611.282,951.443,611.954,950.615,611.954z"/>
		</g>
		<g>
			<path fill="#AB7AB5" d="M933.835,611.954h-10.78c-0.828,0-1.5-0.672-1.5-1.5s0.672-1.5,1.5-1.5h10.78c0.828,0,1.5,0.672,1.5,1.5
				S934.663,611.954,933.835,611.954z M912.273,611.954h-10.78c-0.828,0-1.5-0.672-1.5-1.5s0.672-1.5,1.5-1.5h10.78
				c0.828,0,1.5,0.672,1.5,1.5S913.102,611.954,912.273,611.954z M890.712,611.954h-10.78c-0.828,0-1.5-0.672-1.5-1.5
				s0.672-1.5,1.5-1.5h10.78c0.828,0,1.5,0.672,1.5,1.5S891.54,611.954,890.712,611.954z M869.15,611.954h-10.78
				c-0.828,0-1.5-0.672-1.5-1.5s0.672-1.5,1.5-1.5h10.78c0.828,0,1.5,0.672,1.5,1.5S869.979,611.954,869.15,611.954z"/>
		</g>
		<g>
			<path fill="#AB7AB5" d="M847.589,611.954h-6c-0.828,0-1.5-0.672-1.5-1.5s0.672-1.5,1.5-1.5h6c0.828,0,1.5,0.672,1.5,1.5
				S848.417,611.954,847.589,611.954z"/>
		</g>
	</g>
	<g>
		<g>
			<g>
				<ellipse fill="#E6E6E5" cx="587.21" cy="854.91" rx="443.769" ry="7.42"/>
			</g>
			<g>
				<path fill="#E6E6E5" d="M382.229,850.609c0,0-27.109-15.545-18.603-21.109c9.473-6.197,23.32,18.391,23.32,18.391
					s-3.831-15.08,3.83-13.557c7.661,1.527,3.831,16.275,3.831,16.275H382.229z"/>
			</g>
			<g>
				<path fill="#E6E6E5" d="M832.355,853.057c0,0,27.11-15.541,18.603-21.109c-9.474-6.195-23.322,18.395-23.322,18.395
					s3.831-15.084-3.829-13.559c-7.663,1.525-3.832,16.273-3.832,16.273H832.355z"/>
			</g>
		</g>
	</g>
	<g>
		<g>
			<g>
				<g>
					<g>
						<g>
							<g>
								<path fill="#F3F3F3" d="M872.941,732.512H316.993c-5.442,0-9.854-4.412-9.854-9.852v-361c0-5.441,4.411-9.852,9.854-9.852
									h555.949c5.441,0,9.853,4.41,9.853,9.852v361C882.794,728.1,878.383,732.512,872.941,732.512z"/>
							</g>
						</g>
						<g>
							<g>
								<path fill="#AB7AB5" d="M308.742,721.584V362.736c0-4.988,4.043-9.031,9.031-9.031l554.387,0
									c4.989,0,9.031,4.043,9.031,9.031v358.848c0,4.99-4.042,9.031-9.031,9.031H317.773
									C312.785,730.615,308.742,726.574,308.742,721.584z"/>
							</g>
						</g>
						<g>
							<g>
								<rect x="321.4" y="376.961" fill="#F3F3F3" width="547.134" height="330.4"/>
							</g>
						</g>
					</g>
				</g>
				<g>
					<g>
						<g>
							<path fill="#F3F3F3" d="M971.084,834.672H212.249c-14.995,0-23.636-3.17-19.381-7.01l106.946-96.469
								c2.237-2.018,12.632-3.633,23.249-3.633h537.208c10.616,0,21.01,1.615,23.248,3.633l106.946,96.469
								C994.722,831.502,986.08,834.672,971.084,834.672z"/>
						</g>
					</g>
					<g>
						<g>
							<path fill="#DFDFDE" d="M912.314,790.125H277.618c-4.388,0-7.116-0.82-6.1-1.826l53.645-53.082
								c0.704-0.693,4.206-1.256,7.828-1.256h523.953c3.62,0,7.124,0.563,7.828,1.256l53.645,53.082
								C919.431,789.305,916.703,790.125,912.314,790.125z"/>
						</g>
					</g>
					<g>
						<g>
							<path fill="#DFDFDE" d="M690,829.133H499.933c-4.92,0-8.611-1.029-8.246-2.291l8.43-29.271
								c0.305-1.055,4.167-1.908,8.629-1.908h172.442c4.463,0,8.326,0.854,8.63,1.908l8.431,29.271
								C698.611,828.104,694.922,829.133,690,829.133z"/>
						</g>
					</g>
					<g>
						<g>
							<g>
								<path fill="#4E4E4E" d="M343.461,763.898h-32.476c-2.015,0-4.048,0.412-4.543,0.92l-7.27,7.475
									c-0.522,0.537,0.738,0.973,2.816,0.973h33.506h33.505c2.079,0,4.081-0.436,4.472-0.973l5.444-7.475
									c0.372-0.508-0.963-0.92-2.978-0.92H343.461z"/>
							</g>
						</g>
						<g>
							<g>
								<path fill="#4E4E4E" d="M417.169,773.266h-29.743c-2.078,0-3.508-0.369-3.194-0.822l5.38-7.768
									c0.298-0.43,2.171-0.777,4.186-0.777h28.829c2.014,0,3.449,0.348,3.206,0.777l-4.433,7.768
									C421.142,772.896,419.247,773.266,417.169,773.266z"/>
							</g>
						</g>
						<g>
							<g>
								<path fill="#4E4E4E" d="M465.335,773.266h-29.741c-2.078,0-3.565-0.369-3.325-0.822l4.154-7.768
									c0.23-0.43,2.05-0.777,4.064-0.777h28.828c2.016,0,3.506,0.348,3.328,0.777l-3.205,7.768
									C469.251,772.896,467.413,773.266,465.335,773.266z"/>
							</g>
						</g>
						<g>
							<g>
								<path fill="#4E4E4E" d="M513.502,773.266h-29.741c-2.078,0-3.624-0.369-3.453-0.822l2.927-7.768
									c0.161-0.43,1.925-0.777,3.94-0.777h28.83c2.014,0,3.56,0.348,3.449,0.777l-1.979,7.768
									C517.36,772.896,515.581,773.266,513.502,773.266z"/>
							</g>
						</g>
						<g>
							<g>
								<path fill="#4E4E4E" d="M609.838,773.266h-29.74c-2.08,0-3.742-0.369-3.714-0.822l0.473-7.768
									c0.026-0.43,1.682-0.777,3.696-0.777h28.828c2.016,0,3.671,0.348,3.696,0.777l0.474,7.768
									C613.579,772.896,611.918,773.266,609.838,773.266z"/>
							</g>
						</g>
						<g>
							<g>
								<path fill="#4E4E4E" d="M561.669,773.266h-29.74c-2.08,0-3.684-0.369-3.583-0.822l1.701-7.768
									c0.093-0.43,1.802-0.777,3.817-0.777h28.828c2.016,0,3.614,0.348,3.573,0.777l-0.753,7.768
									C565.47,772.896,563.749,773.266,561.669,773.266z"/>
							</g>
						</g>
						<g>
							<g>
								<path fill="#4E4E4E" d="M658.006,773.266h-29.743c-2.077,0-3.799-0.369-3.843-0.822l-0.753-7.768
									c-0.042-0.43,1.56-0.777,3.573-0.777h28.828c2.016,0,3.726,0.348,3.818,0.777l1.701,7.768
									C661.688,772.896,660.084,773.266,658.006,773.266z"/>
							</g>
						</g>
						<g>
							<g>
								<path fill="#4E4E4E" d="M706.172,773.266h-29.741c-2.08,0-3.856-0.369-3.973-0.822l-1.979-7.768
									c-0.108-0.43,1.436-0.777,3.451-0.777h28.827c2.016,0,3.78,0.348,3.94,0.777l2.929,7.768
									C709.798,772.896,708.251,773.266,706.172,773.266z"/>
							</g>
						</g>
						<g>
							<g>
								<path fill="#4E4E4E" d="M754.339,773.266h-29.741c-2.078,0-3.916-0.369-4.104-0.822l-3.204-7.768
									c-0.177-0.43,1.315-0.777,3.329-0.777h28.828c2.015,0,3.834,0.348,4.063,0.777l4.153,7.768
									C757.906,772.896,756.418,773.266,754.339,773.266z"/>
							</g>
						</g>
						<g>
							<g>
								<path fill="#4E4E4E" d="M802.507,773.266h-29.741c-2.079,0-3.975-0.369-4.233-0.822l-4.432-7.768
									c-0.245-0.43,1.19-0.777,3.206-0.777h28.828c2.014,0,3.889,0.348,4.186,0.777l5.381,7.768
									C806.014,772.896,804.585,773.266,802.507,773.266z"/>
							</g>
						</g>
						<g>
							<g>
								<path fill="#4E4E4E" d="M363.349,786.283h-27.117c-2.167,0-3.594-0.398-3.187-0.893l6.965-8.432
									c0.385-0.467,2.396-0.842,4.495-0.842h26.249c2.098,0,3.529,0.375,3.196,0.842l-6.038,8.432
									C367.56,785.885,365.515,786.283,363.349,786.283z"/>
							</g>
						</g>
						<g>
							<g>
								<path fill="#4E4E4E" d="M317.021,786.283h-27.537c-2.167,0-3.534-0.398-3.055-0.893l8.205-8.432
									c0.453-0.467,2.52-0.842,4.618-0.842h26.656c2.098,0,3.475,0.375,3.074,0.842l-7.267,8.432
									C321.29,785.885,319.187,786.283,317.021,786.283z"/>
							</g>
						</g>
						<g>
							<g>
								<path fill="#4E4E4E" d="M409.579,786.283h-27.018c-2.168,0-3.652-0.398-3.318-0.893l5.736-8.432
									c0.317-0.467,2.274-0.842,4.373-0.842h26.154c2.099,0,3.585,0.375,3.318,0.842l-4.812,8.432
									C413.731,785.885,411.747,786.283,409.579,786.283z"/>
							</g>
						</g>
						<g>
							<g>
								<path fill="#4E4E4E" d="M854.219,786.283h-27.116c-2.167,0-4.211-0.398-4.565-0.893l-6.052-8.432
									c-0.334-0.467,1.097-0.842,3.196-0.842h26.247c2.1,0,4.11,0.375,4.496,0.842l6.978,8.432
									C857.811,785.885,856.386,786.283,854.219,786.283z"/>
							</g>
						</g>
						<g>
							<g>
								<path fill="#4E4E4E" d="M807.891,786.283h-27.535c-2.17,0-4.153-0.398-4.437-0.893l-1.941-3.404
									c-0.273-0.48,1.232-0.869,3.364-0.869h27.089c2.135,0,4.127,0.389,4.454,0.869l2.321,3.404
									C811.543,785.885,810.057,786.283,807.891,786.283z"/>
							</g>
						</g>
						<g>
							<g>
								<path fill="#4E4E4E" d="M900.449,786.283h-27.019c-2.167,0-4.271-0.398-4.694-0.893l-2.94-3.404
									c-0.414-0.48,0.979-0.869,3.111-0.869h26.579c2.132,0,4.239,0.389,4.706,0.869l3.313,3.404
									C903.985,785.885,902.615,786.283,900.449,786.283z"/>
							</g>
						</g>
						<g>
							<g>
								<path fill="#4E4E4E" d="M459.803,786.283H428.79c-2.166,0-3.71-0.398-3.445-0.893l4.512-8.432
									c0.248-0.467,2.148-0.842,4.248-0.842h30.019c2.1,0,3.645,0.375,3.451,0.842l-3.479,8.432
									C463.892,785.885,461.97,786.283,459.803,786.283z"/>
							</g>
						</g>
						<g>
							<g>
								<path fill="#4E4E4E" d="M761.141,786.283h-31.009c-2.169,0-4.092-0.398-4.295-0.893l-3.479-8.432
									c-0.192-0.467,1.355-0.842,3.452-0.842h30.02c2.1,0,4,0.375,4.249,0.842l4.511,8.432
									C764.852,785.885,763.31,786.283,761.141,786.283z"/>
							</g>
						</g>
						<g>
							<g>
								<path fill="#4E4E4E" d="M846.472,763.898h-32.478c-2.015,0-3.349,0.412-2.979,0.92l5.444,7.475
									c0.391,0.537,2.395,0.973,4.473,0.973h33.505h33.506c2.078,0,3.339-0.436,2.817-0.973l-7.271-7.475
									c-0.494-0.508-2.528-0.92-4.543-0.92H846.472z"/>
							</g>
						</g>
						<g>
							<g>
								<path fill="#4E4E4E" d="M342.89,752.615h-21.065c-1.938,0-3.879,0.381-4.337,0.852l-6.718,6.904
									c-0.48,0.496,0.747,0.898,2.744,0.898h21.707h21.706c1.998,0,3.938-0.402,4.333-0.898l5.525-6.904
									c0.376-0.471-0.892-0.852-2.829-0.852H342.89z"/>
							</g>
						</g>
						<g>
							<g>
								<g>
									<path fill="#4E4E4E" d="M449.471,761.27H420.9c-1.997,0-3.411-0.342-3.157-0.758l4.353-7.18
										c0.241-0.395,2.007-0.717,3.944-0.717h27.728c1.938,0,3.354,0.322,3.163,0.717l-3.477,7.18
										C453.251,760.928,451.469,761.27,449.471,761.27z"/>
								</g>
							</g>
							<g>
								<g>
									<path fill="#4E4E4E" d="M403.199,761.27h-28.572c-1.998,0-3.357-0.342-3.037-0.758l5.486-7.18
										c0.303-0.395,2.119-0.717,4.057-0.717h27.729c1.938,0,3.302,0.322,3.048,0.717l-4.609,7.18
										C407.033,760.928,405.197,761.27,403.199,761.27z"/>
								</g>
							</g>
							<g>
								<g>
									<path fill="#4E4E4E" d="M495.745,761.27h-28.573c-1.997,0-3.462-0.342-3.274-0.758l3.219-7.18
										c0.177-0.395,1.893-0.717,3.83-0.717h27.729c1.938,0,3.403,0.322,3.275,0.717l-2.342,7.18
										C499.472,760.928,497.743,761.27,495.745,761.27z"/>
								</g>
							</g>
							<g>
								<g>
									<path fill="#4E4E4E" d="M542.018,761.27h-28.571c-1.998,0-3.518-0.342-3.396-0.758l2.086-7.18
										c0.114-0.395,1.779-0.717,3.718-0.717h27.728c1.938,0,3.455,0.322,3.389,0.717l-1.209,7.18
										C545.69,760.928,544.014,761.27,542.018,761.27z"/>
								</g>
							</g>
							<g>
								<g>
									<path fill="#4E4E4E" d="M634.563,761.27h-28.571c-1.996,0-3.623-0.342-3.634-0.758l-0.183-7.18
										c-0.01-0.395,1.553-0.717,3.491-0.717h27.729c1.938,0,3.555,0.322,3.614,0.717l1.06,7.18
										C638.129,760.928,636.56,761.27,634.563,761.27z"/>
								</g>
							</g>
							<g>
								<g>
									<path fill="#4E4E4E" d="M588.289,761.27h-28.57c-1.997,0-3.57-0.342-3.515-0.758l0.951-7.18
										c0.053-0.395,1.666-0.717,3.603-0.717h27.73c1.937,0,3.505,0.322,3.502,0.717l-0.076,7.18
										C591.91,760.928,590.288,761.27,588.289,761.27z"/>
								</g>
							</g>
							<g>
								<g>
									<path fill="#4E4E4E" d="M680.835,761.27h-28.571c-1.996,0-3.678-0.342-3.754-0.758l-1.314-7.18
										c-0.074-0.395,1.44-0.717,3.378-0.717h27.726c1.939,0,3.609,0.322,3.73,0.717l2.19,7.18
										C684.348,760.928,682.833,761.27,680.835,761.27z"/>
								</g>
							</g>
							<g>
								<g>
									<path fill="#4E4E4E" d="M727.109,761.27h-28.572c-1.996,0-3.732-0.342-3.874-0.758l-2.448-7.18
										c-0.136-0.395,1.325-0.717,3.265-0.717h27.728c1.938,0,3.657,0.322,3.842,0.717l3.326,7.18
										C730.568,760.928,729.106,761.27,727.109,761.27z"/>
								</g>
							</g>
							<g>
								<g>
									<path fill="#4E4E4E" d="M773.382,761.27h-28.571c-1.997,0-3.786-0.342-3.994-0.758l-3.583-7.18
										c-0.196-0.395,1.214-0.717,3.15-0.717h27.729c1.939,0,3.71,0.322,3.957,0.717l4.459,7.18
										C776.787,760.928,775.379,761.27,773.382,761.27z"/>
								</g>
							</g>
							<g>
								<g>
									<path fill="#4E4E4E" d="M819.655,761.27h-28.571c-1.997,0-3.841-0.342-4.113-0.758l-4.717-7.18
										c-0.261-0.395,1.101-0.717,3.036-0.717h27.729c1.939,0,3.758,0.322,4.068,0.717l5.593,7.18
										C823.008,760.928,821.651,761.27,819.655,761.27z"/>
								</g>
							</g>
						</g>
						<g>
							<g>
								<g>
									<path fill="#4E4E4E" d="M400.728,739.902h-25.313c-1.851,0-3.112-0.293-2.817-0.652l2.043-2.49
										c0.29-0.352,2.002-0.637,3.829-0.637h24.959c1.827,0,3.106,0.285,2.859,0.637l-1.75,2.49
										C404.285,739.609,402.579,739.902,400.728,739.902z"/>
								</g>
							</g>
							<g>
								<g>
									<path fill="#4E4E4E" d="M359.349,739.902h-25.312c-1.852,0-3.068-0.293-2.718-0.652l2.421-2.49
										c0.343-0.352,2.1-0.637,3.926-0.637h24.959c1.825,0,3.063,0.285,2.76,0.637l-2.128,2.49
										C362.951,739.609,361.2,739.902,359.349,739.902z"/>
								</g>
							</g>
							<g>
								<g>
									<path fill="#4E4E4E" d="M442.106,739.902h-25.313c-1.851,0-3.157-0.293-2.916-0.652l1.663-2.49
										c0.236-0.352,1.907-0.637,3.731-0.637h24.961c1.826,0,3.148,0.285,2.953,0.637l-1.368,2.49
										C445.62,739.609,443.958,739.902,442.106,739.902z"/>
								</g>
							</g>
							<g>
								<g>
									<path fill="#4E4E4E" d="M483.485,739.902h-25.313c-1.851,0-3.201-0.293-3.016-0.652l1.285-2.49
										c0.182-0.352,1.809-0.637,3.633-0.637h24.962c1.826,0,3.191,0.285,3.052,0.637l-0.991,2.49
										C486.955,739.609,485.337,739.902,483.485,739.902z"/>
								</g>
							</g>
							<g>
								<g>
									<path fill="#4E4E4E" d="M566.245,739.902h-25.313c-1.851,0-3.292-0.293-3.215-0.652l0.524-2.49
										c0.075-0.352,1.615-0.637,3.442-0.637h24.959c1.826,0,3.279,0.285,3.248,0.637l-0.234,2.49
										C569.623,739.609,568.096,739.902,566.245,739.902z"/>
								</g>
							</g>
							<g>
								<g>
									<path fill="#4E4E4E" d="M524.865,739.902h-25.313c-1.852,0-3.245-0.293-3.116-0.652l0.906-2.49
										c0.128-0.352,1.711-0.637,3.536-0.637h24.96c1.827,0,3.237,0.285,3.149,0.637l-0.611,2.49
										C528.289,739.609,526.717,739.902,524.865,739.902z"/>
								</g>
							</g>
							<g>
								<g>
									<path fill="#4E4E4E" d="M607.624,739.902h-25.313c-1.853,0-3.336-0.293-3.315-0.652l0.146-2.49
										c0.021-0.352,1.519-0.637,3.345-0.637h24.958c1.826,0,3.324,0.285,3.346,0.637l0.146,2.49
										C610.957,739.609,609.474,739.902,607.624,739.902z"/>
								</g>
							</g>
							<g>
								<g>
									<path fill="#4E4E4E" d="M649.001,739.902h-25.313c-1.85,0-3.379-0.293-3.411-0.652l-0.233-2.49
										c-0.033-0.352,1.419-0.637,3.246-0.637h24.961c1.825,0,3.364,0.285,3.439,0.637l0.526,2.49
										C652.292,739.609,650.854,739.902,649.001,739.902z"/>
								</g>
							</g>
							<g>
								<g>
									<path fill="#4E4E4E" d="M690.381,739.902h-25.313c-1.851,0-3.423-0.293-3.511-0.652l-0.613-2.49
										c-0.085-0.352,1.324-0.637,3.149-0.637h24.96c1.826,0,3.411,0.285,3.538,0.637l0.905,2.49
										C693.627,739.609,692.231,739.902,690.381,739.902z"/>
								</g>
							</g>
							<g>
								<g>
									<path fill="#4E4E4E" d="M731.76,739.902h-25.313c-1.85,0-3.467-0.293-3.612-0.652l-0.99-2.49
										c-0.139-0.352,1.227-0.637,3.054-0.637h24.959c1.826,0,3.454,0.285,3.634,0.637l1.285,2.49
										C734.96,739.609,733.612,739.902,731.76,739.902z"/>
								</g>
							</g>
							<g>
								<g>
									<path fill="#4E4E4E" d="M773.138,739.902h-25.313c-1.85,0-3.513-0.293-3.711-0.652l-1.369-2.49
										c-0.194-0.352,1.13-0.637,2.956-0.637h24.959c1.825,0,3.494,0.285,3.732,0.637l1.663,2.49
										C776.296,739.609,774.99,739.902,773.138,739.902z"/>
								</g>
							</g>
							<g>
								<g>
									<path fill="#4E4E4E" d="M814.518,739.902h-25.313c-1.851,0-3.556-0.293-3.81-0.652l-1.749-2.49
										c-0.248-0.352,1.031-0.637,2.858-0.637h24.96c1.825,0,3.539,0.285,3.828,0.637l2.044,2.49
										C817.63,739.609,816.37,739.902,814.518,739.902z"/>
								</g>
							</g>
							<g>
								<g>
									<path fill="#4E4E4E" d="M855.896,739.902h-25.312c-1.852,0-3.604-0.293-3.91-0.652l-2.128-2.49
										c-0.302-0.352,0.935-0.637,2.759-0.637h24.962c1.826,0,3.581,0.285,3.924,0.637l2.424,2.49
										C858.966,739.609,857.749,739.902,855.896,739.902z"/>
								</g>
							</g>
						</g>
						<g>
							<g>
								<path fill="#4E4E4E" d="M849.154,752.615h-18.956c-1.938,0-3.199,0.381-2.816,0.852l5.628,6.904
									c0.404,0.496,2.35,0.898,4.348,0.898h19.531h19.531c1.998,0,3.226-0.402,2.743-0.898l-6.716-6.904
									c-0.461-0.471-2.399-0.852-4.339-0.852H849.154z"/>
							</g>
						</g>
						<g>
							<g>
								<g>
									<path fill="#4E4E4E" d="M352.157,742.16h-20.29c-1.868,0-3.726,0.354-4.149,0.791l-6.225,6.398
										c-0.446,0.457,0.749,0.832,2.669,0.832h20.885h10.449c1.921,0,3.79-0.375,4.175-0.832l5.356-6.398
										c0.365-0.438-0.853-0.791-2.72-0.791H352.157z"/>
								</g>
							</g>
							<g>
								<g>
									<g>
										<path fill="#4E4E4E" d="M444.54,750.182h-27.49c-1.922,0-3.277-0.314-3.028-0.703l4.28-6.65
											c0.237-0.369,1.942-0.668,3.809-0.668h26.709c1.866,0,3.225,0.299,3.033,0.668l-3.468,6.65
											C448.183,749.867,446.46,750.182,444.54,750.182z"/>
									</g>
								</g>
								<g>
									<g>
										<path fill="#4E4E4E" d="M400.018,750.182h-27.49c-1.921,0-3.228-0.314-2.917-0.703l5.331-6.65
											c0.294-0.369,2.046-0.668,3.914-0.668h26.709c1.866,0,3.178,0.299,2.927,0.668l-4.517,6.65
											C403.712,749.867,401.939,750.182,400.018,750.182z"/>
									</g>
								</g>
								<g>
									<g>
										<path fill="#4E4E4E" d="M489.063,750.182h-27.491c-1.922,0-3.326-0.314-3.139-0.703l3.23-6.65
											c0.18-0.369,1.836-0.668,3.703-0.668h26.708c1.865,0,3.272,0.299,3.139,0.668l-2.417,6.65
											C492.655,749.867,490.983,750.182,489.063,750.182z"/>
									</g>
								</g>
								<g>
									<g>
										<path fill="#4E4E4E" d="M533.585,750.182h-27.491c-1.922,0-3.376-0.314-3.249-0.703l2.18-6.65
											c0.121-0.369,1.73-0.668,3.598-0.668h26.707c1.868,0,3.32,0.299,3.243,0.668l-1.364,6.65
											C537.127,749.867,535.507,750.182,533.585,750.182z"/>
									</g>
								</g>
								<g>
									<g>
										<path fill="#4E4E4E" d="M622.628,750.182h-27.489c-1.923,0-3.476-0.314-3.473-0.703l0.077-6.65
											c0.005-0.369,1.523-0.668,3.391-0.668h26.707c1.867,0,3.412,0.299,3.454,0.668l0.734,6.65
											C626.073,749.867,624.55,750.182,622.628,750.182z"/>
									</g>
								</g>
								<g>
									<g>
										<path fill="#4E4E4E" d="M578.105,750.182h-27.49c-1.922,0-3.426-0.314-3.36-0.703l1.129-6.65
											c0.063-0.369,1.626-0.668,3.492-0.668h26.71c1.867,0,3.365,0.299,3.347,0.668l-0.315,6.65
											C581.599,749.867,580.027,750.182,578.105,750.182z"/>
									</g>
								</g>
								<g>
									<g>
										<path fill="#4E4E4E" d="M667.15,750.182h-27.49c-1.923,0-3.525-0.314-3.583-0.703l-0.972-6.65
											c-0.055-0.369,1.415-0.668,3.282-0.668h26.709c1.867,0,3.461,0.299,3.56,0.668l1.783,6.65
											C670.543,749.867,669.071,750.182,667.15,750.182z"/>
									</g>
								</g>
								<g>
									<g>
										<path fill="#4E4E4E" d="M711.672,750.182h-27.491c-1.921,0-3.574-0.314-3.693-0.703l-2.021-6.65
											c-0.111-0.369,1.311-0.668,3.178-0.668h26.708c1.866,0,3.508,0.299,3.666,0.668l2.834,6.65
											C715.017,749.867,713.593,750.182,711.672,750.182z"/>
									</g>
								</g>
								<g>
									<g>
										<path fill="#4E4E4E" d="M756.194,750.182h-27.491c-1.922,0-3.625-0.314-3.804-0.703l-3.072-6.65
											c-0.172-0.369,1.204-0.668,3.071-0.668h26.709c1.867,0,3.554,0.299,3.769,0.668l3.889,6.65
											C759.488,749.867,758.116,750.182,756.194,750.182z"/>
									</g>
								</g>
								<g>
									<g>
										<path fill="#4E4E4E" d="M800.715,750.182h-27.491c-1.919,0-3.673-0.314-3.912-0.703l-4.124-6.65
											c-0.229-0.369,1.101-0.668,2.969-0.668h26.707c1.865,0,3.601,0.299,3.875,0.668l4.936,6.65
											C803.963,749.867,802.637,750.182,800.715,750.182z"/>
									</g>
								</g>
							</g>
							<g>
								<g>
									<path fill="#4E4E4E" d="M829.669,742.16H811.41c-1.866,0-3.105,0.354-2.768,0.791l4.979,6.398
										c0.357,0.457,2.204,0.832,4.126,0.832h18.793h29.23c1.922,0,3.115-0.375,2.67-0.832l-6.226-6.398
										c-0.424-0.438-2.28-0.791-4.147-0.791H829.669z"/>
								</g>
							</g>
						</g>
						<g>
							<g>
								<path fill="#4E4E4E" d="M710.917,786.283H479.015c-2.167,0-3.773-0.398-3.589-0.893l3.18-8.432
									c0.176-0.467,2.019-0.842,4.116-0.842h224.491c2.097,0,3.939,0.375,4.116,0.842l3.178,8.432
									C714.693,785.885,713.087,786.283,710.917,786.283z"/>
							</g>
						</g>
					</g>
				</g>
			</g>
		</g>
	</g>
	<g>
		<linearGradient id="SVGID_1_" gradientUnits="userSpaceOnUse" x1="910.4141" y1="594.2549" x2="1004.7695" y2="594.2549">
			<stop  offset="0" style="stop-color:#F2A4C8;stop-opacity:0.9"/>
			<stop  offset="1" style="stop-color:#AB7AB5;stop-opacity:0.97"/>
		</linearGradient>
		<path fill="url(#SVGID_1_)" d="M999.637,563.932h-11.811c-1.328,0-2.46-0.965-2.678-2.273l-0.899-5.418
			c-0.218-1.309-1.353-2.271-2.68-2.271h-23.994c-1.327,0-2.462,0.963-2.677,2.271l-0.9,5.418c-0.217,1.309-1.352,2.273-2.681,2.273
			h-35.769c-2.839,0-5.135,2.297-5.135,5.137v60.334c0,2.84,2.296,5.139,5.135,5.139h84.088c2.834,0,5.133-2.299,5.133-5.139
			v-60.334C1004.77,566.229,1002.471,563.932,999.637,563.932z"/>
		<rect x="915.228" y="569.068" fill="#FFFFFF" width="85.051" height="60.334"/>
	</g>
	<linearGradient id="SVGID_2_" gradientUnits="userSpaceOnUse" x1="953.8994" y1="577.0957" x2="953.8994" y2="663.879">
		<stop  offset="0" style="stop-color:#F2A4C8"/>
		<stop  offset="1" style="stop-color:#AB7AB5;stop-opacity:0.97"/>
	</linearGradient>
	<path fill="url(#SVGID_2_)" d="M999.637,635.504h-84.088c-2.839,0-5.408-2.338-5.744-5.219l-6.168-53.115
		c-0.336-2.879,1.693-5.211,4.531-5.211h84.088c2.834,0,5.406,2.332,5.739,5.211l6.168,53.115
		C1004.499,633.166,1002.475,635.504,999.637,635.504z"/>
	<path fill="#DFDFDE" d="M991.549,825.916c-0.05,4.607-8.089,8.027-20.459,8.027H212.237c-12.151,0-20.127-3.297-20.453-7.781
		h-0.001v13.594l0.004,5.197c0.144,4.568,8.152,7.947,20.45,7.947H971.09c12.328,0,20.344-3.4,20.448-7.98l0.013-5.197v-13.807
		H991.549z"/>
	<g id="cloud_1_">
		<path fill="#FFFFFF" d="M858.617,273.429c0.213-1.58,0.363-3.184,0.363-4.825c0-19.727-15.992-35.717-35.719-35.717
			c-14.799,0-27.496,9-32.914,21.825c-4.412-3.926-10.205-6.332-16.574-6.332c-13.785,0-24.961,11.174-24.961,24.959h-4.658
			c-13.254,0-24.098,10.844-24.098,24.1l0,0c0,13.254,10.844,24.098,24.098,24.098h112.684c13.254,0,24.1-10.844,24.1-24.098l0,0
			C880.938,284.784,871.045,274.351,858.617,273.429z"/>
		<g>
			<polygon fill="#F2A4C8" points="800.248,318.763 787.674,304.679 775.098,318.763 781.787,318.763 781.787,334.13 
				793.561,334.13 793.561,318.763 			"/>
			<polygon fill="#F2A4C8" points="798.334,322.507 810.91,336.591 823.484,322.507 816.797,322.507 816.797,307.14 805.021,307.14 
				805.021,322.507 			"/>
		</g>
	</g>
	<g>
		<g>
			<path fill="#FFFFFF" d="M585.919,502.768v-9.352c0-4.245-3.441-7.686-7.688-7.686h-81.84c-4.247,0-7.688,3.441-7.688,7.686
				v165.281H700.4v-155.93H585.919z"/>
			<path fill="#F2A4C8" d="M586.599,502.768v-9.352c0-4.245-3.441-7.686-7.687-7.686H497.07c-4.245,0-7.687,3.441-7.687,7.686
				v165.281H701.08v-155.93H586.599z"/>
			<path fill="#37474F" d="M588.507,502.704v-9.352c0-4.245-3.438-7.686-7.684-7.686h-81.842c-4.248,0-7.689,3.441-7.689,7.686
				V658.64h211.699V502.704H588.507z"/>
			<polygon fill="#FFFFFF" points="496.476,509.228 496.476,658.697 692.58,658.697 692.58,508.492 			"/>
			<polygon fill="#F2A4C8" points="505.56,509.228 505.56,658.697 703.348,658.697 703.348,508.492 			"/>
			<path fill="#AB7AB5" d="M711.185,502.768H516.166c-4.001,0-6.948,2.69-7.524,6.412v149.518h212.843V512.975
				C721.532,507.604,716.655,502.768,711.185,502.768z"/>
			<g>
				<g>
					<polygon fill="#F2A4C8" points="694.537,556.083 550.607,556.484 550.301,447.104 694.231,446.697 					"/>
					
						<rect x="554.057" y="450.469" transform="matrix(1 -0.0028 0.0028 1 -1.4119 1.7598)" fill="#AB7AB5" width="136.57" height="100.559"/>
					<polygon fill="#E4EDF8" points="565.71,543.116 653.475,542.867 605.487,496.836 					"/>
					<polygon fill="#E4EDF8" points="605.617,543.005 679.358,542.799 639.346,504.749 					"/>
					<circle fill="#E4EDF8" cx="632.897" cy="486.594" r="10.164"/>
				</g>
			</g>
			<g>
				<g>
					<polygon fill="#F2A4C8" points="716.911,552.595 583.477,553.022 583.159,436.977 716.597,436.554 					"/>
					<polygon fill="#AB7AB5" points="713.031,547.028 587.174,547.435 586.883,440.756 712.743,440.349 					"/>
				</g>
				<g>
					<rect x="599.219" y="455.483" fill="#F2A4C8" width="50.125" height="4.403"/>
					<rect x="599.219" y="467.377" fill="#F2A4C8" width="101.979" height="4.403"/>
					<rect x="599.219" y="479.482" fill="#F2A4C8" width="101.979" height="4.403"/>
					<rect x="599.219" y="492.37" fill="#F2A4C8" width="101.979" height="4.403"/>
				</g>
			</g>
			<g>
				<g>
					<polygon fill="#F2A4C8" points="615.85,556.631 521.168,556.935 520.942,474.591 615.626,474.291 					"/>
					<polygon fill="#AB7AB5" points="613.097,552.682 523.791,552.97 523.585,477.273 612.892,476.984 					"/>
				</g>
				<g>
					<rect x="532.338" y="487.723" fill="#F2A4C8" width="35.567" height="3.125"/>
					<rect x="532.338" y="496.163" fill="#F2A4C8" width="72.362" height="3.124"/>
					<rect x="532.338" y="504.752" fill="#F2A4C8" width="72.362" height="3.125"/>
					<rect x="532.338" y="513.897" fill="#F2A4C8" width="72.362" height="3.123"/>
				</g>
			</g>
			<path fill="#F2A4C8" d="M722.438,512.996v145.712H510.957v-149.55c0.595-3.705,3.533-6.386,7.495-6.386h193.721
				C717.626,502.772,722.481,507.583,722.438,512.996z"/>
			<rect x="489.36" y="654" fill="#F2A4C8" width="23.299" height="4.697"/>
		</g>
		<rect x="559.64" y="617.291" fill="#FFFFFF" width="104.588" height="10.709"/>
		<circle fill="#D6D5D5" cx="583.586" cy="622.646" r="2.813"/>
		<circle fill="#D6D5D5" cx="597.405" cy="622.646" r="2.813"/>
		<circle fill="#D6D5D5" cx="610.792" cy="622.646" r="2.813"/>
		<circle fill="#D6D5D5" cx="625.36" cy="622.646" r="2.813"/>
		<circle fill="#D6D5D5" cx="637.856" cy="622.646" r="2.813"/>
		<rect x="571.394" y="632.146" fill="#FFFFFF" width="81.08" height="10.709"/>
		<circle fill="#D6D5D5" cx="597.405" cy="637.5" r="2.813"/>
		<circle fill="#D6D5D5" cx="610.792" cy="637.5" r="2.813"/>
		<circle fill="#D6D5D5" cx="625.36" cy="637.5" r="2.813"/>
		<circle fill="#F1F0F0" cx="614.826" cy="564.684" r="37.648"/>
		<g>
			<defs>
				<circle id="SVGID_3_" cx="614.826" cy="564.904" r="37.648"/>
			</defs>
			<clipPath id="SVGID_4_">
				<use xlink:href="#SVGID_3_"  overflow="visible"/>
			</clipPath>
		</g>
	</g>
	<g>
		<path fill="#AB7AB5" d="M656.376,261.876H502.033c-4.156,0-7.526,3.369-7.526,7.525v50.982c0,4.156,3.37,7.526,7.526,7.526
			h154.343c4.156,0,7.526-3.37,7.526-7.526v-50.982C663.902,265.245,660.532,261.876,656.376,261.876z"/>
		<path fill="#F2A4C8" d="M585.933,286.692c0-0.776,0.63-1.406,1.407-1.406h43.194c0.776,0,1.406,0.63,1.406,1.406v0.219
			c0,0.777-0.63,1.406-1.406,1.406H587.34c-0.777,0-1.407-0.629-1.407-1.406V286.692z"/>
		<path fill="#F2A4C8" d="M585.933,309.682c0-0.776,0.63-1.406,1.407-1.406h43.194c0.776,0,1.406,0.63,1.406,1.406v0.219
			c0,0.777-0.63,1.407-1.406,1.407H587.34c-0.777,0-1.407-0.63-1.407-1.407V309.682z"/>
		<rect x="508.475" y="275.855" fill="#FFFFFF" width="45.239" height="38.241"/>
		<circle fill="#FFFFFF" cx="573.636" cy="305.543" r="6.568"/>
		<circle fill="#FFFFFF" cx="573.636" cy="282.553" r="6.568"/>
		<path fill="#FFFFFF" d="M635.007,309.792c0-0.837,0.679-1.516,1.517-1.516h4.329c0.838,0,1.517,0.679,1.517,1.516
			c0,0.838-0.679,1.517-1.517,1.517h-4.329C635.686,311.308,635.007,310.629,635.007,309.792z"/>
		<path fill="#F2A4C8" d="M652.343,302.332c0,0.778-0.629,1.408-1.406,1.408H587.34c-0.777,0-1.407-0.63-1.407-1.408v-0.219
			c0-0.777,0.63-1.406,1.407-1.406h63.597c0.777,0,1.406,0.629,1.406,1.406V302.332z"/>
		<path fill="#FFFFFF" d="M635.007,286.801c0-0.836,0.679-1.515,1.517-1.515h4.329c0.838,0,1.517,0.679,1.517,1.515
			c0,0.838-0.679,1.517-1.517,1.517h-4.329C635.686,288.317,635.007,287.639,635.007,286.801z"/>
		<path fill="#F2A4C8" d="M652.343,279.342c0,0.776-0.629,1.408-1.406,1.408H587.34c-0.777,0-1.407-0.631-1.407-1.408v-0.219
			c0-0.777,0.63-1.406,1.407-1.406h63.597c0.777,0,1.406,0.629,1.406,1.406V279.342z"/>
	</g>
	<g>
		<linearGradient id="SVGID_5_" gradientUnits="userSpaceOnUse" x1="373.9985" y1="221.5327" x2="373.9985" y2="408.2403">
			<stop  offset="0" style="stop-color:#F2A4C8"/>
			<stop  offset="1" style="stop-color:#AB7AB5;stop-opacity:0.97"/>
		</linearGradient>
		<path fill="url(#SVGID_5_)" d="M415.003,323.015h-82.007c-2.689,0-4.872-2.182-4.872-4.871v-81.866
			c0-2.69,2.183-4.869,4.872-4.869h82.007c2.69,0,4.87,2.179,4.87,4.869v81.866C419.873,320.833,417.693,323.015,415.003,323.015z"
			/>
		<path opacity="0.4" fill="#FFFFFF" d="M406.307,312.071h-64.614c-1.257,0-2.276-1.021-2.276-2.279v-11.999
			c0-1.257,1.02-2.275,2.276-2.275h64.614c1.257,0,2.276,1.019,2.276,2.275v11.999C408.583,311.049,407.563,312.071,406.307,312.071
			z"/>
		<g>
			<path fill="#FFFFFF" d="M350.006,303.793l1.957,1.08l-0.67,1.167l-1.99-1.167l0.016,2.218h-1.304l0.017-2.199l-1.977,1.148
				l-0.685-1.167l1.975-1.08l-1.975-1.083l0.685-1.184l1.977,1.167l-0.017-2.195h1.304l-0.016,2.212l1.99-1.184l0.67,1.184
				L350.006,303.793z"/>
			<path fill="#FFFFFF" d="M358.45,303.793l1.958,1.08l-0.67,1.167l-1.992-1.167l0.018,2.218h-1.303l0.014-2.199l-1.973,1.148
				l-0.688-1.167l1.974-1.08l-1.974-1.083l0.688-1.184l1.973,1.167l-0.014-2.195h1.303l-0.018,2.212l1.992-1.184l0.67,1.184
				L358.45,303.793z"/>
			<path fill="#FFFFFF" d="M366.894,303.793l1.958,1.08l-0.671,1.167l-1.989-1.167l0.018,2.218h-1.307l0.018-2.199l-1.975,1.148
				l-0.687-1.167l1.976-1.08l-1.976-1.083l0.687-1.184l1.975,1.167l-0.018-2.195h1.307l-0.018,2.212l1.989-1.184l0.671,1.184
				L366.894,303.793z"/>
			<path fill="#FFFFFF" d="M375.338,303.793l1.959,1.08l-0.672,1.167l-1.99-1.167l0.016,2.218h-1.303l0.018-2.199l-1.975,1.148
				l-0.688-1.167l1.975-1.08l-1.975-1.083l0.688-1.184l1.975,1.167l-0.018-2.195h1.303l-0.016,2.212l1.99-1.184l0.672,1.184
				L375.338,303.793z"/>
			<path fill="#FFFFFF" d="M383.781,303.793l1.959,1.08l-0.67,1.167l-1.99-1.167l0.016,2.218h-1.306l0.017-2.199l-1.972,1.148
				l-0.688-1.167l1.975-1.08l-1.975-1.083l0.688-1.184l1.972,1.167l-0.017-2.195h1.306l-0.016,2.212l1.99-1.184l0.67,1.184
				L383.781,303.793z"/>
			<path fill="#FFFFFF" d="M392.229,303.793l1.955,1.08l-0.668,1.167l-1.992-1.167l0.018,2.218h-1.307l0.017-2.199l-1.974,1.148
				l-0.688-1.167l1.976-1.08l-1.976-1.083l0.688-1.184l1.974,1.167l-0.017-2.195h1.307l-0.018,2.212l1.992-1.184l0.668,1.184
				L392.229,303.793z"/>
			<path fill="#FFFFFF" d="M400.67,303.793l1.958,1.08l-0.671,1.167l-1.988-1.167l0.016,2.218h-1.306l0.019-2.199l-1.976,1.148
				l-0.688-1.167l1.978-1.08l-1.978-1.083l0.688-1.184l1.976,1.167l-0.019-2.195h1.306l-0.016,2.212l1.988-1.184l0.671,1.184
				L400.67,303.793z"/>
		</g>
		<g>
			<g>
				<path fill="#FFFFFF" d="M385.759,262.349h-2.864v-2.773c0-4.472-3.638-8.111-8.11-8.111c-4.471,0-8.112,3.64-8.112,8.111v2.773
					h-2.861v-2.773c0-6.052,4.924-10.974,10.974-10.974c6.052,0,10.975,4.922,10.975,10.974V262.349z"/>
			</g>
			<path fill="#FFFFFF" d="M387.272,263.861h-24.976c-1.182,0-2.143,0.96-2.143,2.146v14.779c0,1.185,0.961,2.144,2.143,2.144
				h24.976c1.182,0,2.142-0.959,2.142-2.144v-14.779C389.414,264.821,388.454,263.861,387.272,263.861z M375.656,273.514v4.693
				h-1.744v-4.693c-0.977-0.357-1.676-1.286-1.676-2.385c0-1.407,1.141-2.549,2.547-2.549s2.551,1.142,2.551,2.549
				C377.334,272.228,376.632,273.157,375.656,273.514z"/>
		</g>
	</g>
	<circle fill="#FFFFFF" cx="793.359" cy="551.22" r="33.954"/>
	<circle fill="#FFFFFF" cx="417.714" cy="551.22" r="33.954"/>
	<g>
		<path fill="#AB7AB5" d="M985.916,502.775h-70.603c-1.581,0-2.862-1.282-2.862-2.863v-54.566c0-1.581,1.281-2.863,2.862-2.863
			h70.603c1.581,0,2.862,1.282,2.862,2.863v54.566C988.778,501.493,987.497,502.775,985.916,502.775z"/>
		<g>
			<g>
				<path fill="#F2A4C8" d="M941.365,459.685h-14.95c-1.398,0-2.532-1.134-2.532-2.531c0-1.398,1.134-2.532,2.532-2.532h14.95
					c1.397,0,2.531,1.134,2.531,2.532C943.896,458.551,942.763,459.685,941.365,459.685z"/>
			</g>
			<g>
				<path fill="#F2A4C8" d="M974.902,491.994h-27.273c-1.398,0-2.53-1.133-2.53-2.531s1.132-2.531,2.53-2.531h27.273
					c1.397,0,2.53,1.133,2.53,2.531S976.3,491.994,974.902,491.994z"/>
			</g>
			<g>
				<path fill="#FFFFFF" d="M974.902,468.279h-48.487c-1.398,0-2.532-1.133-2.532-2.531s1.134-2.531,2.532-2.531h48.487
					c1.397,0,2.53,1.133,2.53,2.531S976.3,468.279,974.902,468.279z"/>
			</g>
			<g>
				<path fill="#FFFFFF" d="M938.479,476.874h-12.064c-1.398,0-2.532-1.134-2.532-2.531c0-1.398,1.134-2.532,2.532-2.532h12.064
					c1.396,0,2.53,1.134,2.53,2.532C941.01,475.74,939.876,476.874,938.479,476.874z"/>
			</g>
			<g>
				<path fill="#FFFFFF" d="M946.816,476.874h-1.227c-1.398,0-2.531-1.134-2.531-2.531c0-1.398,1.133-2.532,2.531-2.532h1.227
					c1.399,0,2.532,1.134,2.532,2.532C949.349,475.74,948.216,476.874,946.816,476.874z"/>
			</g>
		</g>
	</g>
	<g>
		<path fill="#AB7AB5" d="M370.077,455.5h0.275c0.695,0,1.259,0.565,1.259,1.261v50.768c0,0.696-0.564,1.262-1.259,1.262h-0.275
			V455.5z"/>
		<g>
			<path fill="#AB7AB5" d="M340.104,799.411H165.97c-16.555,0-29.975-13.419-29.975-29.973V365.845
				c0-16.554,13.42-29.973,29.975-29.973h174.134c16.555,0,29.973,13.419,29.973,29.973v403.594
				C370.077,785.992,356.659,799.411,340.104,799.411z"/>
			<path fill="#37474F" d="M165.97,795.724c-14.495,0-26.285-11.792-26.285-26.285V365.845c0-14.493,11.791-26.284,26.285-26.284
				h174.134c14.495,0,26.285,11.791,26.285,26.284v403.594c0,14.493-11.791,26.285-26.285,26.285H165.97z"/>
			<g>
				<g>
					<path fill="#F3F3F3" d="M236.225,354.169c-1.436,0-2.604-1.168-2.604-2.604s1.167-2.603,2.604-2.603h33.478
						c1.436,0,2.603,1.167,2.603,2.603s-1.167,2.604-2.603,2.604H236.225z"/>
					<path fill="#37474F" d="M269.703,349.935h-33.478c-0.9,0-1.63,0.73-1.63,1.631l0,0c0,0.9,0.73,1.631,1.63,1.631h33.478
						c0.902,0,1.633-0.73,1.633-1.631l0,0C271.336,350.665,270.605,349.935,269.703,349.935z"/>
				</g>
				<g>
					<g>
						<circle fill="#F3F3F3" cx="218.275" cy="351.566" r="2.603"/>
					</g>
					<g>
						<circle fill="#F3F3F3" cx="227.856" cy="351.566" r="2.603"/>
						<circle fill="#37474F" cx="227.857" cy="351.565" r="1.63"/>
					</g>
					<g>
						<circle fill="#F3F3F3" cx="287.799" cy="351.566" r="2.603"/>
						<circle fill="#37474F" cx="287.798" cy="351.565" r="1.632"/>
					</g>
					<g>
						<circle fill="#F3F3F3" cx="278.218" cy="351.566" r="2.603"/>
						<circle fill="#37474F" cx="278.218" cy="351.565" r="1.63"/>
					</g>
				</g>
			</g>
			<path fill="#FFFFFF" d="M336.022,342.688h-31.512c-3.058,0-5.748,2.02-6.599,4.956l-2.578,8.878
				c-0.953,3.288-3.965,5.549-7.39,5.549h-69.815c-3.422,0-6.435-2.261-7.388-5.549l-2.578-8.878
				c-0.852-2.936-3.541-4.956-6.599-4.956h-31.512c-13.857,0-25.092,11.234-25.092,25.093v396.703
				c0,13.858,11.234,25.093,25.092,25.093h165.971c13.858,0,25.092-11.234,25.092-25.093V367.78
				C361.115,353.922,349.88,342.688,336.022,342.688z"/>
			<g>
				<path fill="#AB7AB5" d="M136.889,487.711h-0.506c-1.073,0-1.941,0.563-1.941,1.261v31.218c0,0.696,0.868,1.26,1.941,1.26h0.506
					V487.711z"/>
				<path fill="#AB7AB5" d="M136.889,443.631h-0.506c-1.073,0-1.941,0.564-1.941,1.26v31.219c0,0.695,0.868,1.261,1.941,1.261h0.506
					V443.631z"/>
				<path fill="#AB7AB5" d="M136.889,410.543h-0.386c-0.953,0-1.723,0.502-1.723,1.121v13.446c0,0.619,0.77,1.121,1.723,1.121h0.386
					V410.543z"/>
			</g>
			<path fill="none" d="M336.022,342.688h-31.512c-3.058,0-5.748,2.02-6.599,4.956l-2.578,8.878
				c-0.953,3.288-3.965,5.549-7.39,5.549h-69.815c-3.422,0-6.435-2.261-7.388-5.549l-2.578-8.878
				c-0.852-2.936-3.541-4.956-6.599-4.956h-31.512c-13.857,0-25.092,11.234-25.092,25.093v396.703
				c0,13.858,11.234,25.093,25.092,25.093h165.971c13.858,0,25.092-11.234,25.092-25.093V367.78
				C361.115,353.922,349.88,342.688,336.022,342.688z"/>
			<g>
				<g>
					<rect x="309.434" y="358.02" fill="#F2A4C8" width="1.476" height="2.07"/>
					<rect x="311.838" y="357.098" fill="#F2A4C8" width="1.473" height="2.992"/>
					<rect x="314.239" y="356.406" opacity="0.55" fill="#F2A4C8" width="1.476" height="3.684"/>
					<rect x="314.239" y="358.614" fill="#F2A4C8" width="1.476" height="1.476"/>
					<rect x="316.643" y="355.068" opacity="0.55" fill="#F2A4C8" width="1.476" height="5.021"/>
				</g>
				<g>
					<path opacity="0.55" fill="#F2A4C8" d="M338.932,356.142v-1.706c0,0-7.373,0-9.369,0c-0.275,0-0.493,0.224-0.493,0.5v4.653
						c0,0.276,0.222,0.5,0.5,0.5h9.361v-1.706h1.173v-2.242H338.932z"/>
					<polygon opacity="0.55" fill="#F2A4C8" points="330.005,359.153 330.005,355.373 337.997,355.373 337.997,357.077 
						337.997,357.449 337.997,359.153 					"/>
					<polygon fill="#F2A4C8" points="330.005,359.153 330.005,355.373 331.85,355.373 331.85,357.077 331.85,357.449 
						331.85,359.153 					"/>
				</g>
				<g>
					<circle fill="#F2A4C8" cx="323.441" cy="359.255" r="0.925"/>
					<g>
						<path fill="#F2A4C8" d="M321.861,357.676l0.591,0.591c0.253-0.253,0.602-0.41,0.988-0.41c0.384,0,0.736,0.157,0.988,0.41
							l0.591-0.591c-0.407-0.404-0.963-0.655-1.58-0.655S322.266,357.272,321.861,357.676z"/>
						<path fill="#F2A4C8" d="M323.441,355.704c-0.978,0-1.868,0.399-2.51,1.042l0.592,0.591c0.49-0.492,1.17-0.795,1.918-0.795
							c0.749,0,1.426,0.304,1.918,0.795l0.591-0.591C325.306,356.103,324.419,355.704,323.441,355.704z"/>
						<path fill="#F2A4C8" d="M319.971,355.785l0.589,0.591c0.738-0.738,1.757-1.195,2.881-1.195c1.123,0,2.141,0.457,2.879,1.195
							l0.591-0.591c-0.89-0.889-2.115-1.44-3.47-1.44C322.086,354.345,320.858,354.896,319.971,355.785z"/>
					</g>
				</g>
			</g>
			<path fill="#F2A4C8" d="M355.571,392c0,5.523-4.477,10-10,10H160.246c-5.523,0-10-4.477-10-10v-11.25c0-5.523,4.477-10,10-10
				h185.325c5.523,0,10,4.477,10,10V392z"/>
			<g>
				<ellipse opacity="0.8" fill="#F5F5F5" cx="343.641" cy="386.352" rx="4.644" ry="4.639"/>
				<ellipse opacity="0.8" fill="#F5F5F5" cx="326.939" cy="386.352" rx="4.645" ry="4.639"/>
				<ellipse opacity="0.8" fill="#F5F5F5" cx="310.781" cy="386.352" rx="4.645" ry="4.639"/>
			</g>
		</g>
	</g>
	<g>
		<path opacity="0.8" fill="#FFFFFF" d="M309.039,635.293H196.261v51.586c0,0.009,0.001,0.018,0.001,0.026h112.776
			c5.339,0,9.669-2.634,9.669-5.883v-39.847C318.708,637.928,314.377,635.293,309.039,635.293z"/>
		<path fill="#AB7AB5" d="M315.707,632.412H195.076c-3.249,0-5.882,2.634-5.882,5.882v39.847c0,3.248,2.634,5.883,5.882,5.883
			h120.631c3.249,0,5.882-2.635,5.882-5.883v-39.847C321.589,635.046,318.956,632.412,315.707,632.412z"/>
		<path fill="#F2A4C8" d="M260.65,651.808c0-0.607,0.493-1.1,1.1-1.1h33.76c0.606,0,1.099,0.492,1.099,1.1v0.172
			c0,0.606-0.493,1.099-1.099,1.099h-33.76c-0.607,0-1.1-0.492-1.1-1.099V651.808z"/>
		<path fill="#F2A4C8" d="M260.65,669.776c0-0.607,0.493-1.1,1.1-1.1h33.76c0.606,0,1.099,0.492,1.099,1.1v0.172
			c0,0.606-0.493,1.099-1.099,1.099h-33.76c-0.607,0-1.1-0.492-1.1-1.099V669.776z"/>
		<rect x="200.111" y="643.338" fill="#FFFFFF" width="35.358" height="29.888"/>
		<circle fill="#FFFFFF" cx="251.039" cy="666.541" r="5.133"/>
		<circle fill="#FFFFFF" cx="251.039" cy="648.573" r="5.133"/>
		<path fill="#FFFFFF" d="M299.005,669.861c0-0.654,0.53-1.185,1.185-1.185h3.384c0.655,0,1.185,0.53,1.185,1.185
			c0,0.655-0.53,1.186-1.185,1.186h-3.384C299.536,671.047,299.005,670.517,299.005,669.861z"/>
		<path fill="#F2A4C8" d="M312.555,664.031c0,0.608-0.492,1.101-1.099,1.101H261.75c-0.607,0-1.1-0.492-1.1-1.101v-0.171
			c0-0.607,0.493-1.1,1.1-1.1h49.706c0.607,0,1.099,0.492,1.099,1.1V664.031z"/>
		<path fill="#FFFFFF" d="M299.005,651.893c0-0.653,0.53-1.185,1.185-1.185h3.384c0.655,0,1.185,0.531,1.185,1.185
			c0,0.654-0.53,1.186-1.185,1.186h-3.384C299.536,653.078,299.005,652.547,299.005,651.893z"/>
		<path fill="#F2A4C8" d="M312.555,646.063c0,0.607-0.492,1.101-1.099,1.101H261.75c-0.607,0-1.1-0.493-1.1-1.101v-0.171
			c0-0.607,0.493-1.1,1.1-1.1h49.706c0.607,0,1.099,0.492,1.099,1.1V646.063z"/>
	</g>
	<g>
		<g>
			<path fill="#AB7AB5" d="M256.786,626.18c-0.828,0-1.5-0.672-1.5-1.5v-12.28c0-0.828,0.672-1.5,1.5-1.5s1.5,0.672,1.5,1.5v12.28
				C258.286,625.508,257.614,626.18,256.786,626.18z M256.786,601.618c-0.828,0-1.5-0.672-1.5-1.5v-12.28c0-0.828,0.672-1.5,1.5-1.5
				s1.5,0.672,1.5,1.5v12.28C258.286,600.946,257.614,601.618,256.786,601.618z M256.786,577.057c-0.828,0-1.5-0.671-1.5-1.5v-12.28
				c0-0.829,0.672-1.5,1.5-1.5s1.5,0.671,1.5,1.5v12.28C258.286,576.386,257.614,577.057,256.786,577.057z"/>
		</g>
	</g>
	<g>
		<g>
			<path fill="#FFFFFF" d="M238.64,497.862v-5.234c0-2.376-1.926-4.302-4.303-4.302h-45.806c-2.377,0-4.303,1.926-4.303,4.302
				v92.507h118.487v-87.272H238.64z"/>
			<path fill="#F2A4C8" d="M239.02,497.862v-5.234c0-2.376-1.926-4.302-4.302-4.302h-45.807c-2.376,0-4.302,1.926-4.302,4.302
				v92.507h118.486v-87.272H239.02z"/>
			<path fill="#37474F" d="M240.088,497.826v-5.233c0-2.376-1.924-4.302-4.3-4.302h-45.807c-2.378,0-4.304,1.926-4.304,4.302v92.51
				h118.487v-87.276H240.088z"/>
			<polygon fill="#FFFFFF" points="188.578,501.478 188.578,585.135 298.337,585.135 298.337,501.065 			"/>
			<polygon fill="#F2A4C8" points="193.663,501.478 193.663,585.135 304.364,585.135 304.364,501.065 			"/>
			<path fill="#AB7AB5" d="M308.75,497.862H199.599c-2.239,0-3.889,1.506-4.211,3.588v83.685h119.127v-81.56
				C314.542,500.569,311.812,497.862,308.75,497.862z"/>
			<g>
				<g>
					
						<rect x="218.79" y="466.595" transform="matrix(1 -0.0028 0.0028 1 -1.3853 0.7243)" fill="#F2A4C8" width="80.557" height="61.22"/>
					
						<rect x="220.807" y="468.59" transform="matrix(1 -0.0028 0.0028 1 -1.4015 0.7333)" fill="#AB7AB5" width="76.437" height="56.282"/>
					<polygon fill="#E4EDF8" points="227.329,520.444 276.45,520.306 249.592,494.542 					"/>
					<polygon fill="#E4EDF8" points="249.665,520.383 290.937,520.268 268.542,498.971 					"/>
					<circle fill="#E4EDF8" cx="264.933" cy="488.81" r="5.689"/>
				</g>
			</g>
			<g>
				<g>
					<polygon fill="#F2A4C8" points="311.955,525.75 237.272,525.989 237.095,461.039 311.779,460.802 					"/>
					<polygon fill="#AB7AB5" points="309.784,522.635 239.342,522.862 239.179,463.154 309.623,462.926 					"/>
				</g>
				<g>
					<rect x="246.083" y="471.397" fill="#F2A4C8" width="28.055" height="2.464"/>
					<rect x="246.083" y="478.054" fill="#F2A4C8" width="57.077" height="2.465"/>
					<rect x="246.083" y="484.829" fill="#F2A4C8" width="57.077" height="2.465"/>
					<rect x="246.083" y="492.042" fill="#F2A4C8" width="57.077" height="2.465"/>
				</g>
			</g>
			<g>
				<g>
					<polygon fill="#F2A4C8" points="255.392,528.009 202.398,528.179 202.272,482.092 255.267,481.924 					"/>
					<polygon fill="#AB7AB5" points="253.851,525.799 203.867,525.96 203.751,483.593 253.736,483.431 					"/>
				</g>
				<g>
					<rect x="208.65" y="489.441" fill="#F2A4C8" width="19.907" height="1.749"/>
					<rect x="208.65" y="494.165" fill="#F2A4C8" width="40.501" height="1.749"/>
					<rect x="208.65" y="498.973" fill="#F2A4C8" width="40.501" height="1.749"/>
					<rect x="208.65" y="504.091" fill="#F2A4C8" width="40.501" height="1.748"/>
				</g>
			</g>
			<path fill="#F2A4C8" d="M315.049,503.587v81.555H196.684v-83.703c0.333-2.073,1.978-3.574,4.195-3.574h108.425
				C312.355,497.864,315.073,500.557,315.049,503.587z"/>
			<rect x="184.596" y="582.506" fill="#F2A4C8" width="13.041" height="2.629"/>
		</g>
		<rect x="223.931" y="561.96" fill="#FFFFFF" width="58.537" height="5.994"/>
		<circle fill="#D6D5D5" cx="237.334" cy="564.957" r="1.574"/>
		<circle fill="#D6D5D5" cx="245.068" cy="564.957" r="1.574"/>
		<circle fill="#D6D5D5" cx="252.561" cy="564.957" r="1.574"/>
		<circle fill="#D6D5D5" cx="260.715" cy="564.957" r="1.574"/>
		<circle fill="#D6D5D5" cx="267.709" cy="564.957" r="1.574"/>
		<rect x="230.51" y="570.274" fill="#FFFFFF" width="45.38" height="5.993"/>
		<circle fill="#D6D5D5" cx="245.068" cy="573.271" r="1.574"/>
		<circle fill="#D6D5D5" cx="252.561" cy="573.271" r="1.574"/>
		<circle fill="#D6D5D5" cx="260.715" cy="573.271" r="1.574"/>
		<circle fill="#F1F0F0" cx="254.818" cy="532.516" r="21.071"/>
		<g>
			<defs>
				<circle id="SVGID_6_" cx="254.818" cy="532.64" r="21.071"/>
			</defs>
			<clipPath id="SVGID_7_">
				<use xlink:href="#SVGID_6_"  overflow="visible"/>
			</clipPath>
		</g>
	</g>
	<g>
		<defs>
			<circle id="SVGID_8_" cx="614.826" cy="564.98" r="37.352"/>
		</defs>
		<clipPath id="SVGID_9_">
			<use xlink:href="#SVGID_8_"  overflow="visible"/>
		</clipPath>
		<g clip-path="url(#SVGID_9_)">
			<g>
				
					<ellipse transform="matrix(0.9881 -0.154 0.154 0.9881 -77.5446 101.8855)" fill="#373841" cx="619.064" cy="551.62" rx="7.012" ry="8.907"/>
				<g>
					<path fill="#373841" d="M566.243,649.624"/>
				</g>
				<polygon fill="#010101" points="606.957,572.706 620.98,573.276 616.973,581.576 608.284,581.229 				"/>
				<path fill="#ADDDD9" d="M587.326,657.408c4.424,3.337,52.798,2.909,52.766,0.535c-0.08-5.786-0.974-12.037-1.802-18.154
					c-0.472-3.459-0.921-6.872-1.19-10.138c-0.64-7.689-2.797-31.918-3.102-36.205c-0.196-2.793-0.687-9.132-0.743-9.886
					c-0.355-0.251-0.719-0.489-1.088-0.719c-0.011-0.006-0.021-0.012-0.033-0.02c-0.271-0.161-0.582-0.344-0.919-0.536
					c-0.004-0.004-0.005-0.006-0.008-0.006c-1.44-0.839-3.334-1.908-4.585-2.502c-3.13-1.485-6.346-2.394-9.729-2.881
					c-5.632-0.812-11.214,0.167-15.313,1.312c-3.68,1.026-6.166,2.188-6.427,2.311c-0.016,0.009-0.023,0.013-0.023,0.013
					s2.345,1.004,2.973,4.865c2.675,16.425-5.396,29.498-5.396,29.498s-2.042,14.299-3.224,21.589
					C588.732,641.114,586.708,656.942,587.326,657.408z"/>
				<g>
					<path fill="#F9BDBC" d="M606.722,564.955c0.154,0.85,0.304,1.7,0.456,2.55c0.011,0.052,0.02,0.104,0.026,0.153
						c0.006,0.024,0.01,0.047,0.015,0.07c0.201,1.127,0.401,2.252,0.54,3.385c0.057,0.453,0.102,0.91,0.135,1.368
						c0.035,0.512,0.057,1.027,0.062,1.542c0.015,0.981-0.013,1.964-0.042,2.946c-0.017,0.556-0.025,1.109-0.029,1.665
						c-0.004,0.642-0.277,1.334-0.016,1.958c0.33,0.787,1.087,1.195,1.753,1.658c0.726,0.504,1.516,0.917,2.343,1.227
						c1.624,0.607,3.455,0.835,5.135,0.318c3.21-0.985,2.359-4.516,2.349-7.071c0-0.001-0.004-0.708-0.004-0.708l-0.005-1.872
						l-0.01-2.663c-0.918-0.226-1.777-0.643-2.629-1.056c-2.825-1.382-5.632-2.799-8.384-4.322
						c-0.073-0.041-0.146-0.081-0.215-0.119C607.649,565.676,607.196,565.413,606.722,564.955z"/>
				</g>
				<g>
					<path fill="#E58F8F" d="M619.447,576.725c-3.18-0.821-6.239-2.094-9.018-3.832c-0.883-0.552-1.8-1.143-2.672-1.779
						c-0.137-1.133-0.338-2.258-0.539-3.385c-0.166-0.924-0.33-1.851-0.496-2.773c0.533,0.516,1.04,0.786,1.693,1.148
						c2.751,1.522,5.559,2.941,8.384,4.322c0.852,0.414,1.711,0.83,2.629,1.056L619.447,576.725z"/>
				</g>
				<g>
					<g>
						<path fill="#F9BDBC" d="M608.411,565.649c-1.45,1.012-3.45,1.188-5.046,0.424c-1.349-0.646-2.359-1.942-2.688-3.397
							c-0.059-0.265-0.095-0.532-0.108-0.807c-0.021-0.477,0.031-0.96,0.192-1.409c0.407-1.106,1.531-1.887,2.706-1.963
							c1.178-0.077,2.357,0.519,3.063,1.462l0.724,2.188L608.411,565.649z"/>
					</g>
				</g>
				<path fill="#C25353" d="M565.642,651.736c-2.843-7.96,5.97-37.138,7.392-40.747c2.465-6.253,10.248-22.354,12.319-25.016
					c3.979-5.118,16.892-8.123,17.529-8.302c1.862-0.528,3.74-1.004,5.629-1.425c1.871,4.439,2.331,8.806,2.809,13.597
					c2.545,25.567-1.275,74.127-2.467,75.916c-1.517,2.274-17.167-4.483-22.362-6.633c-3.938-1.628-2.509-3.967-2.085-7.013
					c1.241-8.974,2.75-16.699,4.231-24.96c0.564-3.153,1.127-6.382,1.671-9.786c0.022-0.14,0.044-0.278,0.066-0.417
					c-0.662,2.188-1.869,6.686-2.368,8.253"/>
				<g>
					<polygon fill="#373841" points="613.022,581.803 612.884,582.526 612.745,583.262 612.515,584.473 612.378,585.196 
						611.997,587.193 611.863,587.893 611.379,590.443 603.546,577.445 604.09,576.688 604.463,576.171 605.119,575.26 
						605.49,574.744 606.049,573.97 606.415,573.459 606.957,572.706 					"/>
				</g>
				<path fill="#B04847" d="M591.606,621.224c-0.824,2.016-1.8,4.052-2.97,5.931c0.564-3.153,1.127-6.382,1.671-9.786
					c0.348-0.782,3.719-8.556,4.711-16.612C595.396,610.61,593.312,617.054,591.606,621.224z"/>
				<path fill="#C25353" d="M640.501,626.909c-0.113-0.235-0.253-0.592-0.413-1.034c-0.843-2.342-2.195-7.085-2.754-8.924
					c0.023,0.139,0.044,0.277,0.067,0.417c0.043,0.276,0.088,0.553,0.132,0.828c0.503,3.1,1.02,6.062,1.54,8.958
					c1.481,8.261,2.987,15.986,4.23,24.96c0.424,3.046,1.853,5.385-2.084,7.013c-5.196,2.149-20.847,8.907-22.362,6.633
					c-0.757-1.134-0.141-21.317-0.719-42.262c-0.334-12.107-2.681-24.291-1.749-33.654c0.478-4.791,0.938-9.157,2.809-13.597
					c1.889,0.421,3.768,0.896,5.629,1.425c0.638,0.179,13.55,3.184,17.529,8.302c2.071,2.662,11.032,24.826,11.032,24.826
					s7.67-5.723,16.867-9.666"/>
				<g>
					<polygon fill="#373841" points="614.687,581.803 614.826,582.526 614.965,583.262 615.195,584.473 615.332,585.196 
						615.713,587.193 615.845,587.893 616.331,590.443 624.163,577.445 623.619,576.688 623.246,576.171 622.59,575.26 
						622.219,574.744 621.659,573.97 621.294,573.459 620.752,572.706 					"/>
				</g>
				<g>
					<path fill="#F9BDBC" d="M624.896,568.223c-0.701,1.708-1.673,3.265-3.265,4.266c-1.411,0.887-3.109,1.321-4.774,1.25
						c-1.842-0.081-3.611-0.723-5.179-1.71c-0.78-0.491-1.51-1.067-2.17-1.704c-1.156-1.112-2.128-2.398-2.966-3.763
						c-1.359-2.22-2.458-4.748-3.001-7.359c-0.62-2.953-0.533-6.012,0.67-8.845c0.485-1.155,1.169-2.226,2.007-3.158
						c3.539-3.938,9.621-4.619,13.944-1.559c2.252,1.595,3.933,3.993,4.83,6.587c0.285,0.822,0.529,1.667,0.729,2.524
						C626.757,559.19,626.618,564.007,624.896,568.223z"/>
				</g>
				<g>
					<g>
						<g>
							<path fill="#FFFFFF" d="M622.629,565.602c-0.775,1.011-1.993,1.721-3.412,1.863c-1.42,0.145-2.755-0.307-3.718-1.14
								L622.629,565.602z"/>
						</g>
					</g>
				</g>
				<path fill="#B04847" d="M640.088,625.875c-0.843-2.342-2.195-7.085-2.754-8.924c0.023,0.139,0.044,0.277,0.067,0.417
					c0.043,0.276,0.088,0.553,0.132,0.828l-0.254-1.332l-1.376-20.583c0,0,4.334,19.426,4.396,26.024
					C640.304,622.977,640.204,624.428,640.088,625.875z"/>
				<path fill="#373841" d="M626.129,545.584c0-6.757-9.055-5.521-9.055-5.521c-6.317-1.016-9.79,2.173-9.79,2.173
					c-1.303,0.216-2.58,0.815-3.469,1.861c-0.889,1.045-1.338,2.57-0.983,3.943c-0.55-0.162-0.964-0.142-1.529-0.082
					c-0.564,0.061-1.133,0.332-1.458,0.834c-0.215,0.332-0.311,0.739-0.361,1.144c-0.132,1.059,0.022,2.137,0.244,3.18
					c0.448,2.105,1.022,4.134,1.998,6.023c0.552-0.401,1.046-0.437,1.498-0.439c1.029-0.006,1.899,0.21,2.813,0.726l1.204,3.848
					c0,0,1.594-4.726,2.472-5.823C610.592,556.35,626.129,554.242,626.129,545.584z"/>
			</g>
		</g>
		<circle clip-path="url(#SVGID_9_)" fill="none" cx="616.11" cy="564.98" r="37.352"/>
	</g>
	<g>
		<defs>
			<circle id="SVGID_10_" cx="254.951" cy="532.64" r="21.148"/>
		</defs>
		<clipPath id="SVGID_11_">
			<use xlink:href="#SVGID_10_"  overflow="visible"/>
		</clipPath>
		<g clip-path="url(#SVGID_11_)">
			<g>
				
					<ellipse transform="matrix(0.9881 -0.1539 0.1539 0.9881 -77.7232 45.848)" fill="#373841" cx="257.351" cy="525.075" rx="3.97" ry="5.044"/>
				<g>
					<path fill="#373841" d="M227.445,580.563"/>
				</g>
				<polygon fill="#010101" points="250.496,537.014 258.436,537.336 256.167,542.036 251.248,541.84 				"/>
				<path fill="#ADDDD9" d="M239.381,584.971c2.505,1.889,29.893,1.646,29.875,0.303c-0.045-3.276-0.551-6.815-1.02-10.279
					c-0.268-1.957-0.521-3.891-0.674-5.74c-0.363-4.354-1.583-18.07-1.756-20.498c-0.111-1.582-0.389-5.171-0.421-5.598
					c-0.201-0.142-0.407-0.276-0.615-0.406c-0.007-0.004-0.012-0.006-0.02-0.011c-0.153-0.091-0.33-0.195-0.521-0.303
					c-0.001-0.003-0.003-0.004-0.004-0.004c-0.815-0.475-1.888-1.082-2.596-1.417c-1.772-0.841-3.593-1.355-5.508-1.631
					c-3.188-0.46-6.349,0.095-8.669,0.742c-2.083,0.581-3.491,1.239-3.639,1.31c-0.009,0.003-0.013,0.006-0.013,0.006
					s1.328,0.569,1.683,2.755c1.514,9.3-3.055,16.701-3.055,16.701s-1.156,8.096-1.825,12.223
					C240.178,575.744,239.032,584.707,239.381,584.971z"/>
				<g>
					<path fill="#F9BDBC" d="M250.363,532.625c0.087,0.48,0.172,0.963,0.258,1.444c0.006,0.029,0.011,0.058,0.016,0.086
						c0.003,0.015,0.006,0.026,0.008,0.04c0.114,0.639,0.227,1.275,0.305,1.916c0.032,0.257,0.058,0.516,0.077,0.774
						c0.02,0.29,0.032,0.583,0.035,0.874c0.008,0.556-0.007,1.111-0.023,1.667c-0.01,0.315-0.015,0.629-0.017,0.943
						c-0.002,0.363-0.157,0.756-0.009,1.109c0.187,0.444,0.616,0.675,0.993,0.938c0.411,0.285,0.858,0.52,1.326,0.694
						c0.92,0.344,1.957,0.472,2.908,0.181c1.817-0.559,1.335-2.558,1.33-4.005l-0.002-0.4l-0.003-1.06l-0.005-1.508
						c-0.52-0.129-1.006-0.365-1.488-0.598c-1.6-0.783-3.189-1.585-4.748-2.448c-0.041-0.022-0.082-0.045-0.121-0.067
						C250.888,533.032,250.632,532.885,250.363,532.625z"/>
				</g>
				<g>
					<path fill="#E58F8F" d="M257.568,539.288c-1.8-0.465-3.532-1.185-5.105-2.169c-0.5-0.312-1.02-0.647-1.513-1.008
						c-0.078-0.641-0.191-1.277-0.305-1.916c-0.094-0.523-0.187-1.047-0.281-1.57c0.302,0.292,0.589,0.445,0.958,0.649
						c1.558,0.863,3.147,1.666,4.748,2.448c0.481,0.233,0.968,0.469,1.488,0.598L257.568,539.288z"/>
				</g>
				<g>
					<g>
						<path fill="#F9BDBC" d="M251.319,533.019c-0.821,0.573-1.953,0.672-2.856,0.239c-0.764-0.365-1.336-1.1-1.522-1.924
							c-0.033-0.149-0.054-0.3-0.062-0.456c-0.012-0.271,0.018-0.544,0.109-0.798c0.231-0.627,0.867-1.068,1.532-1.111
							c0.667-0.044,1.335,0.293,1.733,0.828l0.411,1.238L251.319,533.019z"/>
					</g>
				</g>
				<path fill="#C25353" d="M227.104,581.76c-1.61-4.508,3.379-21.027,4.185-23.07c1.395-3.54,5.801-12.657,6.975-14.164
					c2.253-2.897,9.563-4.6,9.925-4.7c1.054-0.299,2.118-0.567,3.187-0.808c1.06,2.515,1.32,4.986,1.59,7.699
					c1.441,14.475-0.722,41.968-1.396,42.982c-0.859,1.287-9.719-2.539-12.661-3.756c-2.229-0.922-1.42-2.246-1.18-3.97
					c0.703-5.081,1.557-9.455,2.395-14.133c0.32-1.785,0.639-3.613,0.946-5.54c0.013-0.079,0.024-0.159,0.038-0.235
					c-0.374,1.237-1.058,3.783-1.341,4.672"/>
				<g>
					<polygon fill="#373841" points="253.93,542.164 253.852,542.573 253.773,542.989 253.643,543.676 253.565,544.086 
						253.35,545.216 253.274,545.612 253,547.056 248.564,539.696 248.873,539.269 249.084,538.976 249.456,538.46 249.666,538.168 
						249.981,537.729 250.189,537.44 250.496,537.014 					"/>
				</g>
				<path fill="#B04847" d="M241.805,564.483c-0.466,1.141-1.019,2.294-1.682,3.357c0.32-1.785,0.639-3.613,0.946-5.54
					c0.197-0.443,2.105-4.845,2.667-9.406C243.95,558.475,242.77,562.122,241.805,564.483z"/>
				<path fill="#C25353" d="M269.488,567.702c-0.064-0.133-0.143-0.335-0.233-0.586c-0.478-1.325-1.243-4.011-1.56-5.051
					c0.013,0.076,0.024,0.156,0.038,0.235c0.024,0.156,0.05,0.313,0.075,0.468c0.284,1.755,0.577,3.433,0.872,5.072
					c0.839,4.678,1.691,9.052,2.396,14.133c0.24,1.724,1.049,3.048-1.18,3.97c-2.942,1.217-11.803,5.043-12.661,3.756
					c-0.429-0.643-0.08-12.07-0.407-23.929c-0.189-6.855-1.518-13.753-0.991-19.054c0.271-2.713,0.531-5.185,1.591-7.699
					c1.069,0.24,2.132,0.509,3.187,0.808c0.361,0.101,7.672,1.803,9.924,4.7c1.173,1.507,6.246,14.056,6.246,14.056
					s4.343-3.239,9.55-5.472"/>
				<g>
					<polygon fill="#373841" points="254.873,542.164 254.952,542.573 255.03,542.989 255.161,543.676 255.238,544.086 
						255.454,545.216 255.528,545.612 255.803,547.056 260.238,539.696 259.93,539.269 259.719,538.976 259.347,538.46 
						259.137,538.168 258.82,537.729 258.614,537.44 258.307,537.014 					"/>
				</g>
				<g>
					<path fill="#F9BDBC" d="M260.652,534.476c-0.396,0.967-0.947,1.848-1.848,2.415c-0.799,0.501-1.761,0.748-2.703,0.707
						c-1.043-0.046-2.045-0.408-2.932-0.969c-0.442-0.276-0.855-0.604-1.229-0.964c-0.655-0.63-1.205-1.358-1.679-2.131
						c-0.769-1.256-1.392-2.688-1.699-4.166c-0.351-1.672-0.302-3.404,0.379-5.009c0.275-0.652,0.662-1.259,1.136-1.787
						c2.004-2.23,5.448-2.615,7.896-0.883c1.275,0.903,2.226,2.262,2.734,3.729c0.162,0.466,0.3,0.943,0.413,1.43
						C261.707,529.361,261.627,532.088,260.652,534.476z"/>
				</g>
				<g>
					<g>
						<g>
							<path fill="#FFFFFF" d="M259.369,532.991c-0.439,0.572-1.128,0.974-1.931,1.056c-0.805,0.08-1.561-0.175-2.105-0.646
								L259.369,532.991z"/>
						</g>
					</g>
				</g>
				<path fill="#B04847" d="M269.254,567.116c-0.478-1.325-1.243-4.011-1.56-5.051c0.013,0.076,0.024,0.156,0.038,0.235
					c0.024,0.156,0.05,0.313,0.075,0.468l-0.144-0.753l-0.779-11.654c0,0,2.454,10.998,2.489,14.734
					C269.376,565.476,269.32,566.297,269.254,567.116z"/>
				<path fill="#373841" d="M261.351,521.657c0-3.826-5.126-3.126-5.126-3.126c-3.577-0.574-5.543,1.23-5.543,1.23
					c-0.737,0.122-1.46,0.461-1.964,1.054c-0.503,0.592-0.758,1.455-0.556,2.232c-0.312-0.091-0.547-0.08-0.867-0.046
					c-0.319,0.034-0.641,0.188-0.825,0.472c-0.122,0.188-0.176,0.419-0.205,0.647c-0.075,0.599,0.013,1.21,0.138,1.802
					c0.254,1.19,0.58,2.339,1.132,3.408c0.313-0.226,0.592-0.246,0.848-0.248c0.583-0.004,1.075,0.119,1.593,0.41l0.681,2.18
					c0,0,0.903-2.676,1.4-3.298C252.554,527.753,261.351,526.56,261.351,521.657z"/>
			</g>
		</g>
		<circle clip-path="url(#SVGID_11_)" fill="none" cx="255.678" cy="532.64" r="21.148"/>
	</g>
</g>
<g id="Layer_3">
</g>
</svg>
