<svg width="16" height="16" viewBox="0 0 16 16" fill="none" xmlns="http://www.w3.org/2000/svg">
<path fill-rule="evenodd" clip-rule="evenodd" d="M13.92 6.4H15.4667C15.76 6.4 16 6.64 16 6.90667V9.04C16 9.33333 15.76 9.57333 15.4667 9.57333H13.9733C13.8133 10.1067 13.6267 10.5867 13.36 11.04L14.4533 12.1333C14.6667 12.3467 14.6667 12.6667 14.4533 12.88L12.9333 14.4C12.72 14.6133 12.4 14.6133 12.1867 14.4L11.0933 13.3067C10.6133 13.5733 10.1333 13.7867 9.62667 13.92V15.4667C9.62667 15.76 9.38667 16 9.09333 16H6.96C6.66667 16 6.42667 15.76 6.42667 15.4667V13.9467C5.89333 13.7867 5.41333 13.6 4.96 13.3333L3.86667 14.4267C3.65333 14.64 3.33333 14.64 3.12 14.4267L1.6 12.9067C1.49333 12.8 1.44 12.6667 1.44 12.5333C1.44 12.4 1.49333 12.2667 1.6 12.16L2.69333 11.0667C2.42667 10.5867 2.21333 10.1067 2.08 9.6H0.533333C0.24 9.6 0 9.36 0 9.06667V6.93333C0 6.64 0.24 6.4 0.533333 6.4H2.08C2.24 5.86667 2.42667 5.38667 2.69333 4.93333L1.6 3.84C1.38667 3.62667 1.38667 3.30667 1.6 3.09333L3.09333 1.6C3.2 1.49333 3.33333 1.44 3.46667 1.44C3.6 1.44 3.73333 1.49333 3.84 1.6L4.93333 2.69333C5.41333 2.42667 5.89333 2.21333 6.4 2.08V0.533333C6.4 0.24 6.64 0 6.93333 0H9.06667C9.36 0 9.6 0.24 9.6 0.533333V2.08C10.1333 2.24 10.6133 2.42667 11.0667 2.69333L12.16 1.6C12.2667 1.49333 12.4 1.44 12.5333 1.44C12.6667 1.44 12.8 1.49333 12.9067 1.6L14.4 3.09333C14.6133 3.30667 14.6133 3.62667 14.4 3.84L13.3067 4.93333C13.5733 5.41333 13.7867 5.89333 13.92 6.4ZM7.99983 10.1334C9.17316 10.1334 10.1332 9.17339 10.1332 8.00006C10.1332 6.82673 9.17316 5.86673 7.99983 5.86673C6.8265 5.86673 5.8665 6.82673 5.8665 8.00006C5.8665 9.17339 6.8265 10.1334 7.99983 10.1334Z" fill="#999999"/>
</svg>
