<svg width="174" height="19" viewBox="0 0 174 19" fill="none" xmlns="http://www.w3.org/2000/svg">
<path d="M6.78713 18.168C5.55513 18.168 4.45113 17.968 3.47513 17.568C2.49913 17.168 1.71513 16.576 1.12313 15.792C0.547125 15.008 0.243125 14.064 0.211125 12.96H4.57913C4.64313 13.584 4.85913 14.064 5.22713 14.4C5.59513 14.72 6.07513 14.88 6.66713 14.88C7.27513 14.88 7.75513 14.744 8.10713 14.472C8.45913 14.184 8.63513 13.792 8.63513 13.296C8.63513 12.88 8.49113 12.536 8.20313 12.264C7.93113 11.992 7.58713 11.768 7.17113 11.592C6.77113 11.416 6.19513 11.216 5.44313 10.992C4.35513 10.656 3.46713 10.32 2.77913 9.984C2.09113 9.648 1.49913 9.152 1.00313 8.496C0.507125 7.84 0.259125 6.984 0.259125 5.928C0.259125 4.36 0.827125 3.136 1.96313 2.256C3.09913 1.36 4.57913 0.912 6.40313 0.912C8.25913 0.912 9.75513 1.36 10.8911 2.256C12.0271 3.136 12.6351 4.368 12.7151 5.952H8.27513C8.24313 5.408 8.04313 4.984 7.67513 4.68C7.30713 4.36 6.83513 4.2 6.25912 4.2C5.76313 4.2 5.36313 4.336 5.05913 4.608C4.75513 4.864 4.60313 5.24 4.60313 5.736C4.60313 6.28 4.85913 6.704 5.37112 7.008C5.88313 7.312 6.68313 7.64 7.77113 7.992C8.85913 8.36 9.73913 8.712 10.4111 9.048C11.0991 9.384 11.6911 9.872 12.1871 10.512C12.6831 11.152 12.9311 11.976 12.9311 12.984C12.9311 13.944 12.6831 14.816 12.1871 15.6C11.7071 16.384 11.0031 17.008 10.0751 17.472C9.14713 17.936 8.05113 18.168 6.78713 18.168ZM29.5768 1.152V4.44H25.1128V18H21.0088V4.44H16.5448V1.152H29.5768ZM44.1244 15.024H37.8364L36.8284 18H32.5324L38.6284 1.152H43.3804L49.4764 18H45.1324L44.1244 15.024ZM43.0684 11.856L40.9804 5.688L38.9164 11.856H43.0684ZM67.7798 1.152L61.9478 12.432V18H57.8438V12.432L52.0118 1.152H56.6678L59.9318 8.208L63.1718 1.152H67.7798ZM90.6393 1.152V4.44H86.1753V18H82.0713V4.44H77.6073V1.152H90.6393ZM98.7309 1.152V11.232C98.7309 12.24 98.9789 13.016 99.4749 13.56C99.9709 14.104 100.699 14.376 101.659 14.376C102.619 14.376 103.355 14.104 103.867 13.56C104.379 13.016 104.635 12.24 104.635 11.232V1.152H108.739V11.208C108.739 12.712 108.419 13.984 107.779 15.024C107.139 16.064 106.275 16.848 105.187 17.376C104.115 17.904 102.915 18.168 101.587 18.168C100.259 18.168 99.0669 17.912 98.0109 17.4C96.9709 16.872 96.1469 16.088 95.5389 15.048C94.9309 13.992 94.6269 12.712 94.6269 11.208V1.152H98.7309ZM128.693 18H124.589L117.725 7.608V18H113.621V1.152H117.725L124.589 11.592V1.152H128.693V18ZM137.772 4.44V7.848H143.268V11.016H137.772V14.712H143.988V18H133.668V1.152H143.988V4.44H137.772ZM154.964 1.152C156.74 1.152 158.292 1.504 159.62 2.208C160.948 2.912 161.972 3.904 162.692 5.184C163.428 6.448 163.796 7.912 163.796 9.576C163.796 11.224 163.428 12.688 162.692 13.968C161.972 15.248 160.94 16.24 159.596 16.944C158.268 17.648 156.724 18 154.964 18H148.652V1.152H154.964ZM154.7 14.448C156.252 14.448 157.46 14.024 158.324 13.176C159.188 12.328 159.62 11.128 159.62 9.576C159.62 8.024 159.188 6.816 158.324 5.952C157.46 5.088 156.252 4.656 154.7 4.656H152.756V14.448H154.7ZM173.49 0.551999L173.01 12.048H169.53L169.05 0.551999H173.49ZM171.33 18.192C170.61 18.192 170.018 17.984 169.554 17.568C169.106 17.136 168.882 16.608 168.882 15.984C168.882 15.344 169.106 14.808 169.554 14.376C170.018 13.944 170.61 13.728 171.33 13.728C172.034 13.728 172.61 13.944 173.058 14.376C173.522 14.808 173.754 15.344 173.754 15.984C173.754 16.608 173.522 17.136 173.058 17.568C172.61 17.984 172.034 18.192 171.33 18.192Z" fill="#AB7AB6"/>
</svg>
