<svg width="20" height="24" viewBox="0 0 20 24" fill="none" xmlns="http://www.w3.org/2000/svg">
<path d="M15.84 2.40039H3.36C2.29978 2.40039 1.44 3.25997 1.44 4.32039V11.0404C1.44 12.1004 2.29978 12.9604 3.36 12.9604H4.32V16.3202C4.32 16.4431 4.36685 16.5656 4.46112 16.6598C4.64871 16.8474 4.95245 16.8476 5.13984 16.6598L9.12 12.9604H15.84C16.9 12.9604 17.76 12.1004 17.76 11.0402V4.32039C17.76 3.25997 16.9 2.40039 15.84 2.40039ZM4.8 5.28039H12.48C12.7453 5.28039 12.96 5.49505 12.96 5.76039C12.96 6.02573 12.7453 6.24039 12.48 6.24039H4.8C4.53466 6.24039 4.32 6.02573 4.32 5.76039C4.32 5.49505 4.53466 5.28039 4.8 5.28039ZM8.64 10.0804H4.8C4.53466 10.0804 4.32 9.86573 4.32 9.60039C4.32 9.33505 4.53466 9.12039 4.8 9.12039H8.64C8.90535 9.12039 9.12 9.33505 9.12 9.60039C9.12 9.86573 8.90535 10.0804 8.64 10.0804ZM14.4 8.16039H4.8C4.53466 8.16039 4.32 7.94573 4.32 7.68039C4.32 7.41505 4.53466 7.20039 4.8 7.20039H14.4C14.6653 7.20039 14.88 7.41505 14.88 7.68039C14.88 7.94573 14.6653 8.16039 14.4 8.16039Z" fill="#A3A2A2"/>
</svg>
