<svg width="19" height="21" viewBox="0 0 19 21" fill="none" xmlns="http://www.w3.org/2000/svg">
<path d="M9.99992 20.9902C4.48596 20.9902 0 16.5043 0 10.9902C0 5.47619 4.48596 0.990234 9.99992 0.990234C13.005 0.990234 15.8232 2.32358 17.732 4.64839C18.1026 5.09963 18.037 5.76588 17.5858 6.13643C17.1346 6.50699 16.4684 6.44152 16.0977 5.99019C14.5922 4.15646 12.3696 3.10477 10 3.10477C5.65191 3.10477 2.11454 6.64215 2.11454 10.9902C2.11454 15.3383 5.65191 18.8757 9.99992 18.8757C12.731 18.8757 15.2297 17.4925 16.684 15.1759C16.9944 14.6813 17.6472 14.532 18.1415 14.8426C18.6361 15.1531 18.7852 15.8056 18.4748 16.3001C16.6314 19.2369 13.4631 20.9902 9.99992 20.9902Z" fill="#999999"/>
<path d="M8.6416 6.42285L14.0957 10.9899L8.6416 15.1348V6.42285Z" fill="#999999"/>
</svg>
