<svg width="44" height="44" viewBox="0 0 44 44" fill="none" xmlns="http://www.w3.org/2000/svg">
<ellipse cx="22" cy="22.0001" rx="22" ry="21.6945" fill="white"/>
<path fill-rule="evenodd" clip-rule="evenodd" d="M33 15.2263C32.1819 15.5827 31.3101 15.8189 30.4013 15.9336C31.3363 15.3792 32.0499 14.5081 32.3854 13.4582C31.5136 13.9743 30.5511 14.3388 29.5254 14.5423C28.6976 13.6671 27.5179 13.125 26.2309 13.125C23.7339 13.125 21.7236 15.1376 21.7236 17.6048C21.7236 17.9598 21.7539 18.3012 21.8281 18.6261C18.0785 18.4445 14.7606 16.66 12.5317 13.9415C12.1426 14.6119 11.9144 15.3792 11.9144 16.2053C11.9144 17.7564 12.7187 19.1313 13.9177 19.9273C13.1931 19.9137 12.4822 19.7048 11.88 19.3757C11.88 19.3894 11.88 19.4071 11.88 19.4249C11.88 21.6013 13.4434 23.4091 15.4935 23.8255C15.1264 23.9252 14.7263 23.973 14.311 23.973C14.0223 23.973 13.7307 23.9566 13.4571 23.8965C14.0415 25.6702 15.6998 26.9741 17.6715 27.0164C16.137 28.2084 14.1886 28.9266 12.0794 28.9266C11.7095 28.9266 11.3548 28.9102 11 28.8652C12.9979 30.1445 15.3656 30.875 17.919 30.875C26.2185 30.875 30.756 24.0481 30.756 18.1305C30.756 17.9325 30.7491 17.7414 30.7395 17.5516C31.6346 16.9208 32.3867 16.1329 33 15.2263Z" fill="url(#paint0_linear)"/>
<defs>
<linearGradient id="paint0_linear" x1="11" y1="30.6658" x2="32.4814" y2="30.6658" gradientUnits="userSpaceOnUse">
<stop stop-color="#FDA3D6"/>
<stop offset="1" stop-color="#AB7AB6"/>
</linearGradient>
</defs>
</svg>
