<svg width="27" height="26" viewBox="0 0 27 26" fill="none" xmlns="http://www.w3.org/2000/svg">
<path d="M6.46767 19.735L6.46793 19.7353C6.50759 19.7759 6.55723 19.8261 6.61579 19.8846L21.4099 5.09078C20.3081 4.35373 19.1495 3.98394 17.9596 3.98394C15.9543 3.98394 14.3104 5.03034 13.2766 5.91988L6.46767 19.735ZM6.46767 19.735C3.51158 16.7215 1.75996 13.6003 1.50381 10.9506M6.46767 19.735L1.50381 10.9506M1.50381 10.9506C1.28468 8.66429 2.15648 6.72313 4.03394 5.32509L1.50381 10.9506ZM26.3354 1.02321L26.3352 1.02303C26.1042 0.792425 25.709 0.79212 25.4774 1.02333L25.4773 1.02342L22.2831 4.21733C20.9285 3.25872 19.4745 2.76956 17.9602 2.76956C15.8091 2.76956 14.0477 3.76052 12.8791 4.67579C11.7028 3.76155 9.9386 2.76956 7.81641 2.76956C6.23173 2.76956 4.71458 3.30452 3.30879 4.35136L3.30877 4.35136C1.0789 6.01221 0.0340213 8.33861 0.295677 11.0664L0.295686 11.0665C0.580934 14.0206 2.47568 17.3988 5.60064 20.5841C5.64293 20.6274 5.69561 20.6808 5.75765 20.7427L2.38695 24.1134C2.38691 24.1135 2.38688 24.1135 2.38684 24.1135C2.27199 24.228 2.20876 24.3812 2.20876 24.5433C2.20876 24.705 2.27182 24.8575 2.38639 24.9728L2.38705 24.9735C2.61718 25.2024 3.00915 25.2041 3.24413 24.9736L3.24515 24.9726L6.63539 21.5821C7.40613 22.2891 8.42997 23.1536 9.50838 23.8537C10.6313 24.5827 11.8379 25.15 12.8892 25.15C13.5588 25.15 14.2849 24.9239 15.0065 24.5783C15.7297 24.232 16.4586 23.7607 17.1364 23.2588C18.492 22.2549 19.6557 21.1189 20.1779 20.5864L20.178 20.5863C23.3063 17.3908 25.1997 14.0124 25.4807 11.07C25.7136 8.68277 24.9364 6.58658 23.2305 4.98755L26.3366 1.88151L26.3367 1.88133C26.5727 1.64457 26.5719 1.26005 26.3354 1.02321ZM24.2719 10.9541L24.2719 10.9544C24.0203 13.5926 22.2695 16.7135 19.3101 19.7369C18.3552 20.711 17.1672 21.7654 16.0031 22.575C15.4211 22.9798 14.8478 23.3214 14.3148 23.5613C13.7801 23.8021 13.2958 23.9359 12.8889 23.9359C12.4812 23.9359 12.0121 23.807 11.5115 23.5869C11.0124 23.3674 10.4912 23.0614 9.98184 22.7172C9.0237 22.0695 8.11783 21.2935 7.4941 20.7234L22.3703 5.84744C23.8122 7.18745 24.4681 8.94042 24.2719 10.9541Z" fill="#999999" stroke="#999999" stroke-width="0.3"/>
</svg>
