<svg width="27" height="26" viewBox="0 0 27 26" fill="none" xmlns="http://www.w3.org/2000/svg">
<path d="M26.3352 1.02303L26.3354 1.02321C26.5719 1.26005 26.5727 1.64457 26.3367 1.88133L26.3366 1.88151L23.2305 4.98755C24.9364 6.58658 25.7136 8.68277 25.4807 11.07C25.1997 14.0124 23.3063 17.3908 20.178 20.5863L20.1779 20.5864C19.6557 21.1189 18.492 22.2549 17.1364 23.2588C16.4586 23.7607 15.7297 24.232 15.0065 24.5783C14.2849 24.9239 13.5588 25.15 12.8892 25.15C11.8379 25.15 10.6313 24.5827 9.50838 23.8537C8.42997 23.1536 7.40613 22.2891 6.63539 21.5821L3.24515 24.9726L3.24413 24.9736C3.00915 25.2041 2.61718 25.2024 2.38705 24.9735L2.38639 24.9728C2.27182 24.8575 2.20876 24.705 2.20876 24.5433C2.20876 24.3811 2.27203 24.2279 2.38695 24.1134L5.75765 20.7427C5.69572 20.6809 5.64312 20.6276 5.60087 20.5843C5.60079 20.5842 5.60072 20.5842 5.60064 20.5841L5.70794 20.4793C2.5949 17.3062 0.725614 13.9583 0.444992 11.0521L26.3352 1.02303ZM26.3352 1.02303C26.1042 0.792425 25.709 0.79212 25.4774 1.02333L25.4773 1.02342L22.2831 4.21733L26.3352 1.02303ZM6.46793 19.7353L6.46767 19.735C3.51155 16.7215 1.75994 13.6002 1.50381 10.9506C1.28469 8.66425 2.1565 6.72312 4.03394 5.32509C5.23373 4.4322 6.50549 3.98394 7.81641 3.98394C9.79134 3.98394 11.442 5.03073 12.4866 5.92185L12.4867 5.92195C12.7089 6.11116 13.0564 6.11026 13.2768 5.91969C14.3107 5.03019 15.9545 3.98394 17.9596 3.98394C19.1495 3.98394 20.3081 4.35373 21.4099 5.09078L6.61579 19.8846C6.55723 19.8261 6.50759 19.7759 6.46793 19.7353ZM24.2719 10.9541L24.2719 10.9544C24.0203 13.5926 22.2695 16.7135 19.3101 19.7369C18.3552 20.711 17.1672 21.7654 16.0031 22.575C15.4211 22.9798 14.8478 23.3214 14.3148 23.5613C13.7801 23.8021 13.2958 23.9359 12.8889 23.9359C12.4812 23.9359 12.0121 23.807 11.5115 23.5869C11.0124 23.3674 10.4912 23.0614 9.98184 22.7172C9.0237 22.0695 8.11783 21.2935 7.4941 20.7234L22.3703 5.84744C23.8122 7.18745 24.4681 8.94042 24.2719 10.9541Z" fill="#999999" stroke="#999999" stroke-width="0.3"/>
</svg>
