<svg width="60" height="60" viewBox="0 0 60 60" fill="none" xmlns="http://www.w3.org/2000/svg">
<path fill-rule="evenodd" clip-rule="evenodd" d="M30.0133 0C13.4815 0 2.18396e-05 13.4602 0 29.992C-4.07073e-05 46.5239 13.4814 60 30.0133 60C46.5452 60 60 46.5239 60 29.992C60 13.4602 46.5451 0 30.0133 0ZM42.2295 19.0805C43.3469 19.0566 44.3657 19.717 44.8002 20.7467C45.2346 21.7765 44.9967 22.9671 44.1999 23.7508L27.8353 40.1154C26.7717 41.1727 25.054 41.1727 23.9904 40.1154L15.8001 31.9411C15.1095 31.2504 14.8398 30.2438 15.0926 29.3004C15.3454 28.357 16.0822 27.6201 17.0256 27.3674C17.9691 27.1146 18.9757 27.3843 19.6663 28.0749L25.9022 34.3374L40.3337 19.9059C40.8328 19.3926 41.5137 19.0961 42.2295 19.0805Z" fill="url(#paint0_linear)"/>
<defs>
<linearGradient id="paint0_linear" x1="0" y1="59.2928" x2="58.5857" y2="59.2928" gradientUnits="userSpaceOnUse">
<stop stop-color="#FDA3D6"/>
<stop offset="1" stop-color="#AB7AB6"/>
</linearGradient>
</defs>
</svg>
