<svg width="15" height="18" viewBox="0 0 15 18" fill="none" xmlns="http://www.w3.org/2000/svg">
<path d="M10.6125 0H1.2375C0.5625 0 0 0.5625 0 1.2375V16.7625C0 17.4375 0.5625 18 1.2375 18H13.5C14.175 18 14.7375 17.4375 14.7375 16.7625V4.5C14.7375 4.4625 14.7375 4.425 14.7375 4.35H10.7625C10.5375 4.35 10.35 4.1625 10.3875 3.9375L10.7625 0C10.725 0 10.65 0 10.6125 0ZM2.5125 15.75C2.025 15.75 1.65 15.375 1.65 14.8875C1.65 14.4 2.025 14.025 2.5125 14.025C3 14.025 3.375 14.4 3.375 14.8875C3.375 15.375 3 15.75 2.5125 15.75ZM2.5125 12.6C2.025 12.6 1.65 12.225 1.65 11.7375C1.65 11.25 2.025 10.875 2.5125 10.875C3 10.875 3.375 11.2875 3.375 11.7375C3.375 12.225 3 12.6 2.5125 12.6ZM2.5125 9.45C2.025 9.45 1.65 9.075 1.65 8.5875C1.65 8.1 2.025 7.725 2.5125 7.725C3 7.725 3.375 8.1 3.375 8.5875C3.375 9.075 3 9.45 2.5125 9.45ZM2.625 2.8125C2.625 1.8375 3.4125 1.05 4.3875 1.05C4.875 1.05 5.325 1.2375 5.625 1.575C5.925 1.2375 6.375 1.05 6.8625 1.05C7.8375 1.05 8.625 1.8375 8.625 2.8125C8.625 4.2375 6.7875 5.1375 5.625 6.4125C4.5 5.175 2.625 4.2375 2.625 2.8125ZM12.6375 15.3H4.7625C4.5375 15.3 4.35 15.1125 4.35 14.8875C4.35 14.6625 4.5375 14.475 4.7625 14.475H12.6375C12.8625 14.475 13.05 14.6625 13.05 14.8875C13.05 15.1125 12.8625 15.3 12.6375 15.3ZM12.6375 12.15H4.7625C4.5375 12.15 4.35 11.9625 4.35 11.7375C4.35 11.5125 4.5375 11.325 4.7625 11.325H12.6375C12.8625 11.325 13.05 11.5125 13.05 11.7375C13.05 11.9625 12.9 12.15 12.6375 12.15ZM12.6375 8.175C12.8625 8.175 13.05 8.3625 13.05 8.5875C13.05 8.8125 12.8625 9 12.6375 9H4.7625C4.5375 9 4.35 8.8125 4.35 8.5875C4.35 8.3625 4.5375 8.175 4.7625 8.175H12.6375Z" fill="#A3A2A2"/>
<path d="M11.1751 3.5998H14.1376L11.4751 0.674805L11.1751 3.5998Z" fill="#A3A2A2"/>
</svg>
