<svg width="16" height="24" viewBox="0 0 16 24" fill="none" xmlns="http://www.w3.org/2000/svg">
<path fill-rule="evenodd" clip-rule="evenodd" d="M14.6687 23.7977C14.815 23.928 15.0041 24 15.2 24C15.3129 24.0003 15.4245 23.9763 15.5274 23.9297C15.8149 23.8008 15.9999 23.5151 16 23.2V0.8C16 0.358172 15.6418 0 15.2 0H0.8C0.358172 0 0 0.358172 0 0.8V23.2C0.00017119 23.5149 0.185065 23.8004 0.472345 23.9294C0.759625 24.0584 1.09584 24.0068 1.33128 23.7977L8 17.8703L14.6687 23.7977ZM8.53128 16.2023C8.38512 16.0718 8.19596 15.9998 8 16C7.80399 15.9999 7.61482 16.0721 7.46872 16.2027L1.6 21.4187V1.6H14.4V21.4187L8.53128 16.2023Z" fill="#999999"/>
</svg>
